<svg width="40" height="40" viewBox="0 0 40 40" fill="none" xmlns="http://www.w3.org/2000/svg">
<path d="M20.021 2H18.8575C18.3053 2 17.8575 2.44771 17.8575 3V6.11342C17.8575 6.6657 18.3053 7.11342 18.8575 7.11342H20.021C20.5733 7.11342 21.021 6.6657 21.021 6.11342V3C21.021 2.44772 20.5733 2 20.021 2Z" fill="white"/>
<path d="M39 18.2605H35.8976C35.3453 18.2605 34.8976 18.7082 34.8976 19.2605V20.4308C34.8976 20.9831 35.3453 21.4308 35.8976 21.4308H39C39.5523 21.4308 40 20.9831 40 20.4308V19.2605C40 18.7082 39.5523 18.2605 39 18.2605Z" fill="white"/>
<path d="M4.10242 18.2605H1C0.447715 18.2605 0 18.7082 0 19.2605V20.4308C0 20.9831 0.447717 21.4308 1 21.4308H4.10242C4.65471 21.4308 5.10242 20.9831 5.10242 20.4308V19.2605C5.10242 18.7082 4.65471 18.2605 4.10242 18.2605Z" fill="white"/>
<path d="M5.42467 6.82135L4.60068 7.64759C4.21068 8.03864 4.21086 8.67248 4.60108 9.06332L6.79693 11.2627C7.18715 11.6535 7.81963 11.6533 8.20962 11.2623L9.03361 10.436C9.42361 10.045 9.42343 9.41113 9.03321 9.0203L6.83736 6.82095C6.44714 6.43012 5.81466 6.4303 5.42467 6.82135Z" fill="white"/>
<path d="M32.202 6.71075L30.0064 8.9104C29.6163 9.30129 29.6162 9.93513 30.0062 10.3261L30.8303 11.1522C31.2204 11.5432 31.8529 11.5433 32.243 11.1524L34.4386 8.9528C34.8287 8.56191 34.8288 7.92806 34.4388 7.53706L33.6147 6.71095C33.2246 6.31995 32.5921 6.31986 32.202 6.71075Z" fill="white"/>
<path d="M19.7902 8.85355C13.2591 8.85355 7.95258 14.1715 7.95258 20.7167C7.95258 24.9097 9.99355 28.5913 13.5652 30.8412V33.3979C13.5652 34.8297 14.4837 35.9546 15.9124 36.3637C16.0144 37.2841 16.8308 38 17.8513 38H22.0353C23.0558 38 23.7701 37.2841 23.9742 36.2615C25.3008 35.9546 26.2193 34.7274 26.2193 33.3979V30.8412C29.791 28.6936 31.8319 24.9097 31.8319 20.7167C31.7299 14.2738 26.3213 8.85355 19.7902 8.85355ZM16.0144 28.2845C13.1571 26.8528 11.4222 23.9893 11.4222 20.8189C11.4222 16.2169 15.198 12.4329 19.7902 12.4329C24.3824 12.4329 28.1582 16.2169 28.1582 20.8189C28.1582 23.9893 26.3213 26.955 23.4639 28.3868L22.4435 28.8981V33.0911H17.0349V28.8981L16.0144 28.2845Z" fill="white"/>
<path d="M24.9723 19.2545C25.0386 19.4245 24.9826 19.614 24.8397 19.7351L23.9424 20.5048C23.9652 20.6669 23.9776 20.833 23.9776 21.001C23.9776 21.169 23.9652 21.335 23.9424 21.4972L24.8397 22.2668C24.9826 22.388 25.0386 22.5775 24.9723 22.7474C24.8811 22.9799 24.7713 23.2026 24.6449 23.4175L24.5475 23.5757C24.4107 23.7906 24.2574 23.9937 24.0895 24.1852C23.9673 24.3258 23.7642 24.3727 23.5818 24.318L22.4276 23.9723C22.1499 24.1735 21.8432 24.3415 21.5158 24.4685L21.2568 25.5839C21.2154 25.7617 21.0703 25.9023 20.8797 25.9316C20.5937 25.9766 20.2994 26 19.999 26C19.6985 26 19.4042 25.9766 19.1183 25.9316C18.9276 25.9023 18.7826 25.7617 18.7411 25.5839L18.4821 24.4685C18.1547 24.3415 17.848 24.1735 17.5703 23.9723L16.4182 24.32C16.2358 24.3747 16.0327 24.3258 15.9105 24.1871C15.7426 23.9957 15.5893 23.7925 15.4525 23.5777L15.3551 23.4194C15.2287 23.2045 15.1189 22.9818 15.0277 22.7494C14.9614 22.5794 15.0174 22.3899 15.1603 22.2688L16.0576 21.4991C16.0348 21.335 16.0224 21.169 16.0224 21.001C16.0224 20.833 16.0348 20.6669 16.0576 20.5048L15.1603 19.7351C15.0174 19.614 14.9614 19.4245 15.0277 19.2545C15.1189 19.0221 15.2287 18.7994 15.3551 18.5845L15.4525 18.4263C15.5893 18.2114 15.7426 18.0082 15.9105 17.8168C16.0327 17.6761 16.2358 17.6292 16.4182 17.6839L17.5724 18.0297C17.8501 17.8285 18.1568 17.6605 18.4842 17.5335L18.7432 16.4181C18.7846 16.2403 18.9297 16.0996 19.1203 16.0703C19.4063 16.0234 19.7006 16 20.001 16C20.3015 16 20.5958 16.0234 20.8817 16.0684C21.0724 16.0977 21.2174 16.2383 21.2589 16.4161L21.5179 17.5315C21.8453 17.6585 22.152 17.8265 22.4297 18.0277L23.5839 17.682C23.7662 17.6273 23.9693 17.6761 24.0916 17.8148C24.2594 18.0063 24.4128 18.2094 24.5495 18.4243L24.6469 18.5825C24.7733 18.7974 24.8832 19.0201 24.9744 19.2526L24.9723 19.2545ZM20.001 22.5638C20.4407 22.5638 20.8624 22.3991 21.1733 22.106C21.4842 21.813 21.6588 21.4155 21.6588 21.001C21.6588 20.5865 21.4842 20.189 21.1733 19.8959C20.8624 19.6028 20.4407 19.4382 20.001 19.4382C19.5614 19.4382 19.1397 19.6028 18.8288 19.8959C18.5179 20.189 18.3433 20.5865 18.3433 21.001C18.3433 21.4155 18.5179 21.813 18.8288 22.106C19.1397 22.3991 19.5614 22.5638 20.001 22.5638Z" fill="white"/>
</svg>
