<svg width="16" height="16" viewBox="0 0 16 16" fill="none" xmlns="http://www.w3.org/2000/svg">
<path d="M4.31345 11.622C4.65891 11.3702 5.10613 11.306 5.50782 11.4506C6.21749 11.7077 7.01285 11.8549 7.85909 11.8549C11.1985 11.8549 13.4293 9.69917 13.4293 7.57019C13.4293 5.4412 11.1985 3.28543 7.85909 3.28543C4.51965 3.28543 2.2889 5.4412 2.2889 7.57019C2.2889 8.42714 2.62097 9.25195 3.24494 9.95894C3.47524 10.2187 3.58772 10.5615 3.56094 10.9096C3.52345 11.3943 3.40829 11.8389 3.25833 12.2325C3.71358 12.021 4.09118 11.7853 4.31345 11.6246V11.622ZM1.5712 12.7092C1.61941 12.6369 1.66493 12.5646 1.70778 12.4923C1.97558 12.0478 2.22998 11.464 2.28087 10.8079C1.47747 9.89467 1.00347 8.77795 1.00347 7.57019C1.00347 4.49319 4.07243 2 7.85909 2C11.6457 2 14.7147 4.49319 14.7147 7.57019C14.7147 10.6472 11.6457 13.1404 7.85909 13.1404C6.86556 13.1404 5.92291 12.969 5.07131 12.661C4.75264 12.894 4.23311 13.2127 3.61717 13.4805C3.2128 13.6572 2.75219 13.8179 2.27551 13.9116C2.25409 13.917 2.23266 13.9197 2.21124 13.925C2.09341 13.9464 1.97825 13.9652 1.85775 13.9759C1.85239 13.9759 1.84436 13.9786 1.839 13.9786C1.70242 13.992 1.56585 14 1.42927 14C1.2552 14 1.09988 13.8956 1.03293 13.7349C0.96598 13.5742 1.00347 13.3921 1.12398 13.2689C1.23378 13.1564 1.33286 13.0359 1.42659 12.9074C1.47212 12.8458 1.51497 12.7842 1.55513 12.7226C1.55781 12.7172 1.56049 12.7146 1.56317 12.7092H1.5712Z" fill="white"/>
</svg>
