
<svg width="116" height="52" viewBox="0 0 116 52" fill="none" xmlns="http://www.w3.org/2000/svg">
<path opacity="0.1" d="M69.6993 8.53017C64.1122 8.3574 58.7909 6.75973 53.7097 5.00717C48.6284 3.2546 43.5955 1.31699 38.1424 0.390258C34.6349 -0.205472 30.6234 -0.290363 27.7979 1.37805C25.0778 2.9828 24.199 5.75407 23.7269 8.32576C23.3714 10.2596 23.1623 12.2956 24.1362 14.1066C24.813 15.3643 26.0128 16.4214 26.8433 17.6251C29.7327 21.8164 27.6901 26.9837 24.5599 31.0793C23.0925 32.999 21.3873 34.8298 20.254 36.8735C19.1206 38.9172 18.5963 41.2581 19.5883 43.3405C20.5706 45.4066 22.9128 46.9581 25.45 48.0494C30.6027 50.2622 36.6724 50.9004 42.5954 51.26C55.7025 52.0568 68.8786 51.7113 82.0202 51.3661C86.8839 51.2388 91.7684 51.1096 96.5526 50.442C99.2096 50.0719 101.952 49.4844 103.882 48.0647C106.33 46.2626 106.937 43.2113 105.296 40.9532C102.543 37.1639 94.9363 36.2219 93.0103 32.155C91.9517 29.9165 93.0386 27.423 94.5779 25.3465C97.8791 20.8923 103.412 16.9847 103.703 11.8923C103.903 8.39613 101.243 4.89249 97.1299 3.24008C92.8196 1.50502 86.8414 1.72395 83.663 4.59425C80.3868 7.54423 74.6331 8.68171 69.6993 8.53017Z" fill="#4CCD96"/>
<path opacity="0.1" d="M107.184 2.11473C106.777 2.10867 106.389 2.05261 106.018 1.99112C105.648 1.92963 105.281 1.86164 104.883 1.82912C104.627 1.80822 104.335 1.80524 104.129 1.86378C103.93 1.92009 103.866 2.01733 103.832 2.10756C103.806 2.17542 103.791 2.24685 103.862 2.3104C103.911 2.35453 103.999 2.39162 104.059 2.43385C104.27 2.58092 104.121 2.76222 103.893 2.90593C103.786 2.97329 103.661 3.03753 103.579 3.10924C103.496 3.18095 103.458 3.26308 103.53 3.33615C103.602 3.40864 103.773 3.46308 103.958 3.50137C104.333 3.57902 104.776 3.60141 105.208 3.61403C106.164 3.64199 107.124 3.62986 108.083 3.61775C108.437 3.61328 108.793 3.60875 109.142 3.58533C109.336 3.57234 109.536 3.55172 109.677 3.50191C109.855 3.43868 109.899 3.33162 109.78 3.25238C109.579 3.11943 109.024 3.08637 108.884 2.94367C108.807 2.86513 108.886 2.77764 108.998 2.70478C109.239 2.54849 109.642 2.41138 109.664 2.2327C109.678 2.11003 109.484 1.9871 109.184 1.92912C108.87 1.86824 108.434 1.87592 108.202 1.97663C107.963 2.08014 107.544 2.12005 107.184 2.11473Z" fill="#1E8355"/>
<path opacity="0.1" d="M109.208 45.8401C108.277 45.831 107.39 45.7469 106.543 45.6546C105.696 45.5624 104.857 45.4604 103.948 45.4117C103.364 45.3803 102.695 45.3758 102.224 45.4636C101.771 45.5481 101.624 45.694 101.546 45.8293C101.486 45.9311 101.452 46.0382 101.614 46.1336C101.727 46.1998 101.927 46.2554 102.065 46.3188C102.547 46.5393 102.206 46.8113 101.685 47.0269C101.44 47.1279 101.156 47.2243 100.967 47.3318C100.778 47.4394 100.691 47.5626 100.856 47.6722C101.02 47.7809 101.41 47.8626 101.833 47.92C102.692 48.0365 103.703 48.0701 104.69 48.089C106.875 48.1309 109.071 48.1128 111.261 48.0946C112.072 48.0879 112.886 48.0811 113.683 48.046C114.126 48.0265 114.583 47.9956 114.905 47.9208C115.313 47.826 115.414 47.6654 115.14 47.5465C114.682 47.3471 113.414 47.2975 113.093 47.0835C112.917 46.9657 113.098 46.8344 113.354 46.7251C113.904 46.4907 114.827 46.285 114.875 46.017C114.908 45.833 114.465 45.6486 113.78 45.5616C113.061 45.4703 112.065 45.4818 111.535 45.6329C110.989 45.7882 110.03 45.848 109.208 45.8401Z" fill="#1E8355"/>
<path opacity="0.1" d="M8.43922 46.7478C7.50804 46.7387 6.62116 46.6546 5.77428 46.5624C4.92741 46.4701 4.08858 46.3681 3.17973 46.3194C2.59516 46.288 1.92658 46.2835 1.45566 46.3714C1.0023 46.4558 0.855837 46.6017 0.777159 46.737C0.717909 46.8388 0.683048 46.946 0.845367 47.0413C0.958178 47.1075 1.15814 47.1631 1.29655 47.2265C1.77812 47.4471 1.43769 47.719 0.915995 47.9346C0.671428 48.0356 0.38722 48.132 0.198333 48.2395C0.00944609 48.3471 -0.0779467 48.4703 0.0873975 48.5799C0.251108 48.6886 0.64147 48.7703 1.06433 48.8277C1.92313 48.9442 2.93474 48.9778 3.92191 48.9967C6.10642 49.0387 8.30244 49.0205 10.4927 49.0023C11.3033 48.9956 12.1174 48.9888 12.9148 48.9537C13.3576 48.9342 13.8147 48.9033 14.1363 48.8285C14.5443 48.7337 14.6454 48.5731 14.3719 48.4543C13.9132 48.2548 12.6454 48.2052 12.3244 47.9912C12.148 47.8734 12.3291 47.7421 12.5857 47.6329C13.1359 47.3984 14.058 47.1928 14.1064 46.9247C14.1398 46.7407 13.6965 46.5563 13.011 46.4694C12.2926 46.378 11.2962 46.3896 10.7665 46.5406C10.2205 46.6959 9.26152 46.7558 8.43922 46.7478Z" fill="#1E8355"/>
<path opacity="0.1" d="M27.5032 24.0525C26.572 24.0434 25.6851 23.9593 24.8382 23.8671C23.9914 23.7748 23.1525 23.6728 22.2437 23.6241C21.6591 23.5927 20.9905 23.5882 20.5196 23.676C20.0663 23.7605 19.9198 23.9064 19.8411 24.0417C19.7819 24.1435 19.747 24.2507 19.9093 24.346C20.0221 24.4122 20.2221 24.4678 20.3605 24.5312C20.8421 24.7517 20.5017 25.0237 19.98 25.2393C19.7354 25.3403 19.4512 25.4367 19.2623 25.5442C19.0734 25.6518 18.986 25.775 19.1514 25.8846C19.3151 25.9933 19.7054 26.075 20.1283 26.1324C20.9871 26.2489 21.9987 26.2825 22.9859 26.3014C25.1704 26.3433 27.3664 26.3252 29.5567 26.307C30.3673 26.3003 31.1814 26.2935 31.9787 26.2584C32.4216 26.2389 32.8787 26.208 33.2002 26.1332C33.6083 26.0384 33.7094 25.8778 33.4359 25.7589C32.9772 25.5595 31.7094 25.5099 31.3883 25.2959C31.2119 25.1781 31.3931 25.0468 31.6496 24.9375C32.1998 24.7031 33.1219 24.4974 33.1704 24.2294C33.2038 24.0454 32.7605 23.861 32.075 23.774C31.3566 23.6827 30.3602 23.6942 29.8305 23.8453C29.2844 24.0006 28.3255 24.0604 27.5032 24.0525Z" fill="#1E8355"/>
<path d="M60.9272 37.5262C60.7147 37.5281 60.5044 37.4835 60.3109 37.3956C60.1175 37.3077 59.9456 37.1786 59.8072 37.0173L52.1197 28.6686C51.8597 28.37 51.727 27.9815 51.7501 27.5863C51.7732 27.1911 51.9502 26.8207 52.2432 26.5544C52.5361 26.2881 52.9218 26.1472 53.3174 26.1619C53.713 26.1766 54.0871 26.3457 54.3595 26.6329L60.9782 33.8094L79.3042 15.5342C79.4443 15.3924 79.611 15.2798 79.7948 15.2027C79.9786 15.1256 80.1758 15.0856 80.3751 15.085C80.5744 15.0844 80.7719 15.1232 80.9561 15.1992C81.1404 15.2752 81.3078 15.3868 81.4487 15.5278C81.5896 15.6687 81.7013 15.8361 81.7773 16.0204C81.8533 16.2046 81.8921 16.4021 81.8915 16.6014C81.8909 16.8007 81.8509 16.9979 81.7738 17.1817C81.6967 17.3655 81.584 17.5322 81.4423 17.6723L61.997 37.0674C61.8626 37.2169 61.6973 37.3353 61.5126 37.4145C61.3278 37.4938 61.1281 37.5319 60.9272 37.5262Z" fill="#21A365"/>
<path d="M62.353 50.507C56.9796 50.507 51.8263 48.3725 48.0267 44.5729C44.2271 40.7733 42.0925 35.62 42.0925 30.2466C42.0925 24.8732 44.2271 19.7198 48.0267 15.9202C51.8263 12.1207 56.9796 9.98609 62.353 9.98609C62.5546 9.98238 62.7548 10.0193 62.9417 10.0948C63.1287 10.1702 63.2985 10.2826 63.4411 10.4251C63.5836 10.5676 63.696 10.7375 63.7714 10.9244C63.8468 11.1114 63.8838 11.3116 63.8801 11.5132C63.8837 11.7147 63.8467 11.9149 63.7713 12.1018C63.6959 12.2888 63.5835 12.4586 63.441 12.6011C63.2984 12.7437 63.1286 12.856 62.9417 12.9315C62.7548 13.0069 62.5545 13.0439 62.353 13.0402C58.95 13.0402 55.6234 14.0493 52.7938 15.94C49.9643 17.8306 47.759 20.5178 46.4567 23.6618C45.1544 26.8058 44.8137 30.2654 45.4776 33.603C46.1415 36.9406 47.7802 40.0065 50.1865 42.4128C52.5928 44.8191 55.6586 46.4578 58.9963 47.1217C62.3339 47.7856 65.7935 47.4449 68.9375 46.1426C72.0815 44.8403 74.7687 42.6349 76.6593 39.8054C78.5499 36.9759 79.559 33.6493 79.559 30.2463C79.559 29.8413 79.7199 29.4528 80.0063 29.1665C80.2927 28.8801 80.6811 28.7192 81.0861 28.7192C81.4911 28.7192 81.8795 28.8801 82.1659 29.1665C82.4523 29.4528 82.6132 29.8413 82.6132 30.2463C82.5993 35.6154 80.4603 40.7606 76.6638 44.5573C72.8673 48.3539 67.7221 50.493 62.353 50.507Z" fill="#21A365"/>
</svg>
