<svg width="190" height="190" viewBox="0 0 190 190" fill="none" xmlns="http://www.w3.org/2000/svg">
<path d="M190 145.312H0V145.407H190V145.312Z" fill="#EBEBEB"/>
<path d="M170.962 151.426H158.376V151.521H170.962V151.426Z" fill="#EBEBEB"/>
<path d="M103.824 150.237H98.9254V150.332H103.824V150.237Z" fill="#EBEBEB"/>
<path d="M132.875 150.64H122.561V150.735H132.875V150.64Z" fill="#EBEBEB"/>
<path d="M157.996 147.9H136.675V147.995H157.996V147.9Z" fill="#EBEBEB"/>
<path d="M30.0162 152.296H19.9348V152.391H30.0162V152.296Z" fill="#EBEBEB"/>
<path d="M42.1382 152.296H33.3982V152.391H42.1382V152.296Z" fill="#EBEBEB"/>
<path d="M72.8878 150.191H49.78V150.286H72.8878V150.191Z" fill="#EBEBEB"/>
<path d="M95 162.473C135.691 162.473 168.678 160.547 168.678 158.171C168.678 155.795 135.691 153.87 95 153.87C54.3086 153.87 21.3218 155.795 21.3218 158.171C21.3218 160.547 54.3086 162.473 95 162.473Z" fill="#0C121A"/>
<path d="M24.6386 103.391L24.2537 103.436L24.9378 109.286L25.3228 109.241L24.6386 103.391Z" fill="#259AA4"/>
<path d="M25.5778 111.417L25.1929 111.462L25.538 114.413L25.923 114.368L25.5778 111.417Z" fill="#259AA4"/>
<path d="M51.1442 91.4622L50.6882 90.1816C50.3745 89.3014 49.7714 88.5537 48.9776 88.0609C48.1838 87.568 47.2462 87.3591 46.3182 87.4684L28.158 89.5926C27.0701 89.7202 26.0774 90.2747 25.3983 91.1341C24.7192 91.9935 24.4092 93.0875 24.5366 94.1754L29.7046 138.369C29.7475 138.739 29.8629 139.097 30.0441 139.422C30.2253 139.747 30.4688 140.033 30.7607 140.264C31.0525 140.494 31.3871 140.665 31.7451 140.767C32.1031 140.868 32.4776 140.898 32.8472 140.855L97.8272 133.255C98.1975 133.213 98.5559 133.098 98.8817 132.917C99.2076 132.736 99.4946 132.493 99.7262 132.201C99.9578 131.909 100.129 131.574 100.231 131.216C100.333 130.857 100.363 130.482 100.32 130.112L95.836 91.9068C95.7493 91.161 95.3699 90.4802 94.7813 90.0142C94.1926 89.5481 93.443 89.3349 92.6972 89.4216L54.9632 93.8372C54.1519 93.9311 53.3327 93.7474 52.6392 93.3161C51.9457 92.8848 51.4187 92.2314 51.1442 91.4622Z" fill="#259AA4"/>
<path d="M52.9575 72.2438L32.427 76.335L38.0637 104.621L58.5942 100.53L52.9575 72.2438Z" fill="#259AA4"/>
<path opacity="0.7" d="M52.9575 72.2438L32.427 76.335L38.0637 104.621L58.5942 100.53L52.9575 72.2438Z" fill="white"/>
<g opacity="0.4">
<path d="M50.217 79.04L37.5706 81.5632C37.276 81.6204 36.9708 81.5591 36.7211 81.3926C36.4713 81.2262 36.2974 80.9679 36.2368 80.674C36.1796 80.3794 36.2409 80.0741 36.4074 79.8244C36.5739 79.5747 36.8321 79.4007 37.126 79.3402L49.78 76.8284C50.0746 76.7712 50.3799 76.8325 50.6296 76.999C50.8793 77.1654 51.0533 77.4237 51.1138 77.7176C51.1675 78.0116 51.1036 78.3149 50.9359 78.5622C50.7681 78.8095 50.51 78.9811 50.217 79.04Z" fill="#259AA4"/>
<path d="M51.1481 83.7254L38.5017 86.26C38.2076 86.3161 37.9033 86.2543 37.6545 86.0879C37.4057 85.9215 37.2322 85.6639 37.1717 85.3708C37.1156 85.0768 37.1774 84.7725 37.3438 84.5236C37.5102 84.2748 37.7677 84.1014 38.0609 84.0408L50.7073 81.5214C51.0013 81.4653 51.3056 81.5271 51.5545 81.6935C51.8033 81.8599 51.9767 82.1174 52.0373 82.4106C52.089 82.7023 52.0251 83.0027 51.8591 83.2482C51.6931 83.4936 51.4381 83.6648 51.1481 83.7254Z" fill="#259AA4"/>
<path d="M52.079 88.4032L39.4326 90.9226C39.1385 90.9787 38.8343 90.9169 38.5854 90.7505C38.3366 90.5841 38.1631 90.3265 38.1026 90.0334C38.0465 89.7394 38.1083 89.4351 38.2747 89.1862C38.4411 88.9374 38.6986 88.7639 38.9918 88.7034L51.6382 86.1802C51.9322 86.1241 52.2365 86.1859 52.4854 86.3523C52.7342 86.5187 52.9076 86.7763 52.9682 87.0694C53.0254 87.364 52.9641 87.6693 52.7976 87.919C52.6311 88.1687 52.3729 88.3427 52.079 88.4032Z" fill="#259AA4"/>
<path d="M53.0138 93.1L40.3674 95.6194C40.0728 95.6766 39.7675 95.6153 39.5178 95.4488C39.2681 95.2824 39.0941 95.0241 39.0336 94.7302C38.9764 94.4356 39.0377 94.1303 39.2042 93.8806C39.3706 93.6309 39.6288 93.4569 39.9228 93.3964L52.5692 90.877C52.8638 90.8198 53.1691 90.8811 53.4188 91.0476C53.6685 91.214 53.8425 91.4723 53.903 91.7662C53.9602 92.0608 53.8989 92.3661 53.7324 92.6158C53.5659 92.8655 53.3077 93.0395 53.0138 93.1Z" fill="#259AA4"/>
<path d="M50.4868 98.4466L41.2984 100.278C41.0044 100.334 40.7001 100.272 40.4512 100.106C40.2024 99.9397 40.029 99.6821 39.9684 99.389C39.9112 99.0944 39.9725 98.7891 40.139 98.5394C40.3054 98.2897 40.5637 98.1157 40.8576 98.0552L50.046 96.2236C50.34 96.1675 50.6443 96.2293 50.8932 96.3957C51.142 96.5621 51.3154 96.8197 51.376 97.1128C51.4332 97.4074 51.3719 97.7127 51.2054 97.9624C51.039 98.2121 50.7807 98.3861 50.4868 98.4466Z" fill="#259AA4"/>
</g>
<path d="M82.211 66.7927L61.47 69.6302L65.3793 98.206L86.1203 95.3685L82.211 66.7927Z" fill="#259AA4"/>
<path opacity="0.7" d="M82.211 66.7927L61.47 69.6302L65.3793 98.206L86.1203 95.3685L82.211 66.7927Z" fill="white"/>
<g opacity="0.4">
<path d="M79.0628 73.416L66.2872 75.164C65.9897 75.203 65.6888 75.1232 65.4498 74.9418C65.2107 74.7604 65.0529 74.492 65.0104 74.195C64.9714 73.8975 65.0512 73.5966 65.2326 73.3576C65.414 73.1185 65.6824 72.9607 65.9794 72.9182L78.755 71.1702C79.0525 71.1312 79.3534 71.211 79.5925 71.3924C79.8315 71.5738 79.9894 71.8422 80.0318 72.1392C80.0708 72.4367 79.991 72.7376 79.8096 72.9766C79.6282 73.2157 79.3599 73.3735 79.0628 73.416Z" fill="#259AA4"/>
<path d="M79.7088 78.1394L66.9332 79.8874C66.6357 79.9264 66.3348 79.8466 66.0958 79.6652C65.8567 79.4838 65.6989 79.2154 65.6564 78.9184C65.6185 78.6215 65.6988 78.3216 65.8801 78.0834C66.0614 77.8452 66.3291 77.6879 66.6254 77.6454L79.401 75.8974C79.698 75.8583 79.9984 75.9376 80.2373 76.1183C80.4762 76.2989 80.6345 76.5662 80.6778 76.8626C80.7168 77.1601 80.637 77.461 80.4556 77.7001C80.2742 77.9391 80.0059 78.0969 79.7088 78.1394Z" fill="#259AA4"/>
<path d="M71.098 84.132L67.5792 84.6146C67.2817 84.6536 66.9808 84.5738 66.7418 84.3924C66.5027 84.211 66.3449 83.9426 66.3024 83.6456C66.2634 83.3481 66.3432 83.0472 66.5246 82.8082C66.706 82.5691 66.9744 82.4113 67.2714 82.3688L70.794 81.8862C71.0909 81.8483 71.3909 81.9286 71.629 82.1099C71.8672 82.2912 72.0245 82.5589 72.067 82.8552C72.106 83.1527 72.0262 83.4536 71.8448 83.6927C71.6634 83.9317 71.3951 84.0895 71.098 84.132Z" fill="#259AA4"/>
<path d="M77.9266 83.1972L74.404 83.6798C74.1071 83.7178 73.8072 83.6374 73.569 83.4561C73.3308 83.2748 73.1735 83.0071 73.131 82.7108C73.092 82.4133 73.1718 82.1124 73.3533 81.8734C73.5347 81.6343 73.803 81.4765 74.1 81.434L77.6188 80.9552C77.9158 80.9161 78.2162 80.9954 78.4551 81.176C78.694 81.3567 78.8523 81.624 78.8956 81.9204C78.9347 82.2179 78.8548 82.5188 78.6734 82.7578C78.492 82.9969 78.2237 83.1547 77.9266 83.1972Z" fill="#259AA4"/>
<path d="M81.0008 87.59L68.2252 89.338C67.9277 89.377 67.6268 89.2972 67.3878 89.1158C67.1487 88.9344 66.9909 88.666 66.9484 88.369C66.9105 88.0721 66.9908 87.7722 67.1721 87.534C67.3534 87.2958 67.6211 87.1385 67.9174 87.096L80.693 85.3442C80.9905 85.3052 81.2914 85.385 81.5305 85.5664C81.7695 85.7478 81.9274 86.0162 81.9698 86.3132C82.0088 86.6107 81.929 86.9116 81.7476 87.1506C81.5662 87.3897 81.2979 87.5475 81.0008 87.59Z" fill="#259AA4"/>
<path d="M78.1585 92.7922L68.8713 94.0614C68.5749 94.0994 68.2755 94.0196 68.0374 93.8391C67.7993 93.6586 67.6416 93.3918 67.5983 93.0962C67.5592 92.7993 67.6385 92.4989 67.8191 92.2599C67.9997 92.021 68.2671 91.8628 68.5635 91.8194L77.8507 90.5502C78.147 90.5122 78.4464 90.592 78.6845 90.7725C78.9226 90.953 79.0803 91.2198 79.1237 91.5154C79.1628 91.8123 79.0834 92.1128 78.9028 92.3517C78.7222 92.5906 78.4548 92.7488 78.1585 92.7922Z" fill="#259AA4"/>
</g>
<path d="M62.6395 70.962L41.7843 72.7792L44.288 101.512L65.1432 99.6951L62.6395 70.962Z" fill="#259AA4"/>
<path opacity="0.8" d="M62.6395 70.962L41.7843 72.7792L44.288 101.512L65.1432 99.6951L62.6395 70.962Z" fill="white"/>
<g opacity="0.4">
<path d="M59.1698 77.4288L46.322 78.546C46.0231 78.5703 45.7267 78.4758 45.4969 78.2831C45.2672 78.0903 45.1226 77.8148 45.0946 77.5162C45.0714 77.2179 45.1663 76.9224 45.359 76.6935C45.5516 76.4646 45.8266 76.3206 46.1244 76.2926L58.9722 75.1526C59.2712 75.1283 59.5676 75.2228 59.7973 75.4155C60.0271 75.6083 60.1716 75.8838 60.1996 76.1824C60.2143 76.3319 60.1993 76.4829 60.1554 76.6266C60.1115 76.7703 60.0396 76.9039 59.9439 77.0197C59.8482 77.1356 59.7306 77.2313 59.5977 77.3015C59.4649 77.3717 59.3195 77.415 59.1698 77.4288Z" fill="#259AA4"/>
<path d="M59.5841 82.1788L46.7363 83.3188C46.4374 83.3431 46.1409 83.2486 45.9112 83.0559C45.6814 82.8631 45.5369 82.5876 45.5089 82.289C45.4846 81.9901 45.579 81.6936 45.7718 81.4639C45.9646 81.2341 46.2401 81.0896 46.5387 81.0616L59.3865 79.9216C59.6854 79.8973 59.9818 79.9918 60.2116 80.1845C60.4413 80.3773 60.5859 80.6528 60.6139 80.9514C60.6382 81.2503 60.5437 81.5468 60.351 81.7765C60.1582 82.0063 59.8827 82.1508 59.5841 82.1788Z" fill="#259AA4"/>
<path d="M59.9983 86.9288L47.1505 88.0688C46.8516 88.0931 46.5551 87.9986 46.3254 87.8059C46.0956 87.6131 45.9511 87.3376 45.9231 87.039C45.8988 86.7401 45.9932 86.4436 46.186 86.2139C46.3787 85.9841 46.6543 85.8396 46.9529 85.8116L59.8007 84.6716C60.0996 84.6473 60.396 84.7418 60.6258 84.9345C60.8555 85.1273 61.0001 85.4028 61.0281 85.7014C61.0524 86.0003 60.9579 86.2968 60.7651 86.5265C60.5724 86.7563 60.2969 86.9008 59.9983 86.9288Z" fill="#259AA4"/>
<path d="M60.42 91.6788L47.5722 92.8188C47.2733 92.8431 46.9769 92.7486 46.7471 92.5559C46.5174 92.3631 46.3728 92.0876 46.3448 91.789C46.3205 91.4901 46.415 91.1936 46.6077 90.9639C46.8005 90.7341 47.076 90.5896 47.3746 90.5616L60.2224 89.4444C60.5213 89.4201 60.8178 89.5146 61.0475 89.7073C61.2773 89.9001 61.4218 90.1756 61.4498 90.4742C61.4679 90.7693 61.3706 91.06 61.1785 91.2847C60.9863 91.5095 60.7144 91.6508 60.42 91.6788Z" fill="#259AA4"/>
<path d="M57.3155 96.7366L47.9789 97.5498C47.6781 97.5773 47.3787 97.4843 47.1464 97.2912C46.9142 97.0981 46.768 96.8207 46.7401 96.52C46.7158 96.2211 46.8102 95.9246 47.003 95.6949C47.1958 95.4651 47.4713 95.3206 47.7699 95.2926L57.1065 94.4794C57.4054 94.4551 57.7018 94.5496 57.9316 94.7423C58.1613 94.9351 58.3059 95.2106 58.3339 95.5092C58.3583 95.8063 58.2654 96.1012 58.0751 96.3306C57.8847 96.5601 57.612 96.7058 57.3155 96.7366Z" fill="#259AA4"/>
</g>
<path d="M88.0519 69.5659L67.142 70.574L68.5308 99.3825L89.4407 98.3745L88.0519 69.5659Z" fill="#259AA4"/>
<path opacity="0.8" d="M88.0519 69.5659L67.142 70.574L68.5308 99.3825L89.4407 98.3745L88.0519 69.5659Z" fill="white"/>
<g opacity="0.4">
<path d="M84.3372 75.886L71.4591 76.5092C71.1598 76.5216 70.8676 76.4158 70.6458 76.2146C70.4239 76.0133 70.2902 75.7329 70.2734 75.4338C70.261 75.1345 70.3668 74.8424 70.5681 74.6205C70.7693 74.3987 71.0498 74.2649 71.3488 74.2482L84.2309 73.625C84.5301 73.6126 84.8223 73.7184 85.0441 73.9196C85.266 74.1209 85.3997 74.4013 85.4164 74.7004C85.4289 75.0003 85.3225 75.293 85.1205 75.515C84.9184 75.7369 84.637 75.8702 84.3372 75.886Z" fill="#259AA4"/>
<path d="M84.5691 80.6512L71.6871 81.2706C71.3878 81.283 71.0956 81.1772 70.8738 80.976C70.6519 80.7747 70.5182 80.4943 70.5015 80.1952C70.489 79.8953 70.5954 79.6026 70.7974 79.3806C70.9995 79.1587 71.2809 79.0253 71.5807 79.0096L84.4589 78.3864C84.7588 78.374 85.0515 78.4803 85.2734 78.6824C85.4954 78.8844 85.6287 79.1659 85.6445 79.4656C85.6569 79.7649 85.5511 80.057 85.3498 80.2789C85.1486 80.5007 84.8681 80.6345 84.5691 80.6512Z" fill="#259AA4"/>
<path d="M75.4681 85.88L71.9189 86.051C71.6196 86.0634 71.3275 85.9576 71.1056 85.7564C70.8837 85.5551 70.75 85.2747 70.7333 84.9756C70.7208 84.6763 70.8267 84.3842 71.0279 84.1623C71.2291 83.9405 71.5096 83.8067 71.8087 83.79L75.3579 83.6152C75.6578 83.6028 75.9505 83.7091 76.1724 83.9112C76.3944 84.1132 76.5277 84.3947 76.5435 84.6944C76.5559 84.9937 76.4501 85.2858 76.2489 85.5077C76.0476 85.7295 75.7672 85.8633 75.4681 85.88Z" fill="#259AA4"/>
<path d="M82.3498 85.5304L78.8006 85.7014C78.5013 85.7138 78.2092 85.608 77.9873 85.4068C77.7655 85.2055 77.6317 84.9251 77.615 84.626C77.6026 84.3267 77.7084 84.0346 77.9096 83.8127C78.1109 83.5909 78.3913 83.4571 78.6904 83.4404L82.2396 83.2694C82.5389 83.257 82.831 83.3628 83.0529 83.564C83.2747 83.7653 83.4085 84.0457 83.4252 84.3448C83.4376 84.6441 83.3318 84.9362 83.1306 85.1581C82.9293 85.3799 82.6489 85.5137 82.3498 85.5304Z" fill="#259AA4"/>
<path d="M85.0289 90.1778L72.1469 90.7972C71.8476 90.8096 71.5555 90.7038 71.3336 90.5026C71.1118 90.3013 70.978 90.0209 70.9613 89.7218C70.9489 89.4219 71.0552 89.1292 71.2573 88.9072C71.4593 88.6853 71.7408 88.5519 72.0405 88.5362L84.9187 87.913C85.2186 87.9006 85.5113 88.0069 85.7333 88.209C85.9552 88.411 86.0885 88.6925 86.1043 88.9922C86.1167 89.2915 86.0109 89.5836 85.8097 89.8055C85.6084 90.0273 85.328 90.1611 85.0289 90.1778Z" fill="#259AA4"/>
<path d="M81.738 95.1102L72.3786 95.5624C72.0793 95.5748 71.7872 95.469 71.5653 95.2678C71.3435 95.0665 71.2097 94.7861 71.193 94.487C71.1806 94.1877 71.2864 93.8956 71.4876 93.6737C71.6889 93.4519 71.9693 93.3181 72.2684 93.3014L81.6278 92.8492C81.9271 92.8368 82.2192 92.9426 82.4411 93.1438C82.6629 93.3451 82.7967 93.6255 82.8134 93.9246C82.8258 94.2239 82.72 94.516 82.5188 94.7379C82.3175 94.9597 82.0371 95.0935 81.738 95.1102Z" fill="#259AA4"/>
</g>
<path d="M56.943 92.2792L56.6086 91.029C56.3744 90.1638 55.8304 89.4147 55.08 88.9243C54.3297 88.4339 53.4253 88.2363 52.5388 88.369L34.3786 90.4932C33.2769 90.6282 32.2622 91.1605 31.5249 91.9902C30.7875 92.8199 30.3781 93.89 30.3734 95L31.4032 138.263C31.4094 138.619 31.4917 138.97 31.6448 139.292C31.7978 139.614 32.018 139.899 32.2905 140.129C32.563 140.359 32.8816 140.527 33.2247 140.624C33.5678 140.72 33.9276 140.742 34.2798 140.687L99.2598 133.087C100.014 132.996 100.71 132.632 101.215 132.065C101.721 131.498 102.003 130.766 102.007 130.006L101.118 92.606C101.111 92.2495 101.028 91.8985 100.875 91.5767C100.722 91.2548 100.501 90.9695 100.228 90.7399C99.9554 90.5103 99.6366 90.3417 99.2933 90.2454C98.95 90.1491 98.59 90.1273 98.2376 90.1816L60.5074 94.5934C59.7329 94.7116 58.9419 94.5413 58.2848 94.1146C57.6277 93.688 57.1502 93.0348 56.943 92.2792Z" fill="#259AA4"/>
<path opacity="0.3" d="M56.943 92.2792L56.6086 91.029C56.3744 90.1638 55.8304 89.4147 55.08 88.9243C54.3297 88.4339 53.4253 88.2363 52.5388 88.369L34.3786 90.4932C33.2769 90.6282 32.2622 91.1605 31.5249 91.9902C30.7875 92.8199 30.3781 93.89 30.3734 95L31.4032 138.263C31.4094 138.619 31.4917 138.97 31.6448 139.292C31.7978 139.614 32.018 139.899 32.2905 140.129C32.563 140.359 32.8816 140.527 33.2247 140.624C33.5678 140.72 33.9276 140.742 34.2798 140.687L99.2598 133.087C100.014 132.996 100.71 132.632 101.215 132.065C101.721 131.498 102.003 130.766 102.007 130.006L101.118 92.606C101.111 92.2495 101.028 91.8985 100.875 91.5767C100.722 91.2548 100.501 90.9695 100.228 90.7399C99.9554 90.5103 99.6366 90.3417 99.2933 90.2454C98.95 90.1491 98.59 90.1273 98.2376 90.1816L60.5074 94.5934C59.7329 94.7116 58.9419 94.5413 58.2848 94.1146C57.6277 93.688 57.1502 93.0348 56.943 92.2792Z" fill="black"/>
<path d="M120.46 71.4818C120.179 72.8916 119.879 74.2824 119.54 75.6618C119.202 77.0412 118.872 78.4358 118.503 79.8152L117.941 81.8786L117.868 82.1446C117.834 82.2586 117.796 82.3726 117.751 82.4904C117.653 82.7491 117.526 82.9952 117.371 83.2238C117.182 83.5078 116.941 83.7529 116.66 83.9458C116.351 84.1556 115.994 84.2861 115.623 84.3258C115.06 84.3667 114.497 84.2468 114 83.98C113.622 83.7744 113.268 83.5285 112.944 83.2466C112.356 82.7331 111.836 82.147 111.397 81.5024L112.48 80.56C112.997 80.9622 113.543 81.3254 114.114 81.6468C114.362 81.7874 114.624 81.9008 114.897 81.985C115.129 82.061 115.334 82.0496 115.334 82.0116C115.334 81.9736 115.296 82.0116 115.277 82.0116C115.258 82.0116 115.277 82.0116 115.277 81.947C115.277 81.8824 115.322 81.814 115.349 81.7152L115.436 81.2934L115.877 79.2186L116.77 75.069C117.059 73.6858 117.371 72.2988 117.671 70.9308L120.46 71.4818Z" fill="#FFC3BD"/>
<path d="M119.198 67.1384C115.957 69.6198 116.09 74.2976 116.09 74.2976L121.885 75.6846C121.885 75.6846 123.667 70.9802 122.945 69.2588C122.193 67.4652 121.026 65.74 119.198 67.1384Z" fill="#263238"/>
<path d="M112.769 80.617L110.637 78.4852L109.497 81.8216C109.497 81.8216 111.298 82.7906 113.02 81.8748L112.769 80.617Z" fill="#FFC3BD"/>
<path d="M107.684 78.1546L107.293 80.7918L109.486 81.8216L110.637 78.4852L107.684 78.1546Z" fill="#FFC3BD"/>
<path d="M137.986 155.367L134.725 155.686L131.332 147.923L134.592 147.603L137.986 155.367Z" fill="#FFC3BD"/>
<path d="M158.992 143.891L156.541 146.19L151.255 140.38L153.706 138.081L158.992 143.891Z" fill="#FFC3BD"/>
<path d="M155.42 145.088L157.259 141.774C157.29 141.716 157.341 141.671 157.403 141.648C157.464 141.625 157.532 141.625 157.594 141.649L160.425 142.728C160.495 142.757 160.558 142.801 160.609 142.857C160.661 142.912 160.701 142.978 160.726 143.049C160.75 143.121 160.76 143.197 160.753 143.273C160.746 143.348 160.724 143.422 160.687 143.488C160.026 144.628 159.649 145.152 158.84 146.612C158.342 147.508 157.373 149.564 156.685 150.792C155.998 152.019 154.736 151.419 154.911 150.841C155.697 148.249 155.549 146.809 155.329 145.669C155.291 145.471 155.323 145.265 155.42 145.088Z" fill="#263238"/>
<path d="M134.292 154.679H138.297C138.369 154.679 138.439 154.703 138.496 154.747C138.553 154.791 138.594 154.853 138.613 154.922L139.483 158.088C139.504 158.162 139.508 158.241 139.493 158.317C139.479 158.394 139.447 158.466 139.399 158.527C139.352 158.589 139.291 158.639 139.221 158.673C139.151 158.706 139.074 158.723 138.996 158.722C137.583 158.722 136.914 158.722 135.155 158.722H129.774C128.307 158.722 128.003 157.244 128.607 157.107C131.324 156.507 132.886 155.678 133.726 154.888C133.881 154.75 134.084 154.675 134.292 154.679Z" fill="#263238"/>
<path opacity="0.2" d="M131.336 147.926L133.084 151.928H136.485L134.596 147.607L131.336 147.926Z" fill="black"/>
<path opacity="0.2" d="M153.706 138.084L151.255 140.383L153.984 143.378L156.435 141.075L153.706 138.084Z" fill="black"/>
<path d="M120.179 66.6596C120.179 66.6596 118.712 67.3018 123.629 86.7578L137.286 85.576C136.58 80.0394 136.276 76.6118 137.944 64.9724C135.998 64.7423 134.039 64.6546 132.08 64.7102C130.003 64.7413 127.931 64.9204 125.879 65.246C123.956 65.6204 122.054 66.0922 120.179 66.6596Z" fill="#263238"/>
<path d="M132.08 64.6C132.08 64.6 132.84 64.6 133.768 64.6C134.319 65.4474 132.533 69.16 129.588 71.5882C129.139 70.2383 128.315 69.044 127.213 68.1454L132.08 64.6Z" fill="white"/>
<path d="M125.879 65.1966C125.879 65.1966 125.533 65.246 124.708 65.436C124.157 66.2834 123.226 69.9048 124.849 71.7516C125.257 70.3511 126.077 69.1055 127.201 68.1758L125.879 65.1966Z" fill="white"/>
<path d="M130.861 57.779C130.644 59.8082 130.568 63.479 132.08 64.7102C132.08 64.7102 130.465 66.3594 127.201 68.1758C124.826 66.5342 125.879 65.246 125.879 65.246C128.056 64.524 127.855 62.8786 127.334 61.3586L130.861 57.779Z" fill="#FFC3BD"/>
<path d="M127.144 68.1872C127.144 68.1872 129.147 66.006 130.184 66.424C131.222 66.842 130.42 67.5906 130.329 68.2936C130.237 68.9966 130.731 70.8662 129.344 70.3798C127.957 69.8934 127.144 68.1872 127.144 68.1872Z" fill="#259AA4"/>
<path d="M127.064 68.1416C127.064 68.1416 126.118 66.4696 125.096 66.6938C124.074 66.918 124.682 67.5032 124.773 68.134C124.891 68.9396 124.04 70.49 125.271 70.034C126.502 69.578 127.064 68.1416 127.064 68.1416Z" fill="#259AA4"/>
<g opacity="0.2">
<path d="M126.54 67.7806C126.526 68.1177 126.591 68.4534 126.73 68.761C126.856 68.5646 126.966 68.3588 127.061 68.1454C126.92 67.9072 126.759 67.682 126.578 67.4728C126.547 67.5722 126.534 67.6765 126.54 67.7806Z" fill="black"/>
<path d="M127.874 67.4804C127.444 67.8604 127.148 68.1872 127.148 68.1872C127.258 68.4153 127.386 68.6351 127.528 68.8446C127.758 68.6143 127.893 68.3068 127.908 67.982C127.945 67.8149 127.933 67.641 127.874 67.4804Z" fill="black"/>
</g>
<path d="M127.121 68.8712C126.836 68.8712 126.662 68.5634 126.643 67.83C126.624 67.0966 127.186 67.5032 127.186 67.5032C127.186 67.5032 127.946 67.1232 127.809 68.001C127.71 68.6964 127.414 68.8712 127.121 68.8712Z" fill="#259AA4"/>
<path opacity="0.2" d="M129.424 59.242L127.338 61.3586C127.463 61.711 127.558 62.0733 127.623 62.4416C128.463 62.2478 129.679 61.3738 129.69 60.477C129.677 60.0527 129.586 59.6343 129.424 59.242Z" fill="black"/>
<path d="M127.634 50.92C127.634 50.92 125.354 54.0778 124.974 55.48C123.424 56.3844 123.112 51.9346 123.933 49.191C126.494 50.7984 127.634 50.92 127.634 50.92Z" fill="#263238"/>
<path d="M132.647 54.6098C131.799 57.8512 131.507 59.242 129.523 60.5986C126.532 62.643 122.736 60.895 122.596 57.4636C122.47 54.378 123.876 49.5938 127.346 48.9212C128.11 48.766 128.902 48.8095 129.645 49.0477C130.388 49.2858 131.057 49.7106 131.589 50.2813C132.121 50.8521 132.497 51.5497 132.682 52.3076C132.868 53.0654 132.855 53.8581 132.647 54.6098Z" fill="#FFC3BD"/>
<path d="M134.41 53.314C134.41 53.314 132.78 55.955 132.559 57.114C131.377 57.9158 130.88 54.397 131.377 52.174C131.921 50.1942 134.41 53.314 134.41 53.314Z" fill="#263238"/>
<path d="M133.76 51.4786C133.289 51.8358 132.791 50.5172 133.258 49.5064C132.358 49.5634 131.275 49.0276 131.507 48.1574C129.732 48.754 129.075 46.949 129.28 45.6988C129.527 44.1788 130.849 43.8558 131.628 44.2548C131.628 43.5746 133.346 42.1572 133.999 43.2668C135.212 42.8374 137.165 42.9704 137.123 44.46C137.925 44.4828 140.292 45.391 139.403 47.5C140.448 47.5608 141.014 48.887 140.433 49.8902C140.662 50.0115 140.858 50.1862 141.006 50.3994C141.153 50.6126 141.247 50.8582 141.279 51.1153C141.312 51.3725 141.282 51.6336 141.192 51.8768C141.102 52.1199 140.955 52.3378 140.763 52.5122C141.246 53.5154 139.783 55.0088 139.004 54.8302C138.411 55.7384 137.503 56.4224 136.91 55.6472C135.77 56.487 134.459 55.4192 134.752 54.5984C133.46 54.4008 132.141 52.2462 133.76 51.4786Z" fill="#263238"/>
<path d="M135.69 48.2866C136.542 49.7078 136.469 51.3266 135.535 51.8776C134.6 52.4286 133.144 51.7446 132.293 50.3234C131.442 48.9022 131.51 47.2834 132.449 46.7324C133.388 46.1814 134.839 46.8692 135.69 48.2866Z" fill="#259AA4"/>
<path d="M127.786 50.54C127.737 50.9466 126.616 50.8402 126.293 50.122C125.829 50.6084 124.739 50.8592 124.366 50.331C123.736 51.5166 122.466 51.205 122.14 50.6388C121.813 50.0726 121.596 49.02 122.254 48.811C121.874 48.4842 121.988 46.9452 122.983 47.139C123.401 46.3182 124.545 45.3872 125.381 46.113C125.837 45.733 127.661 44.9426 128.398 46.3904C128.56 46.2799 128.745 46.2075 128.938 46.1786C129.132 46.1497 129.33 46.1651 129.516 46.2237C129.703 46.2822 129.875 46.3823 130.017 46.5165C130.16 46.6507 130.27 46.8154 130.34 46.9984C131.522 46.6906 132.035 47.5874 132.031 48.0738C132.871 48.3018 132.928 49.7534 132.411 50.065C132.612 50.7984 132.506 51.585 131.735 51.5166C131.586 52.5046 130.264 52.6566 129.952 52.1208C129.094 52.6718 127.342 51.7142 127.786 50.54Z" fill="#263238"/>
<path d="M125.78 47.7356C126.741 46.4056 130.249 45.8356 133.285 47.8458C136.021 49.6432 135.842 53.8194 133.665 53.5952C131.488 53.371 129.337 50.8212 129.337 50.8212L125.78 47.7356Z" fill="#263238"/>
<path d="M132.913 57.5358C132.61 58.1072 132.093 58.536 131.476 58.729C130.652 58.976 130.226 58.2464 130.439 57.4598C130.633 56.753 131.29 55.7726 132.122 55.8714C132.304 55.8955 132.476 55.9647 132.624 56.0725C132.772 56.1804 132.891 56.3235 132.969 56.4889C133.048 56.6543 133.084 56.8367 133.074 57.0196C133.064 57.2024 133.009 57.3799 132.913 57.5358Z" fill="#FFC3BD"/>
<path d="M123.629 86.7578C123.629 86.7578 119.008 107.202 122.109 121.615C124.176 131.267 131.609 150.765 131.609 150.765L137.438 150.617C137.438 150.617 131.795 130.154 130.629 122.117C128.634 108.353 133.631 85.9066 133.631 85.9066L123.629 86.7578Z" fill="#259AA4"/>
<path opacity="0.2" d="M128.957 90.8884L131.86 95.4826C130.982 100.93 130.425 106.424 130.192 111.937C126.107 104.603 128.06 94.7682 128.957 90.8884Z" fill="black"/>
<path d="M130.788 151.069L137.986 150.883L137.571 148.675L130.226 149.021L130.788 151.069Z" fill="#263238"/>
<path d="M126.616 86.5412C126.616 86.5412 129.325 108.22 135.204 120.057C139.95 129.618 152.616 143.237 152.616 143.237L155.853 139.901C155.853 139.901 147.299 125.111 143.773 118.761C135.12 103.181 142.192 91.3064 137.286 85.5874L126.616 86.5412Z" fill="#259AA4"/>
<path d="M152.289 143.674L156.469 139.601L155.082 137.712L150.647 142.135L152.289 143.674Z" fill="#263238"/>
<path d="M137.423 84.759L138.145 85.9294C138.202 86.0168 138.096 86.1232 137.94 86.1384L123.614 87.3772C123.492 87.3772 123.386 87.3354 123.371 87.2594L123.143 86.0472C123.124 85.9636 123.226 85.8838 123.359 85.8724L137.191 84.6754C137.234 84.6674 137.278 84.671 137.319 84.6857C137.359 84.7004 137.395 84.7257 137.423 84.759Z" fill="#259AA4"/>
<path opacity="0.5" d="M137.423 84.759L138.145 85.9294C138.202 86.0168 138.096 86.1232 137.94 86.1384L123.614 87.3772C123.492 87.3772 123.386 87.3354 123.371 87.2594L123.143 86.0472C123.124 85.9636 123.226 85.8838 123.359 85.8724L137.191 84.6754C137.234 84.6674 137.278 84.671 137.319 84.6857C137.359 84.7004 137.395 84.7257 137.423 84.759Z" fill="white"/>
<path d="M135.698 86.4652L136.078 86.4348C136.15 86.4348 136.203 86.3854 136.196 86.3398L135.884 84.7666C135.884 84.7172 135.808 84.6868 135.732 84.6944L135.352 84.7248C135.276 84.7248 135.223 84.7742 135.234 84.8198L135.546 86.393C135.557 86.4386 135.626 86.4728 135.698 86.4652Z" fill="#259AA4"/>
<path d="M124.667 87.419L125.047 87.3886C125.119 87.3886 125.172 87.3392 125.164 87.2936L124.853 85.7204C124.839 85.6931 124.817 85.6712 124.789 85.6582C124.762 85.6451 124.731 85.6416 124.701 85.6482L124.321 85.6786C124.245 85.6786 124.192 85.728 124.203 85.7736L124.515 87.3468C124.526 87.4 124.594 87.4266 124.667 87.419Z" fill="#259AA4"/>
<path d="M130.184 86.944L130.564 86.9098C130.64 86.9098 130.693 86.8604 130.682 86.8148L130.37 85.2416C130.37 85.196 130.294 85.1618 130.222 85.1694L129.842 85.2036C129.77 85.2036 129.717 85.253 129.724 85.2986L130.036 86.8718C130.044 86.9174 130.108 86.9478 130.184 86.944Z" fill="#259AA4"/>
<path d="M127.159 54.4996C127.106 54.7656 126.924 54.9556 126.749 54.9214C126.574 54.8872 126.475 54.6402 126.525 54.3742C126.574 54.1082 126.764 53.9182 126.939 53.9524C127.114 53.9866 127.213 54.2298 127.159 54.4996Z" fill="#263238"/>
<path d="M124.134 53.9025C124.187 53.6348 124.088 53.3899 123.913 53.3555C123.737 53.321 123.553 53.5102 123.5 53.7779C123.448 54.0456 123.547 54.2905 123.722 54.3249C123.897 54.3593 124.082 54.1702 124.134 53.9025Z" fill="#263238"/>
<path d="M123.994 53.39L123.386 53.0784C123.386 53.0784 123.618 53.6446 123.994 53.39Z" fill="#263238"/>
<path d="M125.176 54.5718C124.82 55.1353 124.388 55.6468 123.891 56.0918C124.007 56.2187 124.148 56.3186 124.307 56.3843C124.465 56.45 124.636 56.4799 124.807 56.4718L125.176 54.5718Z" fill="#ED847E"/>
<path d="M126.042 57.7258C126.604 57.7318 127.146 57.5254 127.562 57.1482C127.57 57.1422 127.577 57.1345 127.582 57.1256C127.586 57.1168 127.589 57.107 127.59 57.0969C127.59 57.0869 127.588 57.0769 127.585 57.0676C127.581 57.0583 127.575 57.0499 127.568 57.0431C127.56 57.0363 127.552 57.0312 127.542 57.0281C127.532 57.0251 127.522 57.0242 127.512 57.0255C127.502 57.0269 127.493 57.0304 127.484 57.0358C127.476 57.0413 127.469 57.0485 127.463 57.057C127.208 57.2825 126.902 57.4444 126.572 57.5296C126.242 57.6148 125.896 57.6208 125.563 57.5472C125.555 57.5456 125.546 57.5456 125.538 57.5475C125.529 57.5493 125.521 57.5527 125.514 57.5577C125.507 57.5627 125.501 57.569 125.496 57.5763C125.492 57.5837 125.489 57.5919 125.487 57.6004C125.485 57.6089 125.485 57.6179 125.486 57.6265C125.488 57.6352 125.491 57.6435 125.496 57.6507C125.501 57.658 125.508 57.664 125.516 57.6684C125.523 57.6729 125.532 57.6756 125.541 57.6764C125.705 57.711 125.874 57.7276 126.042 57.7258Z" fill="#263238"/>
<path d="M128.972 53.4622C128.996 53.4618 129.02 53.4553 129.04 53.4432C129.071 53.425 129.092 53.3956 129.101 53.3614C129.109 53.3272 129.104 53.291 129.086 53.2608C128.96 53.0473 128.785 52.8669 128.576 52.7347C128.366 52.6025 128.128 52.5223 127.881 52.5008C127.864 52.5003 127.846 52.5032 127.83 52.5095C127.814 52.5157 127.799 52.5251 127.786 52.5371C127.773 52.549 127.763 52.5634 127.756 52.5794C127.749 52.5953 127.745 52.6125 127.745 52.63C127.744 52.6475 127.747 52.6649 127.753 52.6812C127.759 52.6975 127.769 52.7125 127.781 52.7252C127.793 52.7379 127.807 52.7481 127.823 52.7552C127.839 52.7624 127.856 52.7663 127.874 52.7668C128.078 52.7892 128.273 52.8599 128.444 52.9728C128.615 53.0858 128.757 53.238 128.858 53.4166C128.872 53.4328 128.89 53.4454 128.909 53.4533C128.929 53.4613 128.951 53.4643 128.972 53.4622Z" fill="#263238"/>
<path d="M123.302 52.3906C123.324 52.3955 123.346 52.3955 123.367 52.3906C123.543 52.2861 123.742 52.2248 123.947 52.2116C124.152 52.1984 124.356 52.2337 124.545 52.3146C124.576 52.3275 124.61 52.3283 124.642 52.3168C124.673 52.3054 124.699 52.2826 124.714 52.2529C124.73 52.2232 124.733 52.1888 124.724 52.1566C124.716 52.1244 124.695 52.0967 124.667 52.079C124.439 51.9759 124.19 51.9293 123.94 51.9432C123.691 51.9571 123.449 52.0311 123.234 52.1588C123.204 52.1763 123.182 52.2047 123.173 52.2381C123.164 52.2714 123.168 52.3071 123.185 52.3374C123.198 52.3561 123.215 52.371 123.236 52.3803C123.257 52.3897 123.28 52.3933 123.302 52.3906Z" fill="#263238"/>
<path d="M138.525 68.0808C138.784 68.3316 138.962 68.5292 139.164 68.7534C139.365 68.9776 139.544 69.198 139.726 69.4222C140.087 69.8744 140.433 70.338 140.756 70.813C141.398 71.7707 141.967 72.7754 142.458 73.8188C142.948 74.8671 143.344 75.9569 143.64 77.0754C143.788 77.634 143.921 78.2154 144.02 78.774C144.208 79.581 144.116 80.4282 143.758 81.1756C143.549 81.5682 143.26 81.9125 142.91 82.1864C142.607 82.4199 142.273 82.6116 141.919 82.7564C141.309 82.9916 140.669 83.1425 140.019 83.2048C138.864 83.3157 137.701 83.3004 136.549 83.1592C134.345 82.9029 132.169 82.4411 130.051 81.7798L130.401 80.4004C131.434 80.5714 132.498 80.731 133.547 80.8412C134.596 80.9514 135.652 81.0502 136.69 81.073C137.695 81.1092 138.701 81.0532 139.696 80.9058C140.124 80.8361 140.541 80.7083 140.934 80.5258C141.176 80.4345 141.375 80.2572 141.493 80.028C141.525 79.9404 141.54 79.8476 141.539 79.7544C141.544 79.6861 141.544 79.6175 141.539 79.5492C141.539 79.4732 141.512 79.4048 141.478 79.2642C141.371 78.774 141.231 78.2914 141.079 77.8126C140.769 76.858 140.388 75.9281 139.939 75.031C139.487 74.1286 138.969 73.2611 138.388 72.4356C138.103 72.0176 137.803 71.611 137.492 71.2196C137.336 71.022 137.172 70.8396 137.013 70.6458C136.853 70.452 136.671 70.2658 136.545 70.129L138.525 68.0808Z" fill="#FFC3BD"/>
<path d="M131.271 80.6094L128.611 79.1996L128.489 82.7222C128.489 82.7222 130.389 82.8438 131.476 81.9622L131.271 80.6094Z" fill="#FFC3BD"/>
<path d="M126.605 99.56L128.801 75.6922L124.108 72.0974L109.782 70.7788L107.293 97.7816L126.605 99.56Z" fill="#259AA4"/>
<path opacity="0.8" d="M126.605 99.56L128.801 75.6922L124.108 72.0974L109.782 70.7788L107.293 97.7816L126.605 99.56Z" fill="white"/>
<path d="M128.801 75.6922L124.108 72.0974L125.339 76.399L128.801 75.6922Z" fill="#259AA4"/>
<path d="M108.973 101.954C112.205 101.954 114.825 99.334 114.825 96.102C114.825 92.87 112.205 90.25 108.973 90.25C105.741 90.25 103.121 92.87 103.121 96.102C103.121 99.334 105.741 101.954 108.973 101.954Z" fill="#259AA4"/>
<path d="M111.864 99.7595C113.886 98.1619 114.23 95.2274 112.633 93.2052C111.035 91.1829 108.101 90.8387 106.078 92.4364C104.056 94.034 103.712 96.9685 105.31 98.9907C106.907 101.013 109.842 101.357 111.864 99.7595Z" fill="white"/>
<path d="M111.857 95.6916L109.797 95.4522L110.037 93.3926L108.562 93.2178L108.323 95.2774L106.263 95.0342L106.088 96.5124L108.148 96.7556L107.905 98.8114L109.383 98.9862L109.622 96.9266L111.682 97.1698L111.857 95.6916Z" fill="#259AA4"/>
<path opacity="0.4" d="M125.297 80.6398C125.278 80.8487 125.218 81.0518 125.121 81.2374C125.023 81.4231 124.89 81.5877 124.728 81.7218C124.567 81.8559 124.381 81.9569 124.181 82.019C123.98 82.0811 123.77 82.1031 123.561 82.0838L113.111 81.1224C112.689 81.0829 112.301 80.8779 112.03 80.5524C111.759 80.2269 111.629 79.8074 111.667 79.3858C111.686 79.1769 111.746 78.9738 111.844 78.7882C111.941 78.6025 112.074 78.4379 112.236 78.3038C112.397 78.1697 112.583 78.0687 112.784 78.0066C112.984 77.9445 113.194 77.9225 113.403 77.9418L123.853 78.9032C124.062 78.9223 124.265 78.9824 124.451 79.08C124.637 79.1776 124.801 79.3109 124.935 79.4722C125.069 79.6335 125.17 79.8196 125.233 80.0199C125.295 80.2203 125.317 80.4309 125.297 80.6398Z" fill="#259AA4"/>
<path opacity="0.4" d="M121.737 84.9528C121.718 85.1617 121.658 85.3648 121.56 85.5504C121.462 85.7361 121.329 85.9007 121.168 86.0348C121.007 86.1689 120.82 86.2699 120.62 86.332C120.42 86.3941 120.209 86.4162 120 86.3968L112.697 85.7242C112.488 85.7051 112.285 85.645 112.099 85.5474C111.913 85.4498 111.749 85.3165 111.615 85.1552C111.481 84.9939 111.38 84.8078 111.317 84.6075C111.255 84.4071 111.233 84.1965 111.253 83.9876C111.272 83.7787 111.332 83.5756 111.429 83.39C111.527 83.2043 111.66 83.0397 111.822 82.9056C111.983 82.7715 112.169 82.6705 112.369 82.6084C112.57 82.5463 112.78 82.5243 112.989 82.5436L120.293 83.22C120.714 83.2595 121.102 83.464 121.372 83.7886C121.643 84.1133 121.774 84.5318 121.737 84.9528Z" fill="#259AA4"/>
<path d="M126.985 79.4086L127.384 82.042L128.486 82.7222L128.607 79.1996L126.985 79.4086Z" fill="#FFC3BD"/>
<path d="M137.94 64.98C139.616 65.2764 141.964 70.0796 141.964 70.0796L137.742 73.8796C137.742 73.8796 134.383 70.2164 134.562 68.0352C134.718 66.1922 135.812 64.6 137.94 64.98Z" fill="#263238"/>
<path d="M154.766 146.87C154.81 146.869 154.854 146.863 154.896 146.851C155.298 146.714 155.561 145.973 155.682 145.544C155.685 145.531 155.684 145.519 155.68 145.507C155.676 145.495 155.669 145.484 155.659 145.475C155.649 145.467 155.636 145.463 155.623 145.463C155.61 145.463 155.597 145.467 155.587 145.475C155.466 145.536 154.394 146.11 154.36 146.532C154.355 146.578 154.363 146.624 154.383 146.666C154.403 146.708 154.435 146.743 154.474 146.767C154.557 146.834 154.66 146.87 154.766 146.87ZM155.526 145.662C155.34 146.254 155.101 146.646 154.873 146.722C154.821 146.738 154.766 146.74 154.714 146.728C154.661 146.716 154.612 146.69 154.573 146.653C154.552 146.642 154.536 146.624 154.525 146.604C154.514 146.583 154.509 146.559 154.512 146.536C154.512 146.277 155.139 145.871 155.507 145.662H155.526Z" fill="#259AA4"/>
<path d="M154.599 145.829C154.964 145.827 155.324 145.743 155.652 145.582C155.661 145.576 155.669 145.567 155.674 145.557C155.679 145.547 155.682 145.536 155.682 145.525C155.683 145.513 155.68 145.501 155.674 145.491C155.668 145.481 155.659 145.473 155.648 145.468C155.614 145.449 154.766 144.981 154.31 145.145C154.253 145.162 154.2 145.192 154.157 145.233C154.113 145.274 154.08 145.324 154.06 145.38C154.031 145.434 154.022 145.495 154.033 145.554C154.044 145.614 154.075 145.668 154.12 145.707C154.262 145.8 154.431 145.843 154.599 145.829ZM155.469 145.525C155.108 145.681 154.405 145.776 154.208 145.608C154.174 145.578 154.139 145.532 154.185 145.43C154.199 145.392 154.221 145.358 154.25 145.33C154.279 145.303 154.314 145.282 154.352 145.27C154.66 145.16 155.23 145.407 155.469 145.54V145.525Z" fill="#259AA4"/>
<path d="M132.517 155.325C132.885 155.316 133.25 155.269 133.608 155.184C133.621 155.18 133.631 155.172 133.639 155.161C133.647 155.15 133.651 155.137 133.651 155.124C133.651 155.11 133.647 155.097 133.639 155.086C133.631 155.076 133.621 155.067 133.608 155.063C133.445 154.983 131.989 154.303 131.624 154.561C131.591 154.583 131.564 154.614 131.547 154.65C131.531 154.686 131.524 154.727 131.529 154.766C131.53 154.841 131.549 154.914 131.583 154.98C131.617 155.046 131.667 155.103 131.727 155.146C131.965 155.289 132.242 155.351 132.517 155.325ZM133.38 155.097C132.951 155.177 132.153 155.283 131.822 155.036C131.78 155.003 131.745 154.961 131.72 154.913C131.695 154.865 131.681 154.813 131.678 154.759C131.674 154.742 131.676 154.725 131.683 154.709C131.69 154.694 131.701 154.68 131.716 154.671C131.917 154.531 132.776 154.831 133.38 155.097Z" fill="#259AA4"/>
<path d="M133.593 155.188C133.608 155.193 133.624 155.193 133.638 155.188C133.648 155.18 133.655 155.169 133.658 155.157C133.662 155.145 133.661 155.132 133.657 155.12C133.657 155.059 133.315 153.626 132.517 153.718C132.32 153.744 132.263 153.839 132.255 153.919C132.206 154.299 133.122 155.017 133.559 155.2L133.593 155.188ZM132.597 153.832C133.103 153.832 133.395 154.668 133.494 155.002C133.019 154.751 132.354 154.155 132.396 153.923C132.396 153.904 132.396 153.851 132.544 153.835L132.597 153.832Z" fill="#259AA4"/>
<path d="M127.011 53.9828L126.407 53.6712C126.407 53.6712 126.639 54.2374 127.011 53.9828Z" fill="#263238"/>
</svg>
