<svg width="24" height="24" viewBox="0 0 24 24" fill="none" xmlns="http://www.w3.org/2000/svg">
<path d="M12.6125 3.31919V2.14925C12.6125 1.6251 12.1876 1.2002 11.6634 1.2002C11.1393 1.2002 10.7144 1.6251 10.7144 2.14925V3.31919C10.7144 3.84334 11.1393 4.26824 11.6634 4.26824C12.1876 4.26824 12.6125 3.84334 12.6125 3.31919Z" fill="#169CAD"/>
<path d="M23.0488 10.9565H21.8896C21.3643 10.9565 20.9385 11.3824 20.9385 11.9076C20.9385 12.4329 21.3643 12.8587 21.8896 12.8587H23.0488C23.5741 12.8587 23.9999 12.4329 23.9999 11.9076C23.9999 11.3824 23.5741 10.9565 23.0488 10.9565Z" fill="#169CAD"/>
<path d="M2.11036 10.9565H0.951093C0.425819 10.9565 0 11.3824 0 11.9076C0 12.4329 0.425819 12.8587 0.951093 12.8587H2.11036C2.63564 12.8587 3.06145 12.4329 3.06145 11.9076C3.06145 11.3824 2.63564 10.9565 2.11036 10.9565Z" fill="#169CAD"/>
<path d="M5.17279 5.16473L4.34995 4.34058C3.97922 3.96927 3.37832 3.96944 3.0078 4.34096C2.63728 4.71249 2.63745 5.31468 3.00818 5.686L3.83102 6.51015C4.20175 6.88146 4.80265 6.88129 5.17317 6.50977C5.54369 6.13824 5.54351 5.53604 5.17279 5.16473Z" fill="#169CAD"/>
<path d="M19.074 4.27431L18.2512 5.09857C17.8806 5.46994 17.8805 6.07214 18.2511 6.44361C18.6216 6.81508 19.2225 6.81517 19.5932 6.4438L20.4159 5.61954C20.7866 5.24817 20.7867 4.64598 20.4161 4.2745C20.0455 3.90303 19.4446 3.90294 19.074 4.27431Z" fill="#169CAD"/>
<path d="M11.8741 5.3125C7.9554 5.3125 4.77148 8.50327 4.77148 12.4304C4.77148 14.9462 5.99607 17.1552 8.13908 18.5051V20.0391C8.13908 20.8982 8.69015 21.5732 9.54736 21.8186C9.60858 22.3709 10.0984 22.8004 10.7107 22.8004H13.2211C13.8334 22.8004 14.262 22.3709 14.3845 21.7572C15.1804 21.5732 15.7315 20.8368 15.7315 20.0391V18.5051C17.8745 17.2165 19.0991 14.9462 19.0991 12.4304C19.0379 8.56463 15.7927 5.3125 11.8741 5.3125ZM9.60858 16.9711C7.89417 16.112 6.85327 14.3939 6.85327 12.4917C6.85327 9.73049 9.11875 7.46013 11.8741 7.46013C14.6294 7.46013 16.8948 9.73049 16.8948 12.4917C16.8948 14.3939 15.7927 16.1734 14.0783 17.0324L13.466 17.3393V19.8551H10.2209V17.3393L9.60858 16.9711Z" fill="#169CAD"/>
<path d="M14.9834 11.5528C15.0232 11.6548 14.9896 11.7685 14.9038 11.8412L14.3654 12.303C14.3791 12.4003 14.3866 12.4999 14.3866 12.6007C14.3866 12.7015 14.3791 12.8011 14.3654 12.8984L14.9038 13.3602C14.9896 13.4329 15.0232 13.5466 14.9834 13.6485C14.9287 13.788 14.8628 13.9216 14.7869 14.0506L14.7285 14.1455C14.6464 14.2744 14.5544 14.3963 14.4537 14.5112C14.3804 14.5956 14.2585 14.6237 14.1491 14.5909L13.4566 14.3835C13.29 14.5042 13.1059 14.605 12.9095 14.6812L12.7541 15.3504C12.7292 15.4571 12.6422 15.5415 12.5278 15.5591C12.3562 15.586 12.1797 15.6001 11.9994 15.6001C11.8191 15.6001 11.6425 15.586 11.471 15.5591C11.3566 15.5415 11.2695 15.4571 11.2447 15.3504L11.0893 14.6812C10.8928 14.605 10.7088 14.5042 10.5422 14.3835L9.85091 14.5921C9.74149 14.6249 9.61965 14.5956 9.54629 14.5124C9.44558 14.3975 9.35357 14.2756 9.27152 14.1467L9.21308 14.0517C9.13724 13.9228 9.07134 13.7892 9.01663 13.6497C8.97685 13.5477 9.01042 13.434 9.09621 13.3614L9.63457 12.8996C9.62089 12.8011 9.61343 12.7015 9.61343 12.6007C9.61343 12.4999 9.62089 12.4003 9.63457 12.303L9.09621 11.8412C9.01042 11.7685 8.97685 11.6548 9.01663 11.5528C9.07134 11.4133 9.13724 11.2797 9.21308 11.1508L9.27152 11.0559C9.35357 10.9269 9.44558 10.805 9.54629 10.6902C9.61965 10.6058 9.74149 10.5776 9.85091 10.6105L10.5434 10.8179C10.71 10.6972 10.8941 10.5964 11.0905 10.5202L11.2459 9.85093C11.2708 9.74427 11.3578 9.65987 11.4722 9.64229C11.6438 9.61416 11.8203 9.6001 12.0006 9.6001C12.1809 9.6001 12.3575 9.61416 12.529 9.64112C12.6434 9.6587 12.7305 9.74309 12.7553 9.84976L12.9107 10.519C13.1072 10.5952 13.2912 10.696 13.4578 10.8167L14.1503 10.6093C14.2598 10.5765 14.3816 10.6058 14.455 10.689C14.5557 10.8038 14.6477 10.9257 14.7297 11.0547L14.7882 11.1496C14.864 11.2786 14.9299 11.4122 14.9846 11.5517L14.9834 11.5528ZM12.0006 13.5384C12.2644 13.5384 12.5174 13.4396 12.704 13.2637C12.8905 13.0879 12.9953 12.8494 12.9953 12.6007C12.9953 12.352 12.8905 12.1135 12.704 11.9376C12.5174 11.7618 12.2644 11.663 12.0006 11.663C11.7368 11.663 11.4838 11.7618 11.2973 11.9376C11.1108 12.1135 11.006 12.352 11.006 12.6007C11.006 12.8494 11.1108 13.0879 11.2973 13.2637C11.4838 13.4396 11.7368 13.5384 12.0006 13.5384Z" fill="#169CAD"/>
</svg>
