<svg width="424" height="203" viewBox="0 0 424 203" fill="none" xmlns="http://www.w3.org/2000/svg">
<path d="M227.984 19.3381C215.318 18.9464 203.254 15.3244 191.735 11.3514C180.216 7.37825 168.806 2.98565 156.444 0.884724C148.492 -0.465809 139.398 -0.65826 132.992 3.12408C126.826 6.76207 124.834 13.0446 123.763 18.8747C122.957 23.2588 122.483 27.8743 124.691 31.9799C126.226 34.8312 128.946 37.2276 130.828 39.9565C137.379 49.4583 132.748 61.1725 125.652 70.4574C122.325 74.8095 118.459 78.9599 115.89 83.593C113.321 88.2262 112.132 93.5329 114.381 98.2539C116.608 102.938 121.918 106.455 127.67 108.929C139.351 113.945 153.111 115.392 166.539 116.208C196.253 118.014 226.123 117.231 255.915 116.448C266.942 116.159 278.015 115.867 288.861 114.353C294.884 113.514 301.102 112.182 305.476 108.964C311.026 104.878 312.401 97.961 308.681 92.8416C302.442 84.2514 285.196 82.1159 280.83 72.896C278.43 67.8213 280.894 62.1685 284.384 57.4611C291.868 47.3633 304.41 38.5047 305.07 26.9601C305.524 19.0342 299.494 11.0914 290.17 7.34533C280.398 3.41191 266.845 3.90823 259.64 10.4153C252.213 17.1029 239.169 19.6816 227.984 19.3381Z" fill="#202A3B"/>
<path d="M312.962 4.79463C312.038 4.78089 311.159 4.6538 310.319 4.5144C309.479 4.37499 308.647 4.22086 307.746 4.14715C307.166 4.09976 306.503 4.09301 306.036 4.22572C305.586 4.35337 305.441 4.57381 305.363 4.77837C305.304 4.9322 305.269 5.09415 305.43 5.23821C305.542 5.33825 305.74 5.42233 305.878 5.51809C306.355 5.85148 306.018 6.26251 305.5 6.58829C305.258 6.741 304.976 6.88663 304.789 7.04919C304.601 7.21176 304.514 7.39796 304.678 7.56361C304.841 7.72795 305.228 7.85137 305.647 7.93817C306.499 8.11419 307.503 8.16495 308.482 8.19356C310.648 8.25694 312.826 8.22946 314.999 8.202C315.803 8.19187 316.61 8.1816 317.401 8.12849C317.84 8.09905 318.294 8.05232 318.612 7.93939C319.017 7.79604 319.117 7.55333 318.846 7.37371C318.391 7.07229 317.134 6.99736 316.815 6.67386C316.64 6.4958 316.82 6.29746 317.075 6.13228C317.62 5.77797 318.535 5.46714 318.583 5.06207C318.616 4.78397 318.176 4.50528 317.496 4.37384C316.784 4.23582 315.796 4.25323 315.27 4.48155C314.729 4.71621 313.778 4.80669 312.962 4.79463Z" fill="#202A3B"/>
<path d="M317.55 103.92C315.439 103.9 313.428 103.709 311.508 103.5C309.589 103.291 307.687 103.06 305.626 102.949C304.301 102.878 302.786 102.868 301.718 103.067C300.69 103.258 300.358 103.589 300.18 103.896C300.045 104.127 299.966 104.37 300.334 104.586C300.59 104.736 301.043 104.862 301.357 105.006C302.449 105.506 301.677 106.122 300.495 106.611C299.94 106.84 299.296 107.058 298.868 107.302C298.439 107.546 298.241 107.825 298.616 108.074C298.987 108.32 299.872 108.505 300.831 108.636C302.778 108.9 305.071 108.976 307.309 109.019C312.261 109.114 317.24 109.073 322.205 109.031C324.043 109.016 325.888 109.001 327.696 108.921C328.7 108.877 329.736 108.807 330.465 108.638C331.39 108.422 331.619 108.058 330.999 107.789C329.96 107.337 327.085 107.224 326.358 106.739C325.958 106.472 326.368 106.175 326.95 105.927C328.197 105.395 330.288 104.929 330.398 104.322C330.473 103.904 329.468 103.486 327.914 103.289C326.286 103.082 324.027 103.108 322.826 103.451C321.588 103.803 319.414 103.938 317.55 103.92Z" fill="#202A3B"/>
<path d="M89.1055 105.978C86.9945 105.958 84.9839 105.767 83.064 105.558C81.1442 105.349 79.2425 105.118 77.1822 105.007C75.8569 104.936 74.3412 104.926 73.2737 105.125C72.2459 105.317 71.9138 105.647 71.7355 105.954C71.6011 106.185 71.5221 106.428 71.8901 106.644C72.1458 106.794 72.5992 106.92 72.9129 107.064C74.0047 107.564 73.2329 108.18 72.0502 108.669C71.4958 108.898 70.8515 109.116 70.4233 109.36C69.995 109.604 69.7969 109.883 70.1718 110.132C70.5429 110.378 71.4279 110.564 72.3865 110.694C74.3334 110.958 76.6268 111.034 78.8647 111.077C83.817 111.172 88.7954 111.131 93.7608 111.089C95.5985 111.074 97.444 111.059 99.2517 110.979C100.256 110.935 101.292 110.865 102.021 110.696C102.946 110.481 103.175 110.116 102.555 109.847C101.515 109.395 98.641 109.283 97.9133 108.797C97.5133 108.53 97.924 108.233 98.5056 107.985C99.7529 107.453 101.843 106.987 101.953 106.38C102.029 105.962 101.024 105.544 99.4698 105.347C97.8412 105.14 95.5825 105.166 94.3815 105.509C93.1437 105.861 90.9697 105.997 89.1055 105.978Z" fill="#202A3B"/>
<path d="M132.324 54.5271C130.213 54.5065 128.203 54.3159 126.283 54.1068C124.363 53.8977 122.461 53.6665 120.401 53.5559C119.076 53.4848 117.56 53.4747 116.492 53.6738C115.465 53.8652 115.133 54.1959 114.954 54.5027C114.82 54.7335 114.741 54.9764 115.109 55.1925C115.365 55.3426 115.818 55.4687 116.132 55.6123C117.223 56.1124 116.452 56.7289 115.269 57.2176C114.715 57.4467 114.07 57.6651 113.642 57.909C113.214 58.1528 113.016 58.4321 113.391 58.6806C113.762 58.9271 114.647 59.1122 115.605 59.2424C117.552 59.5065 119.846 59.5826 122.083 59.6255C127.036 59.7206 132.014 59.6794 136.98 59.6382C138.817 59.623 140.663 59.6076 142.47 59.5279C143.474 59.4838 144.511 59.4137 145.24 59.2443C146.165 59.0292 146.394 58.6652 145.774 58.3957C144.734 57.9436 141.86 57.8312 141.132 57.346C140.732 57.0789 141.143 56.7814 141.724 56.5336C142.972 56.0021 145.062 55.5359 145.172 54.9283C145.248 54.5111 144.243 54.0931 142.689 53.8959C141.06 53.6889 138.801 53.715 137.6 54.0575C136.362 54.4095 134.188 54.5452 132.324 54.5271Z" fill="#202A3B"/>
<path d="M162.307 162.663V160.455H173.912V162.663H169.417V175H166.803V162.663H162.307ZM178.607 168.608V175H176.036V160.455H178.55V165.945H178.678C178.934 165.329 179.329 164.844 179.864 164.489C180.404 164.129 181.09 163.949 181.924 163.949C182.681 163.949 183.342 164.107 183.905 164.425C184.469 164.742 184.904 165.206 185.212 165.817C185.525 166.428 185.681 167.173 185.681 168.054V175H183.11V168.452C183.11 167.718 182.92 167.147 182.542 166.74C182.167 166.328 181.642 166.122 180.965 166.122C180.51 166.122 180.103 166.222 179.743 166.42C179.388 166.615 179.109 166.896 178.905 167.266C178.706 167.635 178.607 168.082 178.607 168.608ZM191.441 175.22C190.749 175.22 190.127 175.097 189.573 174.851C189.024 174.6 188.588 174.231 188.266 173.743C187.949 173.255 187.79 172.654 187.79 171.939C187.79 171.323 187.904 170.814 188.131 170.412C188.358 170.009 188.668 169.688 189.061 169.446C189.454 169.205 189.897 169.022 190.39 168.899C190.887 168.771 191.4 168.679 191.931 168.622C192.57 168.556 193.088 168.497 193.486 168.445C193.884 168.388 194.173 168.303 194.353 168.189C194.537 168.071 194.63 167.888 194.63 167.642V167.599C194.63 167.064 194.471 166.65 194.154 166.357C193.837 166.063 193.38 165.916 192.783 165.916C192.153 165.916 191.654 166.054 191.284 166.328C190.92 166.603 190.674 166.927 190.546 167.301L188.145 166.96C188.335 166.297 188.647 165.743 189.083 165.298C189.518 164.848 190.051 164.512 190.681 164.29C191.31 164.062 192.007 163.949 192.769 163.949C193.294 163.949 193.818 164.01 194.338 164.134C194.859 164.257 195.335 164.46 195.766 164.744C196.197 165.024 196.542 165.405 196.803 165.888C197.068 166.371 197.201 166.974 197.201 167.699V175H194.729V173.501H194.644C194.488 173.804 194.267 174.089 193.983 174.354C193.704 174.614 193.351 174.825 192.925 174.986C192.504 175.142 192.009 175.22 191.441 175.22ZM192.108 173.331C192.624 173.331 193.072 173.229 193.451 173.026C193.829 172.817 194.121 172.543 194.324 172.202C194.533 171.861 194.637 171.489 194.637 171.087V169.801C194.556 169.867 194.419 169.929 194.225 169.986C194.035 170.043 193.822 170.092 193.586 170.135C193.349 170.178 193.114 170.215 192.882 170.249C192.65 170.282 192.449 170.31 192.279 170.334C191.895 170.386 191.552 170.471 191.249 170.589C190.946 170.708 190.707 170.874 190.532 171.087C190.356 171.295 190.269 171.565 190.269 171.896C190.269 172.37 190.442 172.727 190.787 172.969C191.133 173.21 191.573 173.331 192.108 173.331ZM202.357 168.608V175H199.786V164.091H202.243V165.945H202.371C202.622 165.334 203.022 164.848 203.571 164.489C204.125 164.129 204.81 163.949 205.624 163.949C206.377 163.949 207.033 164.11 207.591 164.432C208.155 164.754 208.59 165.22 208.898 165.831C209.211 166.442 209.364 167.183 209.36 168.054V175H206.789V168.452C206.789 167.723 206.599 167.152 206.221 166.74C205.846 166.328 205.328 166.122 204.665 166.122C204.215 166.122 203.815 166.222 203.465 166.42C203.119 166.615 202.847 166.896 202.648 167.266C202.454 167.635 202.357 168.082 202.357 168.608ZM214.317 171.577L214.31 168.473H214.722L218.642 164.091H221.647L216.824 169.46H216.292L214.317 171.577ZM211.973 175V160.455H214.544V175H211.973ZM218.82 175L215.269 170.036L217.002 168.224L221.895 175H218.82ZM229.919 179.091C229.569 179.091 229.244 179.063 228.946 179.006C228.652 178.954 228.418 178.892 228.243 178.821L228.839 176.818C229.214 176.927 229.547 176.979 229.841 176.974C230.134 176.97 230.393 176.877 230.615 176.697C230.842 176.522 231.034 176.229 231.19 175.817L231.411 175.227L227.455 164.091H230.182L232.696 172.33H232.81L235.331 164.091H238.065L233.697 176.321C233.494 176.899 233.224 177.393 232.888 177.805C232.552 178.222 232.14 178.539 231.652 178.757C231.169 178.98 230.591 179.091 229.919 179.091ZM244.232 175.213C243.167 175.213 242.243 174.979 241.462 174.51C240.681 174.041 240.075 173.385 239.644 172.543C239.218 171.7 239.005 170.715 239.005 169.588C239.005 168.461 239.218 167.474 239.644 166.626C240.075 165.779 240.681 165.121 241.462 164.652C242.243 164.183 243.167 163.949 244.232 163.949C245.297 163.949 246.221 164.183 247.002 164.652C247.783 165.121 248.387 165.779 248.813 166.626C249.244 167.474 249.459 168.461 249.459 169.588C249.459 170.715 249.244 171.7 248.813 172.543C248.387 173.385 247.783 174.041 247.002 174.51C246.221 174.979 245.297 175.213 244.232 175.213ZM244.246 173.153C244.824 173.153 245.307 172.995 245.695 172.678C246.083 172.356 246.372 171.925 246.561 171.385C246.756 170.845 246.853 170.244 246.853 169.581C246.853 168.913 246.756 168.31 246.561 167.77C246.372 167.225 246.083 166.792 245.695 166.47C245.307 166.148 244.824 165.987 244.246 165.987C243.654 165.987 243.162 166.148 242.769 166.47C242.381 166.792 242.089 167.225 241.895 167.77C241.706 168.31 241.611 168.913 241.611 169.581C241.611 170.244 241.706 170.845 241.895 171.385C242.089 171.925 242.381 172.356 242.769 172.678C243.162 172.995 243.654 173.153 244.246 173.153ZM258.594 170.412V164.091H261.165V175H258.673V173.061H258.559C258.313 173.672 257.908 174.171 257.344 174.56C256.786 174.948 256.097 175.142 255.278 175.142C254.563 175.142 253.931 174.983 253.381 174.666C252.837 174.344 252.411 173.878 252.103 173.267C251.795 172.652 251.641 171.908 251.641 171.037V164.091H254.212V170.639C254.212 171.33 254.402 171.88 254.781 172.287C255.159 172.694 255.656 172.898 256.272 172.898C256.651 172.898 257.018 172.805 257.373 172.621C257.728 172.436 258.019 172.161 258.246 171.797C258.478 171.428 258.594 170.966 258.594 170.412Z" fill="#F7F8F9"/>
<path d="M45.0114 184.455H47.0284L51.0625 191.244H51.233L55.267 184.455H57.2841L52.0284 193.006V199H50.267V193.006L45.0114 184.455ZM62.2237 199.227C61.2389 199.227 60.3748 198.993 59.6314 198.524C58.8928 198.055 58.3151 197.4 57.8984 196.557C57.4865 195.714 57.2805 194.729 57.2805 193.602C57.2805 192.466 57.4865 191.474 57.8984 190.626C58.3151 189.779 58.8928 189.121 59.6314 188.652C60.3748 188.183 61.2389 187.949 62.2237 187.949C63.2086 187.949 64.0703 188.183 64.8089 188.652C65.5523 189.121 66.13 189.779 66.5419 190.626C66.9586 191.474 67.1669 192.466 67.1669 193.602C67.1669 194.729 66.9586 195.714 66.5419 196.557C66.13 197.4 65.5523 198.055 64.8089 198.524C64.0703 198.993 63.2086 199.227 62.2237 199.227ZM62.2237 197.722C62.9718 197.722 63.5874 197.53 64.0703 197.146C64.5533 196.763 64.9107 196.259 65.1428 195.634C65.3748 195.009 65.4908 194.331 65.4908 193.602C65.4908 192.873 65.3748 192.194 65.1428 191.564C64.9107 190.934 64.5533 190.425 64.0703 190.037C63.5874 189.649 62.9718 189.455 62.2237 189.455C61.4756 189.455 60.8601 189.649 60.3771 190.037C59.8942 190.425 59.5367 190.934 59.3047 191.564C59.0727 192.194 58.9567 192.873 58.9567 193.602C58.9567 194.331 59.0727 195.009 59.3047 195.634C59.5367 196.259 59.8942 196.763 60.3771 197.146C60.8601 197.53 61.4756 197.722 62.2237 197.722ZM76.6005 194.54V188.091H78.2766V199H76.6005V197.153H76.4869C76.2312 197.707 75.8335 198.179 75.2937 198.567C74.7539 198.95 74.0721 199.142 73.2482 199.142C72.5664 199.142 71.9603 198.993 71.43 198.695C70.8997 198.392 70.4831 197.937 70.18 197.331C69.877 196.72 69.7255 195.951 69.7255 195.023V188.091H71.4016V194.909C71.4016 195.705 71.6242 196.339 72.0692 196.812C72.5191 197.286 73.092 197.523 73.788 197.523C74.2047 197.523 74.6284 197.416 75.0593 197.203C75.4949 196.99 75.8595 196.663 76.1531 196.223C76.4513 195.783 76.6005 195.222 76.6005 194.54ZM81.3466 199V188.091H82.9659V189.739H83.0795C83.2784 189.199 83.6383 188.761 84.1591 188.425C84.6799 188.089 85.267 187.92 85.9205 187.92C86.0436 187.92 86.1974 187.923 86.3821 187.928C86.5668 187.932 86.7064 187.939 86.8011 187.949V189.653C86.7443 189.639 86.6141 189.618 86.4105 189.589C86.2116 189.556 86.0009 189.54 85.7784 189.54C85.2481 189.54 84.7746 189.651 84.358 189.874C83.946 190.091 83.6193 190.394 83.3778 190.783C83.1411 191.166 83.0227 191.604 83.0227 192.097V199H81.3466ZM99.271 188.091V189.511H93.3903V188.091H99.271ZM95.1516 199V186.585C95.1516 185.96 95.2984 185.439 95.592 185.023C95.8855 184.606 96.2667 184.294 96.7354 184.085C97.2042 183.877 97.699 183.773 98.2198 183.773C98.6317 183.773 98.9679 183.806 99.2283 183.872C99.4888 183.938 99.6829 184 99.8107 184.057L99.3278 185.506C99.2425 185.477 99.1242 185.442 98.9727 185.399C98.8259 185.357 98.6317 185.335 98.3903 185.335C97.8363 185.335 97.4362 185.475 97.19 185.754C96.9485 186.034 96.8278 186.443 96.8278 186.983V199H95.1516ZM105.745 199.227C104.694 199.227 103.787 198.995 103.025 198.531C102.267 198.062 101.682 197.409 101.27 196.571C100.863 195.728 100.659 194.748 100.659 193.631C100.659 192.513 100.863 191.528 101.27 190.676C101.682 189.819 102.255 189.152 102.989 188.673C103.728 188.19 104.589 187.949 105.574 187.949C106.142 187.949 106.703 188.044 107.257 188.233C107.811 188.422 108.316 188.73 108.77 189.156C109.225 189.578 109.587 190.136 109.857 190.832C110.127 191.528 110.262 192.385 110.262 193.403V194.114H101.853V192.665H108.557C108.557 192.049 108.434 191.5 108.188 191.017C107.946 190.534 107.601 190.153 107.151 189.874C106.706 189.594 106.18 189.455 105.574 189.455C104.907 189.455 104.329 189.62 103.841 189.952C103.358 190.278 102.987 190.705 102.726 191.23C102.466 191.756 102.336 192.319 102.336 192.92V193.886C102.336 194.71 102.478 195.409 102.762 195.982C103.051 196.55 103.451 196.983 103.962 197.281C104.473 197.575 105.068 197.722 105.745 197.722C106.185 197.722 106.583 197.66 106.938 197.537C107.298 197.409 107.608 197.22 107.868 196.969C108.129 196.713 108.33 196.396 108.472 196.017L110.091 196.472C109.921 197.021 109.634 197.504 109.232 197.92C108.829 198.332 108.332 198.654 107.74 198.886C107.149 199.114 106.483 199.227 105.745 199.227ZM117.385 199.227C116.334 199.227 115.427 198.995 114.665 198.531C113.908 198.062 113.323 197.409 112.911 196.571C112.504 195.728 112.3 194.748 112.3 193.631C112.3 192.513 112.504 191.528 112.911 190.676C113.323 189.819 113.896 189.152 114.63 188.673C115.368 188.19 116.23 187.949 117.215 187.949C117.783 187.949 118.344 188.044 118.898 188.233C119.452 188.422 119.956 188.73 120.411 189.156C120.865 189.578 121.228 190.136 121.498 190.832C121.767 191.528 121.902 192.385 121.902 193.403V194.114H113.493V192.665H120.198C120.198 192.049 120.075 191.5 119.828 191.017C119.587 190.534 119.241 190.153 118.792 189.874C118.346 189.594 117.821 189.455 117.215 189.455C116.547 189.455 115.97 189.62 115.482 189.952C114.999 190.278 114.627 190.705 114.367 191.23C114.106 191.756 113.976 192.319 113.976 192.92V193.886C113.976 194.71 114.118 195.409 114.402 195.982C114.691 196.55 115.091 196.983 115.603 197.281C116.114 197.575 116.708 197.722 117.385 197.722C117.826 197.722 118.223 197.66 118.578 197.537C118.938 197.409 119.248 197.22 119.509 196.969C119.769 196.713 119.971 196.396 120.113 196.017L121.732 196.472C121.561 197.021 121.275 197.504 120.873 197.92C120.47 198.332 119.973 198.654 119.381 198.886C118.789 199.114 118.124 199.227 117.385 199.227ZM128.571 199.227C127.662 199.227 126.86 198.998 126.164 198.538C125.468 198.074 124.923 197.421 124.53 196.578C124.137 195.731 123.941 194.729 123.941 193.574C123.941 192.428 124.137 191.434 124.53 190.591C124.923 189.748 125.47 189.097 126.171 188.638C126.872 188.179 127.681 187.949 128.6 187.949C129.31 187.949 129.871 188.067 130.283 188.304C130.7 188.536 131.017 188.801 131.235 189.099C131.457 189.393 131.63 189.634 131.753 189.824H131.895V184.455H133.571V199H131.952V197.324H131.753C131.63 197.523 131.455 197.774 131.228 198.077C131 198.375 130.676 198.643 130.255 198.879C129.833 199.111 129.272 199.227 128.571 199.227ZM128.799 197.722C129.471 197.722 130.039 197.546 130.503 197.196C130.967 196.841 131.32 196.351 131.561 195.726C131.803 195.096 131.924 194.369 131.924 193.545C131.924 192.731 131.805 192.018 131.569 191.408C131.332 190.792 130.981 190.314 130.517 189.973C130.053 189.627 129.48 189.455 128.799 189.455C128.088 189.455 127.497 189.637 127.023 190.001C126.554 190.361 126.202 190.851 125.965 191.472C125.733 192.087 125.617 192.778 125.617 193.545C125.617 194.322 125.735 195.027 125.972 195.662C126.213 196.292 126.569 196.794 127.037 197.168C127.511 197.537 128.098 197.722 128.799 197.722ZM137.101 199V184.455H138.777V189.824H138.919C139.042 189.634 139.213 189.393 139.431 189.099C139.653 188.801 139.971 188.536 140.382 188.304C140.799 188.067 141.363 187.949 142.073 187.949C142.991 187.949 143.801 188.179 144.502 188.638C145.203 189.097 145.749 189.748 146.142 190.591C146.535 191.434 146.732 192.428 146.732 193.574C146.732 194.729 146.535 195.731 146.142 196.578C145.749 197.421 145.205 198.074 144.509 198.538C143.813 198.998 143.01 199.227 142.101 199.227C141.4 199.227 140.839 199.111 140.418 198.879C139.997 198.643 139.672 198.375 139.445 198.077C139.218 197.774 139.042 197.523 138.919 197.324H138.721V199H137.101ZM138.749 193.545C138.749 194.369 138.87 195.096 139.111 195.726C139.353 196.351 139.705 196.841 140.169 197.196C140.633 197.546 141.202 197.722 141.874 197.722C142.575 197.722 143.159 197.537 143.628 197.168C144.102 196.794 144.457 196.292 144.694 195.662C144.935 195.027 145.056 194.322 145.056 193.545C145.056 192.778 144.937 192.087 144.701 191.472C144.469 190.851 144.116 190.361 143.642 190.001C143.174 189.637 142.584 189.455 141.874 189.455C141.192 189.455 140.619 189.627 140.155 189.973C139.691 190.314 139.341 190.792 139.104 191.408C138.867 192.018 138.749 192.731 138.749 193.545ZM152.506 199.256C151.815 199.256 151.187 199.125 150.624 198.865C150.06 198.6 149.613 198.219 149.282 197.722C148.95 197.22 148.784 196.614 148.784 195.903C148.784 195.278 148.908 194.772 149.154 194.384C149.4 193.991 149.729 193.683 150.141 193.46C150.553 193.238 151.007 193.072 151.505 192.963C152.007 192.849 152.511 192.759 153.017 192.693C153.68 192.608 154.218 192.544 154.63 192.501C155.046 192.454 155.349 192.376 155.539 192.267C155.733 192.158 155.83 191.969 155.83 191.699V191.642C155.83 190.941 155.638 190.397 155.255 190.009C154.876 189.62 154.301 189.426 153.529 189.426C152.729 189.426 152.101 189.601 151.647 189.952C151.192 190.302 150.873 190.676 150.688 191.074L149.097 190.506C149.381 189.843 149.76 189.327 150.233 188.957C150.712 188.583 151.232 188.323 151.796 188.176C152.364 188.025 152.923 187.949 153.472 187.949C153.822 187.949 154.225 187.991 154.679 188.077C155.139 188.157 155.581 188.325 156.007 188.581C156.438 188.837 156.796 189.223 157.08 189.739C157.364 190.255 157.506 190.946 157.506 191.812V199H155.83V197.523H155.745C155.631 197.759 155.442 198.013 155.176 198.283C154.911 198.553 154.559 198.782 154.118 198.972C153.678 199.161 153.141 199.256 152.506 199.256ZM152.762 197.75C153.425 197.75 153.983 197.62 154.438 197.359C154.897 197.099 155.243 196.763 155.475 196.351C155.712 195.939 155.83 195.506 155.83 195.051V193.517C155.759 193.602 155.603 193.68 155.361 193.751C155.124 193.818 154.85 193.877 154.537 193.929C154.23 193.976 153.929 194.019 153.635 194.057C153.346 194.09 153.112 194.118 152.932 194.142C152.497 194.199 152.089 194.291 151.711 194.419C151.337 194.542 151.033 194.729 150.801 194.98C150.574 195.226 150.461 195.562 150.461 195.989C150.461 196.571 150.676 197.011 151.107 197.31C151.542 197.603 152.094 197.75 152.762 197.75ZM164.997 199.227C163.974 199.227 163.094 198.986 162.355 198.503C161.616 198.02 161.048 197.355 160.651 196.507C160.253 195.66 160.054 194.691 160.054 193.602C160.054 192.494 160.258 191.517 160.665 190.669C161.077 189.817 161.65 189.152 162.384 188.673C163.122 188.19 163.984 187.949 164.969 187.949C165.736 187.949 166.427 188.091 167.043 188.375C167.658 188.659 168.162 189.057 168.555 189.568C168.948 190.08 169.192 190.676 169.287 191.358H167.611C167.483 190.861 167.199 190.42 166.759 190.037C166.323 189.649 165.736 189.455 164.997 189.455C164.344 189.455 163.771 189.625 163.278 189.966C162.791 190.302 162.41 190.778 162.135 191.393C161.865 192.004 161.73 192.722 161.73 193.545C161.73 194.388 161.863 195.122 162.128 195.747C162.398 196.372 162.777 196.857 163.264 197.203C163.757 197.549 164.334 197.722 164.997 197.722C165.433 197.722 165.828 197.646 166.183 197.494C166.538 197.343 166.839 197.125 167.085 196.841C167.331 196.557 167.507 196.216 167.611 195.818H169.287C169.192 196.462 168.958 197.042 168.584 197.558C168.214 198.07 167.724 198.477 167.114 198.78C166.508 199.078 165.802 199.227 164.997 199.227ZM173.3 195.023L173.271 192.949H173.612L178.385 188.091H180.459L175.374 193.233H175.232L173.3 195.023ZM171.737 199V184.455H173.413V199H171.737ZM178.669 199L174.408 193.602L175.601 192.438L180.8 199H178.669ZM189.917 192.438V199H188.241V184.455H189.917V189.795H190.059C190.315 189.232 190.699 188.785 191.21 188.453C191.726 188.117 192.413 187.949 193.27 187.949C194.013 187.949 194.664 188.098 195.223 188.396C195.781 188.69 196.215 189.142 196.522 189.753C196.835 190.359 196.991 191.131 196.991 192.068V199H195.315V192.182C195.315 191.315 195.09 190.645 194.64 190.172C194.195 189.694 193.577 189.455 192.787 189.455C192.237 189.455 191.745 189.571 191.309 189.803C190.878 190.035 190.538 190.373 190.287 190.818C190.04 191.263 189.917 191.803 189.917 192.438ZM203.268 199.256C202.576 199.256 201.949 199.125 201.386 198.865C200.822 198.6 200.375 198.219 200.043 197.722C199.712 197.22 199.546 196.614 199.546 195.903C199.546 195.278 199.669 194.772 199.915 194.384C200.162 193.991 200.491 193.683 200.903 193.46C201.315 193.238 201.769 193.072 202.266 192.963C202.768 192.849 203.272 192.759 203.779 192.693C204.442 192.608 204.979 192.544 205.391 192.501C205.808 192.454 206.111 192.376 206.3 192.267C206.495 192.158 206.592 191.969 206.592 191.699V191.642C206.592 190.941 206.4 190.397 206.016 190.009C205.638 189.62 205.062 189.426 204.29 189.426C203.49 189.426 202.863 189.601 202.408 189.952C201.954 190.302 201.634 190.676 201.45 191.074L199.859 190.506C200.143 189.843 200.522 189.327 200.995 188.957C201.473 188.583 201.994 188.323 202.558 188.176C203.126 188.025 203.684 187.949 204.234 187.949C204.584 187.949 204.987 187.991 205.441 188.077C205.9 188.157 206.343 188.325 206.769 188.581C207.2 188.837 207.558 189.223 207.842 189.739C208.126 190.255 208.268 190.946 208.268 191.812V199H206.592V197.523H206.506C206.393 197.759 206.203 198.013 205.938 198.283C205.673 198.553 205.32 198.782 204.88 198.972C204.44 199.161 203.902 199.256 203.268 199.256ZM203.523 197.75C204.186 197.75 204.745 197.62 205.2 197.359C205.659 197.099 206.004 196.763 206.237 196.351C206.473 195.939 206.592 195.506 206.592 195.051V193.517C206.521 193.602 206.364 193.68 206.123 193.751C205.886 193.818 205.612 193.877 205.299 193.929C204.991 193.976 204.691 194.019 204.397 194.057C204.108 194.09 203.874 194.118 203.694 194.142C203.258 194.199 202.851 194.291 202.472 194.419C202.098 194.542 201.795 194.729 201.563 194.98C201.336 195.226 201.222 195.562 201.222 195.989C201.222 196.571 201.438 197.011 201.869 197.31C202.304 197.603 202.856 197.75 203.523 197.75ZM219.054 190.534L217.549 190.96C217.454 190.709 217.314 190.465 217.13 190.229C216.95 189.987 216.703 189.788 216.391 189.632C216.078 189.476 215.678 189.398 215.191 189.398C214.523 189.398 213.967 189.552 213.522 189.859C213.081 190.162 212.861 190.548 212.861 191.017C212.861 191.434 213.013 191.763 213.316 192.004C213.619 192.246 214.092 192.447 214.736 192.608L216.355 193.006C217.331 193.242 218.058 193.605 218.536 194.092C219.014 194.575 219.253 195.198 219.253 195.96C219.253 196.585 219.073 197.144 218.713 197.636C218.358 198.129 217.861 198.517 217.222 198.801C216.583 199.085 215.839 199.227 214.992 199.227C213.879 199.227 212.958 198.986 212.229 198.503C211.5 198.02 211.038 197.314 210.844 196.386L212.435 195.989C212.587 196.576 212.873 197.016 213.294 197.31C213.721 197.603 214.277 197.75 214.963 197.75C215.745 197.75 216.365 197.584 216.824 197.253C217.288 196.917 217.52 196.514 217.52 196.045C217.52 195.667 217.388 195.349 217.123 195.094C216.857 194.833 216.45 194.639 215.901 194.511L214.083 194.085C213.084 193.848 212.35 193.482 211.881 192.984C211.417 192.482 211.185 191.855 211.185 191.102C211.185 190.487 211.358 189.942 211.703 189.469C212.054 188.995 212.53 188.624 213.131 188.354C213.737 188.084 214.424 187.949 215.191 187.949C216.27 187.949 217.118 188.186 217.733 188.659C218.354 189.133 218.794 189.758 219.054 190.534ZM227.629 199V184.455H229.305V189.824H229.447C229.57 189.634 229.74 189.393 229.958 189.099C230.181 188.801 230.498 188.536 230.91 188.304C231.326 188.067 231.89 187.949 232.6 187.949C233.519 187.949 234.328 188.179 235.029 188.638C235.73 189.097 236.277 189.748 236.67 190.591C237.063 191.434 237.259 192.428 237.259 193.574C237.259 194.729 237.063 195.731 236.67 196.578C236.277 197.421 235.732 198.074 235.036 198.538C234.34 198.998 233.538 199.227 232.629 199.227C231.928 199.227 231.367 199.111 230.945 198.879C230.524 198.643 230.2 198.375 229.972 198.077C229.745 197.774 229.57 197.523 229.447 197.324H229.248V199H227.629ZM229.276 193.545C229.276 194.369 229.397 195.096 229.638 195.726C229.88 196.351 230.233 196.841 230.697 197.196C231.161 197.546 231.729 197.722 232.401 197.722C233.102 197.722 233.687 197.537 234.156 197.168C234.629 196.794 234.984 196.292 235.221 195.662C235.462 195.027 235.583 194.322 235.583 193.545C235.583 192.778 235.465 192.087 235.228 191.472C234.996 190.851 234.643 190.361 234.17 190.001C233.701 189.637 233.112 189.455 232.401 189.455C231.719 189.455 231.147 189.627 230.683 189.973C230.219 190.314 229.868 190.792 229.631 191.408C229.395 192.018 229.276 192.731 229.276 193.545ZM244.397 199.227C243.346 199.227 242.439 198.995 241.677 198.531C240.919 198.062 240.335 197.409 239.923 196.571C239.515 195.728 239.312 194.748 239.312 193.631C239.312 192.513 239.515 191.528 239.923 190.676C240.335 189.819 240.907 189.152 241.641 188.673C242.38 188.19 243.242 187.949 244.227 187.949C244.795 187.949 245.356 188.044 245.91 188.233C246.464 188.422 246.968 188.73 247.423 189.156C247.877 189.578 248.239 190.136 248.509 190.832C248.779 191.528 248.914 192.385 248.914 193.403V194.114H240.505V192.665H247.21C247.21 192.049 247.086 191.5 246.84 191.017C246.599 190.534 246.253 190.153 245.803 189.874C245.358 189.594 244.833 189.455 244.227 189.455C243.559 189.455 242.981 189.62 242.494 189.952C242.011 190.278 241.639 190.705 241.379 191.23C241.118 191.756 240.988 192.319 240.988 192.92V193.886C240.988 194.71 241.13 195.409 241.414 195.982C241.703 196.55 242.103 196.983 242.614 197.281C243.126 197.575 243.72 197.722 244.397 197.722C244.837 197.722 245.235 197.66 245.59 197.537C245.95 197.409 246.26 197.22 246.521 196.969C246.781 196.713 246.982 196.396 247.124 196.017L248.744 196.472C248.573 197.021 248.287 197.504 247.884 197.92C247.482 198.332 246.985 198.654 246.393 198.886C245.801 199.114 245.136 199.227 244.397 199.227ZM256.038 199.227C254.987 199.227 254.08 198.995 253.317 198.531C252.56 198.062 251.975 197.409 251.563 196.571C251.156 195.728 250.952 194.748 250.952 193.631C250.952 192.513 251.156 191.528 251.563 190.676C251.975 189.819 252.548 189.152 253.282 188.673C254.021 188.19 254.882 187.949 255.867 187.949C256.435 187.949 256.996 188.044 257.55 188.233C258.104 188.422 258.609 188.73 259.063 189.156C259.518 189.578 259.88 190.136 260.15 190.832C260.42 191.528 260.555 192.385 260.555 193.403V194.114H252.146V192.665H258.85C258.85 192.049 258.727 191.5 258.481 191.017C258.239 190.534 257.894 190.153 257.444 189.874C256.999 189.594 256.473 189.455 255.867 189.455C255.2 189.455 254.622 189.62 254.134 189.952C253.651 190.278 253.28 190.705 253.019 191.23C252.759 191.756 252.629 192.319 252.629 192.92V193.886C252.629 194.71 252.771 195.409 253.055 195.982C253.344 196.55 253.744 196.983 254.255 197.281C254.766 197.575 255.361 197.722 256.038 197.722C256.478 197.722 256.876 197.66 257.231 197.537C257.591 197.409 257.901 197.22 258.161 196.969C258.422 196.713 258.623 196.396 258.765 196.017L260.384 196.472C260.214 197.021 259.927 197.504 259.525 197.92C259.122 198.332 258.625 198.654 258.033 198.886C257.442 199.114 256.776 199.227 256.038 199.227ZM264.781 192.438V199H263.104V188.091H264.724V189.795H264.866C265.121 189.241 265.51 188.796 266.031 188.46C266.551 188.119 267.224 187.949 268.048 187.949C268.786 187.949 269.433 188.1 269.987 188.403C270.54 188.702 270.971 189.156 271.279 189.767C271.587 190.373 271.741 191.14 271.741 192.068V199H270.065V192.182C270.065 191.325 269.842 190.657 269.397 190.179C268.952 189.696 268.341 189.455 267.565 189.455C267.03 189.455 266.551 189.571 266.13 189.803C265.713 190.035 265.384 190.373 265.143 190.818C264.901 191.263 264.781 191.803 264.781 192.438ZM288.156 190.534L286.65 190.96C286.556 190.709 286.416 190.465 286.231 190.229C286.051 189.987 285.805 189.788 285.493 189.632C285.18 189.476 284.78 189.398 284.292 189.398C283.625 189.398 283.068 189.552 282.623 189.859C282.183 190.162 281.963 190.548 281.963 191.017C281.963 191.434 282.114 191.763 282.417 192.004C282.72 192.246 283.194 192.447 283.838 192.608L285.457 193.006C286.432 193.242 287.159 193.605 287.637 194.092C288.116 194.575 288.355 195.198 288.355 195.96C288.355 196.585 288.175 197.144 287.815 197.636C287.46 198.129 286.963 198.517 286.324 198.801C285.684 199.085 284.941 199.227 284.093 199.227C282.981 199.227 282.06 198.986 281.331 198.503C280.601 198.02 280.14 197.314 279.946 196.386L281.537 195.989C281.688 196.576 281.975 197.016 282.396 197.31C282.822 197.603 283.378 197.75 284.065 197.75C284.846 197.75 285.467 197.584 285.926 197.253C286.39 196.917 286.622 196.514 286.622 196.045C286.622 195.667 286.489 195.349 286.224 195.094C285.959 194.833 285.552 194.639 285.002 194.511L283.184 194.085C282.185 193.848 281.451 193.482 280.983 192.984C280.519 192.482 280.287 191.855 280.287 191.102C280.287 190.487 280.459 189.942 280.805 189.469C281.155 188.995 281.631 188.624 282.233 188.354C282.839 188.084 283.525 187.949 284.292 187.949C285.372 187.949 286.219 188.186 286.835 188.659C287.455 189.133 287.895 189.758 288.156 190.534ZM297.753 194.54V188.091H299.429V199H297.753V197.153H297.639C297.384 197.707 296.986 198.179 296.446 198.567C295.906 198.95 295.224 199.142 294.401 199.142C293.719 199.142 293.113 198.993 292.582 198.695C292.052 198.392 291.635 197.937 291.332 197.331C291.029 196.72 290.878 195.951 290.878 195.023V188.091H292.554V194.909C292.554 195.705 292.777 196.339 293.222 196.812C293.671 197.286 294.244 197.523 294.94 197.523C295.357 197.523 295.781 197.416 296.212 197.203C296.647 196.99 297.012 196.663 297.305 196.223C297.604 195.783 297.753 195.222 297.753 194.54ZM302.726 199V184.455H304.402V189.824H304.544C304.667 189.634 304.838 189.393 305.056 189.099C305.278 188.801 305.596 188.536 306.007 188.304C306.424 188.067 306.988 187.949 307.698 187.949C308.616 187.949 309.426 188.179 310.127 188.638C310.828 189.097 311.374 189.748 311.767 190.591C312.16 191.434 312.357 192.428 312.357 193.574C312.357 194.729 312.16 195.731 311.767 196.578C311.374 197.421 310.83 198.074 310.134 198.538C309.438 198.998 308.635 199.227 307.726 199.227C307.025 199.227 306.464 199.111 306.043 198.879C305.622 198.643 305.297 198.375 305.07 198.077C304.843 197.774 304.667 197.523 304.544 197.324H304.346V199H302.726ZM304.374 193.545C304.374 194.369 304.495 195.096 304.736 195.726C304.978 196.351 305.33 196.841 305.794 197.196C306.258 197.546 306.827 197.722 307.499 197.722C308.2 197.722 308.784 197.537 309.253 197.168C309.727 196.794 310.082 196.292 310.319 195.662C310.56 195.027 310.681 194.322 310.681 193.545C310.681 192.778 310.562 192.087 310.326 191.472C310.094 190.851 309.741 190.361 309.267 190.001C308.799 189.637 308.209 189.455 307.499 189.455C306.817 189.455 306.244 189.627 305.78 189.973C305.316 190.314 304.966 190.792 304.729 191.408C304.492 192.018 304.374 192.731 304.374 193.545ZM314.921 199V188.091H316.54V189.795H316.682C316.909 189.213 317.276 188.761 317.783 188.439C318.29 188.112 318.898 187.949 319.608 187.949C320.328 187.949 320.927 188.112 321.405 188.439C321.888 188.761 322.265 189.213 322.534 189.795H322.648C322.927 189.232 323.346 188.785 323.905 188.453C324.464 188.117 325.134 187.949 325.915 187.949C326.891 187.949 327.688 188.254 328.309 188.865C328.929 189.471 329.239 190.416 329.239 191.699V199H327.563V191.699C327.563 190.894 327.343 190.319 326.902 189.973C326.462 189.627 325.944 189.455 325.347 189.455C324.58 189.455 323.986 189.687 323.564 190.151C323.143 190.61 322.932 191.192 322.932 191.898V199H321.228V191.528C321.228 190.908 321.026 190.409 320.624 190.03C320.221 189.646 319.703 189.455 319.069 189.455C318.633 189.455 318.226 189.571 317.847 189.803C317.473 190.035 317.17 190.357 316.938 190.768C316.711 191.176 316.597 191.647 316.597 192.182V199H314.921ZM332.304 199V188.091H333.98V199H332.304ZM333.156 186.273C332.829 186.273 332.547 186.161 332.311 185.939C332.079 185.716 331.963 185.449 331.963 185.136C331.963 184.824 332.079 184.556 332.311 184.334C332.547 184.111 332.829 184 333.156 184C333.483 184 333.762 184.111 333.994 184.334C334.231 184.556 334.349 184.824 334.349 185.136C334.349 185.449 334.231 185.716 333.994 185.939C333.762 186.161 333.483 186.273 333.156 186.273ZM341.794 188.091V189.511H336.141V188.091H341.794ZM337.788 185.477H339.464V195.875C339.464 196.348 339.533 196.704 339.67 196.94C339.813 197.172 339.992 197.329 340.21 197.409C340.433 197.485 340.667 197.523 340.913 197.523C341.098 197.523 341.25 197.513 341.368 197.494C341.486 197.471 341.581 197.452 341.652 197.438L341.993 198.943C341.879 198.986 341.721 199.028 341.517 199.071C341.313 199.118 341.055 199.142 340.743 199.142C340.269 199.142 339.805 199.04 339.351 198.837C338.901 198.633 338.527 198.323 338.229 197.906C337.935 197.49 337.788 196.964 337.788 196.33V185.477ZM349.06 188.091V189.511H343.406V188.091H349.06ZM345.054 185.477H346.73V195.875C346.73 196.348 346.799 196.704 346.936 196.94C347.078 197.172 347.258 197.329 347.476 197.409C347.698 197.485 347.933 197.523 348.179 197.523C348.364 197.523 348.515 197.513 348.634 197.494C348.752 197.471 348.847 197.452 348.918 197.438L349.259 198.943C349.145 198.986 348.986 199.028 348.783 199.071C348.579 199.118 348.321 199.142 348.009 199.142C347.535 199.142 347.071 199.04 346.616 198.837C346.167 198.633 345.793 198.323 345.494 197.906C345.201 197.49 345.054 196.964 345.054 196.33V185.477ZM356.038 199.227C354.987 199.227 354.08 198.995 353.317 198.531C352.56 198.062 351.975 197.409 351.563 196.571C351.156 195.728 350.952 194.748 350.952 193.631C350.952 192.513 351.156 191.528 351.563 190.676C351.975 189.819 352.548 189.152 353.282 188.673C354.021 188.19 354.882 187.949 355.867 187.949C356.435 187.949 356.996 188.044 357.55 188.233C358.104 188.422 358.609 188.73 359.063 189.156C359.518 189.578 359.88 190.136 360.15 190.832C360.42 191.528 360.555 192.385 360.555 193.403V194.114H352.146V192.665H358.85C358.85 192.049 358.727 191.5 358.481 191.017C358.239 190.534 357.894 190.153 357.444 189.874C356.999 189.594 356.473 189.455 355.867 189.455C355.2 189.455 354.622 189.62 354.134 189.952C353.651 190.278 353.28 190.705 353.019 191.23C352.759 191.756 352.629 192.319 352.629 192.92V193.886C352.629 194.71 352.771 195.409 353.055 195.982C353.344 196.55 353.744 196.983 354.255 197.281C354.766 197.575 355.361 197.722 356.038 197.722C356.478 197.722 356.876 197.66 357.231 197.537C357.591 197.409 357.901 197.22 358.161 196.969C358.422 196.713 358.623 196.396 358.765 196.017L360.384 196.472C360.214 197.021 359.927 197.504 359.525 197.92C359.122 198.332 358.625 198.654 358.033 198.886C357.442 199.114 356.776 199.227 356.038 199.227ZM367.224 199.227C366.315 199.227 365.512 198.998 364.816 198.538C364.12 198.074 363.576 197.421 363.183 196.578C362.79 195.731 362.593 194.729 362.593 193.574C362.593 192.428 362.79 191.434 363.183 190.591C363.576 189.748 364.122 189.097 364.823 188.638C365.524 188.179 366.334 187.949 367.252 187.949C367.962 187.949 368.523 188.067 368.935 188.304C369.352 188.536 369.669 188.801 369.887 189.099C370.11 189.393 370.282 189.634 370.406 189.824H370.548V184.455H372.224V199H370.604V197.324H370.406C370.282 197.523 370.107 197.774 369.88 198.077C369.653 198.375 369.328 198.643 368.907 198.879C368.486 199.111 367.924 199.227 367.224 199.227ZM367.451 197.722C368.123 197.722 368.692 197.546 369.156 197.196C369.62 196.841 369.972 196.351 370.214 195.726C370.455 195.096 370.576 194.369 370.576 193.545C370.576 192.731 370.458 192.018 370.221 191.408C369.984 190.792 369.634 190.314 369.17 189.973C368.706 189.627 368.133 189.455 367.451 189.455C366.741 189.455 366.149 189.637 365.675 190.001C365.207 190.361 364.854 190.851 364.617 191.472C364.385 192.087 364.269 192.778 364.269 193.545C364.269 194.322 364.388 195.027 364.624 195.662C364.866 196.292 365.221 196.794 365.69 197.168C366.163 197.537 366.75 197.722 367.451 197.722ZM376.748 199.114C376.397 199.114 376.097 198.988 375.846 198.737C375.595 198.486 375.469 198.186 375.469 197.835C375.469 197.485 375.595 197.184 375.846 196.933C376.097 196.682 376.397 196.557 376.748 196.557C377.098 196.557 377.399 196.682 377.65 196.933C377.901 197.184 378.026 197.485 378.026 197.835C378.026 198.067 377.967 198.28 377.849 198.474C377.735 198.669 377.581 198.825 377.387 198.943C377.198 199.057 376.985 199.114 376.748 199.114Z" fill="#A3AAB7"/>
<path d="M208.095 85.0726C207.613 85.0769 207.136 84.9758 206.698 84.7765C206.259 84.5772 205.869 84.2845 205.556 83.9189L188.128 64.9922C187.538 64.3153 187.238 63.4345 187.29 62.5386C187.342 61.6427 187.744 60.8029 188.408 60.1993C189.072 59.5956 189.946 59.2762 190.843 59.3095C191.74 59.3428 192.588 59.7261 193.206 60.3773L208.21 76.6466L249.756 35.2163C250.073 34.8949 250.451 34.6394 250.868 34.4646C251.284 34.2899 251.732 34.1992 252.183 34.1978C252.635 34.1965 253.083 34.2845 253.501 34.4567C253.918 34.629 254.298 34.8822 254.617 35.2017C254.937 35.5212 255.19 35.9007 255.362 36.3184C255.534 36.7361 255.622 37.1837 255.621 37.6355C255.62 38.0874 255.529 38.5345 255.354 38.9511C255.18 39.3678 254.924 39.7458 254.603 40.0633L210.52 84.0325C210.215 84.3713 209.84 84.6398 209.422 84.8194C209.003 84.999 208.55 85.0854 208.095 85.0726Z" fill="#21A365"/>
<path d="M211.326 114.501C199.145 114.501 187.462 109.662 178.848 101.048C170.235 92.4343 165.396 80.7516 165.396 68.5699C165.396 56.3883 170.235 44.7056 178.848 36.0919C187.462 27.4782 199.145 22.639 211.326 22.639C211.783 22.6306 212.237 22.7144 212.661 22.8854C213.085 23.0564 213.47 23.3111 213.793 23.6343C214.116 23.9574 214.371 24.3424 214.542 24.7662C214.713 25.19 214.797 25.644 214.788 26.1009C214.797 26.5578 214.713 27.0117 214.542 27.4355C214.371 27.8593 214.116 28.2442 213.793 28.5674C213.47 28.8905 213.085 29.1452 212.661 29.3162C212.237 29.4872 211.783 29.5711 211.326 29.5628C203.612 29.5628 196.07 31.8505 189.656 36.1366C183.241 40.4227 178.241 46.5146 175.289 53.6421C172.337 60.7696 171.564 68.6125 173.069 76.179C174.575 83.7455 178.29 90.6958 183.745 96.151C189.2 101.606 196.15 105.321 203.717 106.826C211.283 108.331 219.126 107.559 226.254 104.607C233.381 101.654 239.473 96.6546 243.759 90.2401C248.045 83.8255 250.333 76.284 250.333 68.5692C250.333 67.6511 250.698 66.7706 251.347 66.1213C251.996 65.4721 252.877 65.1074 253.795 65.1074C254.713 65.1074 255.593 65.4721 256.243 66.1213C256.892 66.7706 257.257 67.6511 257.257 68.5692C257.225 80.7412 252.376 92.4056 243.769 101.013C235.163 109.62 223.498 114.469 211.326 114.501Z" fill="#21A365"/>
</svg>
