<svg width="240" height="88" viewBox="0 0 240 88" fill="none" xmlns="http://www.w3.org/2000/svg">
<path d="M132.406 8.53017C126.819 8.3574 121.497 6.75973 116.416 5.00717C111.335 3.2546 106.302 1.31699 100.849 0.390258C97.3415 -0.205472 93.33 -0.290363 90.5045 1.37805C87.7843 2.9828 86.9055 5.75407 86.4335 8.32576C86.078 10.2596 85.8688 12.2956 86.8427 14.1066C87.5196 15.3643 88.7194 16.4214 89.5498 17.6251C92.4392 21.8164 90.3966 26.9837 87.2665 31.0793C85.7991 32.999 84.0938 34.8298 82.9605 36.8735C81.8272 38.9172 81.3028 41.2581 82.2949 43.3405C83.2772 45.4066 85.6193 46.9581 88.1565 48.0494C93.3093 50.2622 99.379 50.9004 105.302 51.26C118.409 52.0568 131.585 51.7113 144.727 51.3661C149.59 51.2388 154.475 51.1096 159.259 50.442C161.916 50.0719 164.659 49.4844 166.588 48.0647C169.036 46.2626 169.643 43.2113 168.002 40.9532C165.25 37.1639 157.643 36.2219 155.717 32.155C154.658 29.9165 155.745 27.423 157.284 25.3465C160.586 20.8923 166.118 16.9847 166.409 11.8923C166.61 8.39613 163.95 4.89249 159.836 3.24008C155.526 1.50502 149.548 1.72395 146.37 4.59425C143.093 7.54423 137.34 8.68171 132.406 8.53017Z" fill="#1A202A"/>
<path d="M169.89 2.11494C169.483 2.10888 169.095 2.05282 168.724 1.99133C168.354 1.92983 167.987 1.86185 167.589 1.82933C167.334 1.80843 167.041 1.80545 166.835 1.86399C166.637 1.9203 166.573 2.01753 166.538 2.10777C166.512 2.17562 166.497 2.24706 166.568 2.3106C166.617 2.35473 166.705 2.39182 166.765 2.43406C166.976 2.58112 166.827 2.76243 166.599 2.90614C166.492 2.9735 166.368 3.03773 166.285 3.10944C166.202 3.18115 166.164 3.26329 166.236 3.33636C166.308 3.40885 166.479 3.46329 166.664 3.50158C167.04 3.57922 167.482 3.60161 167.914 3.61423C168.87 3.64219 169.831 3.63007 170.789 3.61796C171.143 3.61349 171.5 3.60896 171.848 3.58553C172.042 3.57255 172.242 3.55193 172.383 3.50212C172.561 3.43889 172.606 3.33182 172.486 3.25259C172.285 3.11963 171.731 3.08658 171.59 2.94388C171.513 2.86534 171.592 2.77785 171.704 2.70499C171.945 2.5487 172.349 2.41159 172.37 2.23291C172.384 2.11024 172.19 1.9873 171.891 1.92932C171.576 1.86844 171.14 1.87613 170.909 1.97684C170.67 2.08035 170.25 2.12026 169.89 2.11494Z" fill="#1A202A"/>
<path d="M171.914 45.8401C170.983 45.831 170.096 45.7469 169.249 45.6547C168.402 45.5624 167.563 45.4604 166.654 45.4117C166.07 45.3803 165.401 45.3758 164.93 45.4636C164.477 45.5481 164.33 45.694 164.252 45.8293C164.193 45.9311 164.158 46.0383 164.32 46.1336C164.433 46.1998 164.633 46.2554 164.771 46.3188C165.253 46.5394 164.912 46.8113 164.391 47.0269C164.146 47.1279 163.862 47.2243 163.673 47.3318C163.484 47.4394 163.397 47.5626 163.562 47.6722C163.726 47.7809 164.116 47.8626 164.539 47.92C165.398 48.0365 166.409 48.0701 167.397 48.089C169.581 48.1309 171.777 48.1128 173.967 48.0946C174.778 48.0879 175.592 48.0811 176.389 48.046C176.832 48.0265 177.289 47.9956 177.611 47.9208C178.019 47.826 178.12 47.6654 177.847 47.5465C177.388 47.3471 176.12 47.2975 175.799 47.0835C175.623 46.9657 175.804 46.8344 176.06 46.7251C176.61 46.4907 177.533 46.285 177.581 46.017C177.614 45.833 177.171 45.6486 176.486 45.5616C175.767 45.4703 174.771 45.4819 174.241 45.6329C173.695 45.7882 172.736 45.848 171.914 45.8401Z" fill="#1A202A"/>
<path d="M71.1453 46.7479C70.2141 46.7388 69.3272 46.6547 68.4803 46.5625C67.6335 46.4702 66.7946 46.3683 65.8858 46.3195C65.3012 46.2881 64.6326 46.2837 64.1617 46.3715C63.7084 46.4559 63.5619 46.6018 63.4832 46.7371C63.424 46.8389 63.3891 46.9461 63.5514 47.0414C63.6642 47.1076 63.8642 47.1632 64.0026 47.2266C64.4842 47.4472 64.1437 47.7191 63.622 47.9347C63.3775 48.0357 63.0933 48.1321 62.9044 48.2396C62.7155 48.3472 62.6281 48.4704 62.7935 48.58C62.9572 48.6888 63.3475 48.7704 63.7704 48.8279C64.6292 48.9443 65.6408 48.9779 66.628 48.9968C68.8125 49.0388 71.0085 49.0206 73.1988 49.0024C74.0094 48.9957 74.8235 48.9889 75.6208 48.9538C76.0637 48.9343 76.5208 48.9034 76.8423 48.8287C77.2504 48.7338 77.3515 48.5732 77.078 48.4544C76.6193 48.2549 75.3514 48.2054 75.0304 47.9913C74.854 47.8735 75.0352 47.7423 75.2917 47.633C75.8419 47.3985 76.764 47.1929 76.8125 46.9248C76.8459 46.7408 76.4026 46.5564 75.7171 46.4695C74.9987 46.3781 74.0023 46.3897 73.4726 46.5407C72.9265 46.696 71.9676 46.7559 71.1453 46.7479Z" fill="#1A202A"/>
<path d="M90.2097 24.0523C89.2785 24.0432 88.3917 23.9592 87.5448 23.8669C86.6979 23.7747 85.8591 23.6727 84.9502 23.6239C84.3657 23.5926 83.6971 23.5881 83.2262 23.6759C82.7728 23.7604 82.6263 23.9062 82.5477 24.0416C82.4884 24.1434 82.4536 24.2505 82.6159 24.3458C82.7287 24.412 82.9286 24.4677 83.0671 24.531C83.5486 24.7516 83.2082 25.0236 82.6865 25.2391C82.4419 25.3402 82.1577 25.4365 81.9688 25.5441C81.78 25.6517 81.6926 25.7749 81.8579 25.8845C82.0216 25.9932 82.412 26.0749 82.8348 26.1323C83.6936 26.2488 84.7053 26.2823 85.6924 26.3013C87.8769 26.3432 90.0729 26.325 92.2632 26.3069C93.0738 26.3002 93.8879 26.2934 94.6853 26.2582C95.1281 26.2387 95.5852 26.2078 95.9068 26.1331C96.3148 26.0383 96.4159 25.8777 96.1424 25.7588C95.6838 25.5594 94.4159 25.5098 94.0949 25.2957C93.9185 25.1779 94.0996 25.0467 94.3562 24.9374C94.9064 24.703 95.8285 24.4973 95.8769 24.2293C95.9103 24.0453 95.467 23.8609 94.7815 23.7739C94.0631 23.6826 93.0668 23.6941 92.537 23.8452C91.991 24.0004 91.032 24.0603 90.2097 24.0523Z" fill="#1A202A"/>
<path d="M123.634 37.5261C123.421 37.528 123.211 37.4834 123.017 37.3955C122.824 37.3076 122.652 37.1785 122.514 37.0172L114.826 28.6685C114.566 28.3699 114.434 27.9814 114.457 27.5862C114.48 27.191 114.657 26.8205 114.95 26.5543C115.243 26.288 115.628 26.1471 116.024 26.1618C116.42 26.1765 116.794 26.3455 117.066 26.6328L123.685 33.8093L142.011 15.5341C142.151 15.3923 142.318 15.2796 142.501 15.2025C142.685 15.1254 142.882 15.0854 143.082 15.0848C143.281 15.0842 143.478 15.123 143.663 15.199C143.847 15.275 144.014 15.3867 144.155 15.5276C144.296 15.6686 144.408 15.836 144.484 16.0202C144.56 16.2045 144.599 16.4019 144.598 16.6012C144.597 16.8005 144.557 16.9978 144.48 17.1815C144.403 17.3653 144.291 17.5321 144.149 17.6721L124.704 37.0673C124.569 37.2167 124.404 37.3352 124.219 37.4144C124.034 37.4936 123.835 37.5317 123.634 37.5261Z" fill="#21A365"/>
<path d="M125.059 50.5071C119.686 50.5071 114.533 48.3726 110.733 44.573C106.933 40.7734 104.799 35.6201 104.799 30.2467C104.799 24.8732 106.933 19.7199 110.733 15.9203C114.533 12.1208 119.686 9.98619 125.059 9.98619C125.261 9.98248 125.461 10.0194 125.648 10.0949C125.835 10.1703 126.005 10.2826 126.147 10.4252C126.29 10.5677 126.402 10.7376 126.478 10.9245C126.553 11.1115 126.59 11.3117 126.586 11.5132C126.59 11.7148 126.553 11.915 126.478 12.1019C126.402 12.2889 126.29 12.4587 126.147 12.6012C126.005 12.7438 125.835 12.8561 125.648 12.9315C125.461 13.007 125.261 13.044 125.059 13.0403C121.656 13.0403 118.33 14.0494 115.5 15.9401C112.671 17.8307 110.465 20.5179 109.163 23.6619C107.861 26.8059 107.52 30.2654 108.184 33.6031C108.848 36.9407 110.486 40.0066 112.893 42.4129C115.299 44.8192 118.365 46.4579 121.703 47.1218C125.04 47.7857 128.5 47.445 131.644 46.1427C134.788 44.8404 137.475 42.635 139.366 39.8055C141.256 36.976 142.265 33.6494 142.265 30.2464C142.265 29.8414 142.426 29.4529 142.713 29.1666C142.999 28.8802 143.387 28.7193 143.792 28.7193C144.197 28.7193 144.586 28.8802 144.872 29.1666C145.159 29.4529 145.319 29.8414 145.319 30.2464C145.306 35.6155 143.167 40.7607 139.37 44.5573C135.574 48.354 130.428 50.4931 125.059 50.5071Z" fill="#21A365"/>
<path d="M1.05824 73.4396V71.6726H10.3423V73.4396H6.74574V83.3089H4.65483V73.4396H1.05824ZM14.098 78.1953V83.3089H12.0412V71.6726H14.0526V76.0646H14.1548C14.3594 75.5722 14.6757 75.1839 15.1037 74.8998C15.5355 74.612 16.0848 74.468 16.7514 74.468C17.3575 74.468 17.8859 74.5949 18.3366 74.8487C18.7874 75.1025 19.1359 75.4737 19.3821 75.9623C19.6321 76.451 19.7571 77.0476 19.7571 77.7521V83.3089H17.7003V78.0703C17.7003 77.4832 17.5488 77.0267 17.2457 76.701C16.9465 76.3714 16.526 76.2066 15.9844 76.2066C15.6207 76.2066 15.295 76.2862 15.0071 76.4453C14.723 76.6006 14.4995 76.826 14.3366 77.1214C14.1776 77.4169 14.098 77.7748 14.098 78.1953ZM24.3651 83.4851C23.812 83.4851 23.3139 83.3866 22.8707 83.1896C22.4313 82.9888 22.0829 82.6934 21.8253 82.3032C21.5715 81.9131 21.4446 81.432 21.4446 80.8601C21.4446 80.3676 21.5355 79.9604 21.7173 79.6385C21.8991 79.3165 22.1473 79.0589 22.4616 78.8657C22.776 78.6726 23.1302 78.5267 23.5241 78.4282C23.9219 78.326 24.3329 78.2521 24.7571 78.2066C25.2685 78.1536 25.6832 78.1063 26.0014 78.0646C26.3196 78.0191 26.5507 77.951 26.6946 77.8601C26.8423 77.7654 26.9162 77.6195 26.9162 77.4226V77.3885C26.9162 76.9604 26.7893 76.629 26.5355 76.3941C26.2817 76.1593 25.9162 76.0419 25.4389 76.0419C24.9351 76.0419 24.5355 76.1517 24.2401 76.3714C23.9484 76.5911 23.7514 76.8506 23.6491 77.1498L21.7287 76.8771C21.8802 76.3468 22.1302 75.9036 22.4787 75.5476C22.8272 75.1877 23.2533 74.9188 23.7571 74.7407C24.2609 74.5589 24.8177 74.468 25.4276 74.468C25.848 74.468 26.2666 74.5173 26.6832 74.6157C27.0999 74.7142 27.4806 74.8771 27.8253 75.1044C28.17 75.3279 28.4465 75.6328 28.6548 76.0191C28.867 76.4055 28.973 76.8885 28.973 77.468V83.3089H26.9957V82.1101H26.9276C26.8026 82.3525 26.6264 82.5798 26.3991 82.7919C26.1757 83.0002 25.8935 83.1688 25.5526 83.2976C25.2154 83.4226 24.8196 83.4851 24.3651 83.4851ZM24.8991 81.9737C25.312 81.9737 25.67 81.8923 25.973 81.7294C26.276 81.5627 26.509 81.343 26.6719 81.0703C26.8385 80.7976 26.9219 80.5002 26.9219 80.1782V79.1498C26.8575 79.2029 26.7476 79.2521 26.5923 79.2976C26.4408 79.343 26.2704 79.3828 26.081 79.4169C25.8916 79.451 25.7041 79.4813 25.5185 79.5078C25.3329 79.5343 25.1719 79.557 25.0355 79.576C24.7287 79.6176 24.4541 79.6858 24.2116 79.7805C23.9692 79.8752 23.7779 80.0078 23.6378 80.1782C23.4976 80.3449 23.4276 80.5608 23.4276 80.826C23.4276 81.2048 23.5658 81.4907 23.8423 81.6839C24.1188 81.8771 24.4711 81.9737 24.8991 81.9737ZM33.098 78.1953V83.3089H31.0412V74.5816H33.0071V76.0646H33.1094C33.3101 75.576 33.6302 75.1877 34.0696 74.8998C34.5128 74.612 35.0601 74.468 35.7116 74.468C36.3139 74.468 36.8385 74.5968 37.2855 74.8544C37.7363 75.112 38.0848 75.4851 38.331 75.9737C38.581 76.4623 38.7041 77.0551 38.7003 77.7521V83.3089H36.6435V78.0703C36.6435 77.487 36.492 77.0305 36.1889 76.701C35.8897 76.3714 35.4749 76.2066 34.9446 76.2066C34.5848 76.2066 34.2647 76.2862 33.9844 76.4453C33.7079 76.6006 33.4901 76.826 33.331 77.1214C33.1757 77.4169 33.098 77.7748 33.098 78.1953ZM42.6662 80.5703L42.6605 78.0873H42.9901L46.1264 74.5816H48.5298L44.6719 78.8771H44.2457L42.6662 80.5703ZM40.7912 83.3089V71.6726H42.848V83.3089H40.7912ZM46.2685 83.3089L43.4276 79.3373L44.8139 77.8885L48.7287 83.3089H46.2685ZM55.1477 86.5816C54.8674 86.5816 54.608 86.5589 54.3693 86.5135C54.1345 86.4718 53.947 86.4226 53.8068 86.3657L54.2841 84.7635C54.5833 84.8506 54.8504 84.8923 55.0852 84.8885C55.3201 84.8847 55.5265 84.8108 55.7045 84.6669C55.8864 84.5267 56.0398 84.2919 56.1648 83.9623L56.3409 83.4907L53.1761 74.5816H55.358L57.3693 81.1726H57.4602L59.4773 74.5816H61.6648L58.1705 84.3657C58.0076 84.8279 57.7917 85.2237 57.5227 85.5532C57.2538 85.8866 56.9242 86.1404 56.5341 86.3146C56.1477 86.4926 55.6856 86.5816 55.1477 86.5816ZM66.598 83.4794C65.7457 83.4794 65.0071 83.2919 64.3821 82.9169C63.7571 82.5419 63.2723 82.0173 62.9276 81.343C62.5866 80.6688 62.4162 79.8809 62.4162 78.9794C62.4162 78.0779 62.5866 77.2881 62.9276 76.6101C63.2723 75.932 63.7571 75.4055 64.3821 75.0305C65.0071 74.6555 65.7457 74.468 66.598 74.468C67.4503 74.468 68.1889 74.6555 68.8139 75.0305C69.4389 75.4055 69.9219 75.932 70.2628 76.6101C70.6075 77.2881 70.7798 78.0779 70.7798 78.9794C70.7798 79.8809 70.6075 80.6688 70.2628 81.343C69.9219 82.0173 69.4389 82.5419 68.8139 82.9169C68.1889 83.2919 67.4503 83.4794 66.598 83.4794ZM66.6094 81.8316C67.0715 81.8316 67.4579 81.7048 67.7685 81.451C68.0791 81.1934 68.3101 80.8487 68.4616 80.4169C68.617 79.9851 68.6946 79.504 68.6946 78.9737C68.6946 78.4396 68.617 77.9566 68.4616 77.5248C68.3101 77.0892 68.0791 76.7426 67.7685 76.4851C67.4579 76.2275 67.0715 76.0987 66.6094 76.0987C66.1359 76.0987 65.742 76.2275 65.4276 76.4851C65.117 76.7426 64.884 77.0892 64.7287 77.5248C64.5772 77.9566 64.5014 78.4396 64.5014 78.9737C64.5014 79.504 64.5772 79.9851 64.7287 80.4169C64.884 80.8487 65.117 81.1934 65.4276 81.451C65.742 81.7048 66.1359 81.8316 66.6094 81.8316ZM78.0881 79.6385V74.5816H80.1449V83.3089H78.1506V81.7578H78.0597C77.8627 82.2464 77.5388 82.646 77.0881 82.9566C76.6411 83.2673 76.09 83.4226 75.4347 83.4226C74.8627 83.4226 74.357 83.2957 73.9176 83.0419C73.482 82.7843 73.1411 82.4112 72.8949 81.9226C72.6487 81.4301 72.5256 80.8354 72.5256 80.1385V74.5816H74.5824V79.8203C74.5824 80.3733 74.7339 80.8127 75.0369 81.1385C75.34 81.4642 75.7377 81.6271 76.2301 81.6271C76.5331 81.6271 76.8267 81.5532 77.1108 81.4055C77.3949 81.2578 77.6278 81.0381 77.8097 80.7464C77.9953 80.451 78.0881 80.0816 78.0881 79.6385ZM90.6491 74.5816V76.1726H85.4901V74.5816H90.6491ZM86.7798 83.3089V73.7578C86.7798 73.1707 86.901 72.682 87.1435 72.2919C87.3897 71.9017 87.7192 71.6101 88.1321 71.4169C88.545 71.2237 89.0033 71.1271 89.5071 71.1271C89.8632 71.1271 90.1795 71.1555 90.456 71.2123C90.7325 71.2691 90.937 71.3203 91.0696 71.3657L90.6605 72.9566C90.5734 72.9301 90.4635 72.9036 90.331 72.8771C90.1984 72.8468 90.0507 72.8316 89.8878 72.8316C89.5052 72.8316 89.2344 72.9245 89.0753 73.1101C88.92 73.2919 88.8423 73.5532 88.8423 73.8941V83.3089H86.7798ZM95.7386 83.4794C94.8864 83.4794 94.1477 83.2919 93.5227 82.9169C92.8977 82.5419 92.4129 82.0173 92.0682 81.343C91.7273 80.6688 91.5568 79.8809 91.5568 78.9794C91.5568 78.0779 91.7273 77.2881 92.0682 76.6101C92.4129 75.932 92.8977 75.4055 93.5227 75.0305C94.1477 74.6555 94.8864 74.468 95.7386 74.468C96.5909 74.468 97.3295 74.6555 97.9545 75.0305C98.5795 75.4055 99.0625 75.932 99.4034 76.6101C99.7481 77.2881 99.9205 78.0779 99.9205 78.9794C99.9205 79.8809 99.7481 80.6688 99.4034 81.343C99.0625 82.0173 98.5795 82.5419 97.9545 82.9169C97.3295 83.2919 96.5909 83.4794 95.7386 83.4794ZM95.75 81.8316C96.2121 81.8316 96.5985 81.7048 96.9091 81.451C97.2197 81.1934 97.4508 80.8487 97.6023 80.4169C97.7576 79.9851 97.8352 79.504 97.8352 78.9737C97.8352 78.4396 97.7576 77.9566 97.6023 77.5248C97.4508 77.0892 97.2197 76.7426 96.9091 76.4851C96.5985 76.2275 96.2121 76.0987 95.75 76.0987C95.2765 76.0987 94.8826 76.2275 94.5682 76.4851C94.2576 76.7426 94.0246 77.0892 93.8693 77.5248C93.7178 77.9566 93.642 78.4396 93.642 78.9737C93.642 79.504 93.7178 79.9851 93.8693 80.4169C94.0246 80.8487 94.2576 81.1934 94.5682 81.451C94.8826 81.7048 95.2765 81.8316 95.75 81.8316ZM101.666 83.3089V74.5816H103.661V76.0362H103.751C103.911 75.5324 104.183 75.1441 104.57 74.8714C104.96 74.5949 105.405 74.4566 105.905 74.4566C106.018 74.4566 106.145 74.4623 106.286 74.4737C106.429 74.4813 106.549 74.4945 106.643 74.5135V76.4055C106.556 76.3752 106.418 76.3487 106.229 76.326C106.043 76.2995 105.863 76.2862 105.689 76.2862C105.314 76.2862 104.977 76.3676 104.678 76.5305C104.382 76.6896 104.149 76.9112 103.979 77.1953C103.808 77.4794 103.723 77.807 103.723 78.1782V83.3089H101.666ZM113.257 86.5816C112.977 86.5816 112.717 86.5589 112.479 86.5135C112.244 86.4718 112.056 86.4226 111.916 86.3657L112.393 84.7635C112.693 84.8506 112.96 84.8923 113.195 84.8885C113.429 84.8847 113.636 84.8108 113.814 84.6669C113.996 84.5267 114.149 84.2919 114.274 83.9623L114.45 83.4907L111.286 74.5816H113.467L115.479 81.1726H115.57L117.587 74.5816H119.774L116.28 84.3657C116.117 84.8279 115.901 85.2237 115.632 85.5532C115.363 85.8866 115.034 86.1404 114.643 86.3146C114.257 86.4926 113.795 86.5816 113.257 86.5816ZM124.707 83.4794C123.855 83.4794 123.116 83.2919 122.491 82.9169C121.866 82.5419 121.382 82.0173 121.037 81.343C120.696 80.6688 120.526 79.8809 120.526 78.9794C120.526 78.0779 120.696 77.2881 121.037 76.6101C121.382 75.932 121.866 75.4055 122.491 75.0305C123.116 74.6555 123.855 74.468 124.707 74.468C125.56 74.468 126.298 74.6555 126.923 75.0305C127.548 75.4055 128.031 75.932 128.372 76.6101C128.717 77.2881 128.889 78.0779 128.889 78.9794C128.889 79.8809 128.717 80.6688 128.372 81.343C128.031 82.0173 127.548 82.5419 126.923 82.9169C126.298 83.2919 125.56 83.4794 124.707 83.4794ZM124.719 81.8316C125.181 81.8316 125.567 81.7048 125.878 81.451C126.188 81.1934 126.42 80.8487 126.571 80.4169C126.726 79.9851 126.804 79.504 126.804 78.9737C126.804 78.4396 126.726 77.9566 126.571 77.5248C126.42 77.0892 126.188 76.7426 125.878 76.4851C125.567 76.2275 125.181 76.0987 124.719 76.0987C124.245 76.0987 123.851 76.2275 123.537 76.4851C123.226 76.7426 122.993 77.0892 122.838 77.5248C122.687 77.9566 122.611 78.4396 122.611 78.9737C122.611 79.504 122.687 79.9851 122.838 80.4169C122.993 80.8487 123.226 81.1934 123.537 81.451C123.851 81.7048 124.245 81.8316 124.719 81.8316ZM136.197 79.6385V74.5816H138.254V83.3089H136.26V81.7578H136.169C135.972 82.2464 135.648 82.646 135.197 82.9566C134.75 83.2673 134.199 83.4226 133.544 83.4226C132.972 83.4226 132.466 83.2957 132.027 83.0419C131.591 82.7843 131.25 82.4112 131.004 81.9226C130.758 81.4301 130.635 80.8354 130.635 80.1385V74.5816H132.692V79.8203C132.692 80.3733 132.843 80.8127 133.146 81.1385C133.449 81.4642 133.847 81.6271 134.339 81.6271C134.643 81.6271 134.936 81.5532 135.22 81.4055C135.504 81.2578 135.737 81.0381 135.919 80.7464C136.105 80.451 136.197 80.0816 136.197 79.6385ZM140.369 83.3089V74.5816H142.364V76.0362H142.455C142.614 75.5324 142.886 75.1441 143.273 74.8714C143.663 74.5949 144.108 74.4566 144.608 74.4566C144.722 74.4566 144.848 74.4623 144.989 74.4737C145.133 74.4813 145.252 74.4945 145.347 74.5135V76.4055C145.259 76.3752 145.121 76.3487 144.932 76.326C144.746 76.2995 144.566 76.2862 144.392 76.2862C144.017 76.2862 143.68 76.3676 143.381 76.5305C143.085 76.6896 142.852 76.9112 142.682 77.1953C142.511 77.4794 142.426 77.807 142.426 78.1782V83.3089H140.369ZM157.097 74.8714C157.044 74.3752 156.82 73.9888 156.426 73.7123C156.036 73.4358 155.528 73.2976 154.903 73.2976C154.464 73.2976 154.087 73.3638 153.773 73.4964C153.458 73.629 153.218 73.8089 153.051 74.0362C152.884 74.2635 152.799 74.5229 152.795 74.8146C152.795 75.057 152.85 75.2673 152.96 75.4453C153.074 75.6233 153.227 75.7748 153.42 75.8998C153.614 76.021 153.828 76.1233 154.062 76.2066C154.297 76.29 154.534 76.3601 154.773 76.4169L155.864 76.6896C156.303 76.7919 156.725 76.9301 157.131 77.1044C157.54 77.2786 157.905 77.4983 158.227 77.7635C158.553 78.0286 158.811 78.3487 159 78.7237C159.189 79.0987 159.284 79.5381 159.284 80.0419C159.284 80.7237 159.11 81.3241 158.761 81.843C158.413 82.3582 157.909 82.7616 157.25 83.0532C156.595 83.3411 155.801 83.4851 154.869 83.4851C153.964 83.4851 153.178 83.3449 152.511 83.0646C151.848 82.7843 151.33 82.3752 150.955 81.8373C150.583 81.2995 150.383 80.6441 150.352 79.8714H152.426C152.456 80.2767 152.581 80.6138 152.801 80.8828C153.021 81.1517 153.307 81.3525 153.659 81.4851C154.015 81.6176 154.413 81.6839 154.852 81.6839C155.311 81.6839 155.712 81.6157 156.057 81.4794C156.405 81.3392 156.678 81.146 156.875 80.8998C157.072 80.6498 157.172 80.3582 157.176 80.0248C157.172 79.7218 157.083 79.4718 156.909 79.2748C156.735 79.0741 156.491 78.9074 156.176 78.7748C155.866 78.6385 155.502 78.5173 155.085 78.4112L153.761 78.0703C152.803 77.8241 152.045 77.451 151.489 76.951C150.936 76.4472 150.659 75.7786 150.659 74.9453C150.659 74.2597 150.845 73.6593 151.216 73.1441C151.591 72.629 152.1 72.2294 152.744 71.9453C153.388 71.6574 154.117 71.5135 154.932 71.5135C155.758 71.5135 156.481 71.6574 157.102 71.9453C157.727 72.2294 158.218 72.6252 158.574 73.1328C158.93 73.6366 159.114 74.2161 159.125 74.8714H157.097ZM166.635 79.6385V74.5816H168.692V83.3089H166.697V81.7578H166.607C166.41 82.2464 166.086 82.646 165.635 82.9566C165.188 83.2673 164.637 83.4226 163.982 83.4226C163.41 83.4226 162.904 83.2957 162.464 83.0419C162.029 82.7843 161.688 82.4112 161.442 81.9226C161.196 81.4301 161.072 80.8354 161.072 80.1385V74.5816H163.129V79.8203C163.129 80.3733 163.281 80.8127 163.584 81.1385C163.887 81.4642 164.285 81.6271 164.777 81.6271C165.08 81.6271 165.374 81.5532 165.658 81.4055C165.942 81.2578 166.175 81.0381 166.357 80.7464C166.542 80.451 166.635 80.0816 166.635 79.6385ZM170.898 83.3089V71.6726H172.955V76.0248H173.04C173.146 75.8127 173.295 75.5873 173.489 75.3487C173.682 75.1063 173.943 74.8998 174.273 74.7294C174.602 74.5551 175.023 74.468 175.534 74.468C176.208 74.468 176.816 74.6404 177.358 74.9851C177.903 75.326 178.335 75.8316 178.653 76.5021C178.975 77.1688 179.136 77.987 179.136 78.9566C179.136 79.915 178.979 80.7294 178.665 81.3998C178.35 82.0703 177.922 82.5816 177.381 82.9339C176.839 83.2862 176.225 83.4623 175.54 83.4623C175.04 83.4623 174.625 83.379 174.295 83.2123C173.966 83.0457 173.701 82.8449 173.5 82.6101C173.303 82.3714 173.15 82.146 173.04 81.9339H172.92V83.3089H170.898ZM172.915 78.9453C172.915 79.5097 172.994 80.004 173.153 80.4282C173.316 80.8525 173.549 81.1839 173.852 81.4226C174.159 81.6574 174.53 81.7748 174.966 81.7748C175.42 81.7748 175.801 81.6536 176.108 81.4112C176.415 81.165 176.646 80.8298 176.801 80.4055C176.96 79.9775 177.04 79.4907 177.04 78.9453C177.04 78.4036 176.962 77.9226 176.807 77.5021C176.652 77.0816 176.42 76.7521 176.114 76.5135C175.807 76.2748 175.424 76.1555 174.966 76.1555C174.527 76.1555 174.153 76.271 173.847 76.5021C173.54 76.7332 173.307 77.057 173.148 77.4737C172.992 77.8904 172.915 78.3809 172.915 78.9453ZM180.885 83.3089V74.5816H182.851V76.0646H182.953C183.135 75.5646 183.436 75.1745 183.857 74.8941C184.277 74.6101 184.779 74.468 185.362 74.468C185.953 74.468 186.451 74.612 186.857 74.8998C187.266 75.1839 187.554 75.5722 187.72 76.0646H187.811C188.004 75.5798 188.33 75.1934 188.788 74.9055C189.25 74.6138 189.798 74.468 190.43 74.468C191.233 74.468 191.889 74.7218 192.396 75.2294C192.904 75.737 193.158 76.4775 193.158 77.451V83.3089H191.095V77.7691C191.095 77.2275 190.951 76.8316 190.663 76.5816C190.375 76.3279 190.023 76.201 189.607 76.201C189.11 76.201 188.722 76.3563 188.442 76.6669C188.165 76.9737 188.027 77.3733 188.027 77.8657V83.3089H186.01V77.6839C186.01 77.2332 185.874 76.8733 185.601 76.6044C185.332 76.3354 184.98 76.201 184.544 76.201C184.249 76.201 183.98 76.2767 183.737 76.4282C183.495 76.576 183.302 76.7862 183.158 77.0589C183.014 77.3279 182.942 77.6423 182.942 78.0021V83.3089H180.885ZM195.244 83.3089V74.5816H197.301V83.3089H195.244ZM196.278 73.343C195.953 73.343 195.672 73.2351 195.438 73.0191C195.203 72.7995 195.085 72.5362 195.085 72.2294C195.085 71.9188 195.203 71.6555 195.438 71.4396C195.672 71.2199 195.953 71.1101 196.278 71.1101C196.608 71.1101 196.888 71.2199 197.119 71.4396C197.354 71.6555 197.472 71.9188 197.472 72.2294C197.472 72.5362 197.354 72.7995 197.119 73.0191C196.888 73.2351 196.608 73.343 196.278 73.343ZM206.314 76.8885L204.439 77.093C204.386 76.9036 204.293 76.7256 204.161 76.5589C204.032 76.3923 203.857 76.2578 203.638 76.1555C203.418 76.0532 203.149 76.0021 202.831 76.0021C202.403 76.0021 202.043 76.0949 201.751 76.2805C201.464 76.4661 201.321 76.7066 201.325 77.0021C201.321 77.2559 201.414 77.4623 201.604 77.6214C201.797 77.7805 202.115 77.9112 202.558 78.0135L204.047 78.3316C204.873 78.5097 205.486 78.7919 205.888 79.1782C206.293 79.5646 206.498 80.0703 206.501 80.6953C206.498 81.2445 206.337 81.7294 206.018 82.1498C205.704 82.5665 205.267 82.8923 204.706 83.1271C204.145 83.362 203.501 83.4794 202.774 83.4794C201.706 83.4794 200.846 83.2559 200.195 82.8089C199.543 82.3582 199.155 81.7313 199.03 80.9282L201.036 80.7351C201.126 81.129 201.32 81.4263 201.615 81.6271C201.911 81.8279 202.295 81.9282 202.768 81.9282C203.257 81.9282 203.649 81.8279 203.945 81.6271C204.244 81.4263 204.393 81.1782 204.393 80.8828C204.393 80.6328 204.297 80.4263 204.104 80.2635C203.914 80.1006 203.619 79.9756 203.217 79.8885L201.729 79.576C200.892 79.4017 200.272 79.1082 199.871 78.6953C199.469 78.2786 199.27 77.7521 199.274 77.1157C199.27 76.5779 199.416 76.112 199.712 75.718C200.011 75.3203 200.426 75.0135 200.956 74.7976C201.49 74.5779 202.106 74.468 202.803 74.468C203.825 74.468 204.63 74.6858 205.217 75.1214C205.808 75.557 206.174 76.146 206.314 76.8885ZM215.095 76.8885L213.22 77.093C213.167 76.9036 213.074 76.7256 212.942 76.5589C212.813 76.3923 212.639 76.2578 212.419 76.1555C212.199 76.0532 211.93 76.0021 211.612 76.0021C211.184 76.0021 210.824 76.0949 210.533 76.2805C210.245 76.4661 210.103 76.7066 210.107 77.0021C210.103 77.2559 210.196 77.4623 210.385 77.6214C210.578 77.7805 210.896 77.9112 211.339 78.0135L212.828 78.3316C213.654 78.5097 214.268 78.7919 214.669 79.1782C215.074 79.5646 215.279 80.0703 215.283 80.6953C215.279 81.2445 215.118 81.7294 214.8 82.1498C214.485 82.5665 214.048 82.8923 213.487 83.1271C212.927 83.362 212.283 83.4794 211.555 83.4794C210.487 83.4794 209.627 83.2559 208.976 82.8089C208.324 82.3582 207.936 81.7313 207.811 80.9282L209.817 80.7351C209.908 81.129 210.101 81.4263 210.396 81.6271C210.692 81.8279 211.076 81.9282 211.55 81.9282C212.038 81.9282 212.43 81.8279 212.726 81.6271C213.025 81.4263 213.175 81.1782 213.175 80.8828C213.175 80.6328 213.078 80.4263 212.885 80.2635C212.696 80.1006 212.4 79.9756 211.999 79.8885L210.51 79.576C209.673 79.4017 209.054 79.1082 208.652 78.6953C208.25 78.2786 208.052 77.7521 208.055 77.1157C208.052 76.5779 208.197 76.112 208.493 75.718C208.792 75.3203 209.207 75.0135 209.737 74.7976C210.271 74.5779 210.887 74.468 211.584 74.468C212.607 74.468 213.411 74.6858 213.999 75.1214C214.589 75.557 214.955 76.146 215.095 76.8885ZM216.979 83.3089V74.5816H219.036V83.3089H216.979ZM218.013 73.343C217.687 73.343 217.407 73.2351 217.172 73.0191C216.937 72.7995 216.82 72.5362 216.82 72.2294C216.82 71.9188 216.937 71.6555 217.172 71.4396C217.407 71.2199 217.687 71.1101 218.013 71.1101C218.342 71.1101 218.623 71.2199 218.854 71.4396C219.089 71.6555 219.206 71.9188 219.206 72.2294C219.206 72.5362 219.089 72.7995 218.854 73.0191C218.623 73.2351 218.342 73.343 218.013 73.343ZM224.957 83.4794C224.105 83.4794 223.366 83.2919 222.741 82.9169C222.116 82.5419 221.632 82.0173 221.287 81.343C220.946 80.6688 220.776 79.8809 220.776 78.9794C220.776 78.0779 220.946 77.2881 221.287 76.6101C221.632 75.932 222.116 75.4055 222.741 75.0305C223.366 74.6555 224.105 74.468 224.957 74.468C225.81 74.468 226.548 74.6555 227.173 75.0305C227.798 75.4055 228.281 75.932 228.622 76.6101C228.967 77.2881 229.139 78.0779 229.139 78.9794C229.139 79.8809 228.967 80.6688 228.622 81.343C228.281 82.0173 227.798 82.5419 227.173 82.9169C226.548 83.2919 225.81 83.4794 224.957 83.4794ZM224.969 81.8316C225.431 81.8316 225.817 81.7048 226.128 81.451C226.438 81.1934 226.67 80.8487 226.821 80.4169C226.976 79.9851 227.054 79.504 227.054 78.9737C227.054 78.4396 226.976 77.9566 226.821 77.5248C226.67 77.0892 226.438 76.7426 226.128 76.4851C225.817 76.2275 225.431 76.0987 224.969 76.0987C224.495 76.0987 224.101 76.2275 223.787 76.4851C223.476 76.7426 223.243 77.0892 223.088 77.5248C222.937 77.9566 222.861 78.4396 222.861 78.9737C222.861 79.504 222.937 79.9851 223.088 80.4169C223.243 80.8487 223.476 81.1934 223.787 81.451C224.101 81.7048 224.495 81.8316 224.969 81.8316ZM232.942 78.1953V83.3089H230.885V74.5816H232.851V76.0646H232.953C233.154 75.576 233.474 75.1877 233.913 74.8998C234.357 74.612 234.904 74.468 235.555 74.468C236.158 74.468 236.682 74.5968 237.129 74.8544C237.58 75.112 237.929 75.4851 238.175 75.9737C238.425 76.4623 238.548 77.0551 238.544 77.7521V83.3089H236.487V78.0703C236.487 77.487 236.336 77.0305 236.033 76.701C235.733 76.3714 235.319 76.2066 234.788 76.2066C234.429 76.2066 234.108 76.2862 233.828 76.4453C233.552 76.6006 233.334 76.826 233.175 77.1214C233.019 77.4169 232.942 77.7748 232.942 78.1953Z" fill="#F7F8F9"/>
</svg>
