<svg width="610" height="213" viewBox="0 0 610 213" fill="none" xmlns="http://www.w3.org/2000/svg">
<g filter="url(#filter0_dd_200_692)">
<rect x="12" width="586" height="189" fill="#0C131F"/>
</g>
<path d="M323.826 43.0739C315.262 42.8091 307.107 40.3604 299.319 37.6743C291.531 34.9882 283.817 32.0185 275.459 30.5981C270.084 29.6851 263.936 29.555 259.605 32.1121C255.436 34.5716 254.089 38.819 253.365 42.7606C252.821 45.7246 252.5 48.8449 253.993 51.6206C255.03 53.5483 256.869 55.1684 258.142 57.0133C262.57 63.4372 259.44 71.3568 254.642 77.6341C252.393 80.5764 249.78 83.3823 248.043 86.5146C246.306 89.647 245.502 93.2347 247.022 96.4264C248.528 99.593 252.118 101.971 256.006 103.644C263.904 107.035 273.207 108.013 282.284 108.564C302.373 109.786 322.568 109.256 342.709 108.727C350.164 108.532 357.65 108.334 364.983 107.311C369.055 106.743 373.259 105.843 376.215 103.667C379.968 100.905 380.898 96.2284 378.383 92.7674C374.165 86.9598 362.505 85.516 359.553 79.2827C357.931 75.8519 359.597 72.0302 361.956 68.8476C367.016 62.0209 375.495 56.0318 375.941 48.2269C376.248 42.8684 372.172 37.4985 365.868 34.966C359.261 32.3067 350.099 32.6422 345.227 37.0414C340.206 41.5628 331.387 43.3061 323.826 43.0739Z" fill="#202A3B"/>
<path d="M381.277 33.2415C380.653 33.2322 380.058 33.1463 379.49 33.052C378.922 32.9578 378.36 32.8536 377.75 32.8038C377.358 32.7717 376.91 32.7672 376.594 32.8569C376.29 32.9432 376.192 33.0922 376.139 33.2305C376.1 33.3345 376.076 33.444 376.185 33.5414C376.261 33.609 376.395 33.6659 376.488 33.7306C376.81 33.956 376.582 34.2339 376.232 34.4541C376.068 34.5574 375.878 34.6558 375.751 34.7657C375.624 34.8757 375.566 35.0015 375.677 35.1135C375.787 35.2246 376.048 35.3081 376.332 35.3668C376.908 35.4858 377.586 35.5201 378.248 35.5394C379.713 35.5823 381.185 35.5637 382.654 35.5451C383.197 35.5383 383.743 35.5313 384.278 35.4954C384.575 35.4755 384.881 35.4439 385.097 35.3676C385.371 35.2707 385.439 35.1066 385.255 34.9851C384.948 34.7814 384.097 34.7307 383.882 34.512C383.764 34.3916 383.885 34.2575 384.057 34.1459C384.426 33.9063 385.045 33.6962 385.077 33.4223C385.099 33.2343 384.802 33.0459 384.343 32.957C383.861 32.8637 383.193 32.8755 382.838 33.0298C382.471 33.1885 381.828 33.2497 381.277 33.2415Z" fill="#202A3B"/>
<path d="M384.379 100.257C382.952 100.243 381.592 100.115 380.294 99.9732C378.996 99.8318 377.711 99.6755 376.318 99.6008C375.422 99.5527 374.397 99.5459 373.675 99.6804C372.981 99.8099 372.756 100.033 372.635 100.241C372.545 100.397 372.491 100.561 372.74 100.707C372.913 100.809 373.219 100.894 373.432 100.991C374.17 101.329 373.648 101.746 372.848 102.076C372.473 102.231 372.038 102.379 371.748 102.544C371.459 102.709 371.325 102.897 371.578 103.065C371.829 103.232 372.427 103.357 373.076 103.445C374.392 103.624 375.942 103.675 377.455 103.704C380.803 103.769 384.169 103.741 387.526 103.713C388.769 103.703 390.016 103.692 391.238 103.638C391.917 103.608 392.618 103.561 393.11 103.446C393.736 103.301 393.891 103.055 393.472 102.873C392.769 102.567 390.825 102.491 390.333 102.163C390.063 101.983 390.341 101.781 390.734 101.614C391.577 101.255 392.99 100.939 393.065 100.529C393.116 100.247 392.436 99.9639 391.386 99.8306C390.285 99.6907 388.758 99.7083 387.946 99.9399C387.109 100.178 385.639 100.27 384.379 100.257Z" fill="#202A3B"/>
<path d="M229.934 101.649C228.507 101.635 227.148 101.506 225.85 101.365C224.552 101.223 223.266 101.067 221.873 100.992C220.978 100.944 219.953 100.937 219.231 101.072C218.536 101.201 218.312 101.425 218.191 101.632C218.1 101.788 218.047 101.952 218.296 102.099C218.469 102.2 218.775 102.285 218.987 102.382C219.725 102.72 219.203 103.137 218.404 103.468C218.029 103.623 217.593 103.77 217.304 103.935C217.014 104.1 216.881 104.289 217.134 104.457C217.385 104.623 217.983 104.749 218.631 104.837C219.948 105.015 221.498 105.067 223.011 105.096C226.359 105.16 229.725 105.132 233.082 105.104C234.324 105.094 235.572 105.083 236.794 105.03C237.473 105 238.173 104.952 238.666 104.838C239.292 104.692 239.447 104.446 239.027 104.264C238.324 103.959 236.381 103.883 235.889 103.554C235.619 103.374 235.896 103.173 236.29 103.005C237.133 102.646 238.546 102.331 238.62 101.92C238.672 101.638 237.992 101.355 236.941 101.222C235.84 101.082 234.313 101.1 233.501 101.331C232.665 101.569 231.195 101.661 229.934 101.649Z" fill="#202A3B"/>
<path d="M259.153 66.8641C257.726 66.8502 256.367 66.7213 255.069 66.5799C253.771 66.4386 252.485 66.2823 251.092 66.2075C250.196 66.1595 249.172 66.1526 248.45 66.2872C247.755 66.4166 247.53 66.6402 247.41 66.8476C247.319 67.0036 247.266 67.1679 247.514 67.314C247.687 67.4154 247.994 67.5007 248.206 67.5978C248.944 67.9359 248.422 68.3527 247.623 68.6831C247.248 68.8379 246.812 68.9856 246.523 69.1505C246.233 69.3153 246.099 69.5042 246.353 69.6722C246.604 69.8388 247.202 69.964 247.85 70.052C249.166 70.2305 250.717 70.282 252.23 70.311C255.578 70.3753 258.944 70.3474 262.301 70.3195C263.543 70.3093 264.791 70.2989 266.013 70.245C266.691 70.2151 267.392 70.1678 267.885 70.0532C268.51 69.9079 268.665 69.6617 268.246 69.4796C267.543 69.1739 265.6 69.0979 265.108 68.7699C264.837 68.5893 265.115 68.3881 265.508 68.2206C266.352 67.8613 267.765 67.5461 267.839 67.1353C267.89 66.8533 267.211 66.5707 266.16 66.4374C265.059 66.2974 263.532 66.3151 262.72 66.5466C261.883 66.7846 260.414 66.8763 259.153 66.8641Z" fill="#202A3B"/>
<path d="M310.381 87.5148C310.055 87.5177 309.733 87.4494 309.436 87.3146C309.14 87.1799 308.876 86.982 308.664 86.7348L296.882 73.9391C296.483 73.4815 296.28 72.886 296.315 72.2803C296.351 71.6745 296.622 71.1068 297.071 70.6987C297.52 70.2906 298.111 70.0747 298.718 70.0972C299.324 70.1197 299.897 70.3788 300.315 70.819L310.459 81.8182L338.547 53.8085C338.761 53.5912 339.017 53.4185 339.298 53.3003C339.58 53.1822 339.882 53.1209 340.188 53.1199C340.493 53.119 340.796 53.1785 341.078 53.295C341.361 53.4115 341.617 53.5826 341.833 53.7986C342.049 54.0146 342.22 54.2712 342.337 54.5536C342.453 54.836 342.513 55.1386 342.512 55.4441C342.511 55.7495 342.45 56.0518 342.332 56.3335C342.213 56.6152 342.041 56.8707 341.823 57.0854L312.02 86.8116C311.814 87.0407 311.561 87.2222 311.278 87.3436C310.995 87.4651 310.689 87.5235 310.381 87.5148Z" fill="#21A365"/>
<path d="M312.566 107.41C304.331 107.41 296.432 104.139 290.609 98.3153C284.785 92.4918 281.514 84.5935 281.514 76.3579C281.514 68.1223 284.785 60.224 290.609 54.4005C296.432 48.577 304.331 45.3054 312.566 45.3054C312.875 45.2998 313.182 45.3564 313.468 45.472C313.755 45.5876 314.015 45.7598 314.234 45.9783C314.452 46.1968 314.624 46.457 314.74 46.7436C314.856 47.0301 314.912 47.337 314.907 47.6459C314.912 47.9548 314.856 48.2617 314.74 48.5482C314.624 48.8347 314.452 49.0949 314.234 49.3134C314.015 49.5319 313.755 49.704 313.468 49.8197C313.182 49.9353 312.875 49.992 312.566 49.9864C307.35 49.9864 302.252 51.533 297.915 54.4307C293.578 57.3284 290.198 61.447 288.202 66.2657C286.206 71.0844 285.684 76.3867 286.702 81.5022C287.719 86.6177 290.231 91.3165 293.919 95.0046C297.607 98.6926 302.306 101.204 307.421 102.222C312.537 103.239 317.839 102.717 322.658 100.721C327.477 98.7251 331.595 95.3451 334.493 91.0084C337.391 86.6717 338.937 81.5731 338.937 76.3574C338.937 75.7367 339.184 75.1414 339.623 74.7025C340.062 74.2635 340.657 74.017 341.278 74.017C341.898 74.017 342.494 74.2635 342.933 74.7025C343.372 75.1414 343.618 75.7367 343.618 76.3574C343.597 84.5865 340.319 92.4724 334.5 98.2914C328.681 104.11 320.795 107.389 312.566 107.41Z" fill="#21A365"/>
<path d="M255.307 139.972V137.764H266.912V139.972H262.417V152.309H259.803V139.972H255.307ZM271.607 145.917V152.309H269.036V137.764H271.55V143.254H271.678C271.934 142.638 272.329 142.153 272.864 141.798C273.404 141.438 274.09 141.258 274.924 141.258C275.681 141.258 276.342 141.416 276.905 141.734C277.469 142.051 277.904 142.515 278.212 143.126C278.525 143.737 278.681 144.482 278.681 145.363V152.309H276.11V145.761C276.11 145.027 275.92 144.456 275.542 144.049C275.167 143.637 274.642 143.431 273.965 143.431C273.51 143.431 273.103 143.531 272.743 143.729C272.388 143.924 272.109 144.205 271.905 144.575C271.706 144.944 271.607 145.391 271.607 145.917ZM284.441 152.529C283.749 152.529 283.127 152.406 282.573 152.16C282.024 151.909 281.588 151.54 281.266 151.052C280.949 150.564 280.79 149.963 280.79 149.248C280.79 148.632 280.904 148.123 281.131 147.721C281.358 147.318 281.668 146.996 282.061 146.755C282.454 146.514 282.897 146.331 283.39 146.208C283.887 146.08 284.4 145.988 284.931 145.931C285.57 145.865 286.088 145.806 286.486 145.754C286.884 145.697 287.173 145.612 287.353 145.498C287.537 145.38 287.63 145.197 287.63 144.951V144.908C287.63 144.373 287.471 143.959 287.154 143.665C286.837 143.372 286.38 143.225 285.783 143.225C285.153 143.225 284.654 143.362 284.284 143.637C283.92 143.912 283.674 144.236 283.546 144.61L281.145 144.269C281.335 143.606 281.647 143.052 282.083 142.607C282.518 142.157 283.051 141.821 283.681 141.599C284.31 141.371 285.007 141.258 285.769 141.258C286.294 141.258 286.818 141.319 287.338 141.442C287.859 141.566 288.335 141.769 288.766 142.053C289.197 142.333 289.542 142.714 289.803 143.197C290.068 143.68 290.201 144.283 290.201 145.008V152.309H287.729V150.81H287.644C287.488 151.113 287.267 151.398 286.983 151.663C286.704 151.923 286.351 152.134 285.925 152.295C285.504 152.451 285.009 152.529 284.441 152.529ZM285.108 150.64C285.624 150.64 286.072 150.538 286.451 150.335C286.829 150.126 287.121 149.852 287.324 149.511C287.533 149.17 287.637 148.798 287.637 148.396V147.11C287.556 147.176 287.419 147.238 287.225 147.295C287.035 147.352 286.822 147.401 286.586 147.444C286.349 147.487 286.114 147.524 285.882 147.558C285.65 147.591 285.449 147.619 285.279 147.643C284.895 147.695 284.552 147.78 284.249 147.898C283.946 148.017 283.707 148.183 283.532 148.396C283.356 148.604 283.269 148.874 283.269 149.205C283.269 149.679 283.442 150.036 283.787 150.278C284.133 150.519 284.573 150.64 285.108 150.64ZM295.357 145.917V152.309H292.786V141.4H295.243V143.254H295.371C295.622 142.643 296.022 142.157 296.571 141.798C297.125 141.438 297.81 141.258 298.624 141.258C299.377 141.258 300.033 141.419 300.591 141.741C301.155 142.063 301.59 142.529 301.898 143.14C302.211 143.751 302.364 144.492 302.36 145.363V152.309H299.789V145.761C299.789 145.031 299.599 144.461 299.221 144.049C298.846 143.637 298.328 143.431 297.665 143.431C297.215 143.431 296.815 143.531 296.465 143.729C296.119 143.924 295.847 144.205 295.648 144.575C295.454 144.944 295.357 145.391 295.357 145.917ZM307.317 148.886L307.31 145.782H307.722L311.642 141.4H314.647L309.824 146.769H309.292L307.317 148.886ZM304.973 152.309V137.764H307.544V152.309H304.973ZM311.82 152.309L308.269 147.344L310.002 145.533L314.895 152.309H311.82ZM322.919 156.4C322.569 156.4 322.244 156.371 321.946 156.315C321.652 156.263 321.418 156.201 321.243 156.13L321.839 154.127C322.214 154.236 322.547 154.288 322.841 154.283C323.134 154.279 323.393 154.186 323.615 154.006C323.842 153.831 324.034 153.538 324.19 153.126L324.411 152.536L320.455 141.4H323.182L325.696 149.639H325.81L328.331 141.4H331.065L326.697 153.63C326.494 154.208 326.224 154.702 325.888 155.114C325.552 155.531 325.14 155.848 324.652 156.066C324.169 156.289 323.591 156.4 322.919 156.4ZM337.232 152.522C336.167 152.522 335.243 152.288 334.462 151.819C333.681 151.35 333.075 150.694 332.644 149.852C332.218 149.009 332.005 148.024 332.005 146.897C332.005 145.77 332.218 144.783 332.644 143.935C333.075 143.088 333.681 142.43 334.462 141.961C335.243 141.492 336.167 141.258 337.232 141.258C338.297 141.258 339.221 141.492 340.002 141.961C340.783 142.43 341.387 143.088 341.813 143.935C342.244 144.783 342.459 145.77 342.459 146.897C342.459 148.024 342.244 149.009 341.813 149.852C341.387 150.694 340.783 151.35 340.002 151.819C339.221 152.288 338.297 152.522 337.232 152.522ZM337.246 150.462C337.824 150.462 338.307 150.304 338.695 149.987C339.083 149.665 339.372 149.234 339.561 148.694C339.756 148.154 339.853 147.553 339.853 146.89C339.853 146.222 339.756 145.619 339.561 145.079C339.372 144.534 339.083 144.101 338.695 143.779C338.307 143.457 337.824 143.296 337.246 143.296C336.654 143.296 336.162 143.457 335.769 143.779C335.381 144.101 335.089 144.534 334.895 145.079C334.706 145.619 334.611 146.222 334.611 146.89C334.611 147.553 334.706 148.154 334.895 148.694C335.089 149.234 335.381 149.665 335.769 149.987C336.162 150.304 336.654 150.462 337.246 150.462ZM351.594 147.721V141.4H354.165V152.309H351.673V150.37H351.559C351.313 150.981 350.908 151.48 350.344 151.869C349.786 152.257 349.097 152.451 348.278 152.451C347.563 152.451 346.931 152.292 346.381 151.975C345.837 151.653 345.411 151.187 345.103 150.576C344.795 149.96 344.641 149.217 344.641 148.346V141.4H347.212V147.948C347.212 148.639 347.402 149.189 347.781 149.596C348.159 150.003 348.656 150.207 349.272 150.207C349.651 150.207 350.018 150.114 350.373 149.93C350.728 149.745 351.019 149.47 351.246 149.106C351.478 148.737 351.594 148.275 351.594 147.721Z" fill="#F7F8F9"/>
<path d="M188.108 159.127H189.52L192.344 163.88H192.463L195.287 159.127H196.699L193.02 165.113V169.309H191.787V165.113L188.108 159.127ZM200.157 169.468C199.467 169.468 198.862 169.304 198.342 168.976C197.825 168.648 197.421 168.189 197.129 167.599C196.841 167.009 196.696 166.319 196.696 165.531C196.696 164.735 196.841 164.041 197.129 163.447C197.421 162.854 197.825 162.393 198.342 162.065C198.862 161.737 199.467 161.573 200.157 161.573C200.846 161.573 201.449 161.737 201.966 162.065C202.487 162.393 202.891 162.854 203.179 163.447C203.471 164.041 203.617 164.735 203.617 165.531C203.617 166.319 203.471 167.009 203.179 167.599C202.891 168.189 202.487 168.648 201.966 168.976C201.449 169.304 200.846 169.468 200.157 169.468ZM200.157 168.414C200.68 168.414 201.111 168.28 201.449 168.011C201.787 167.743 202.038 167.39 202.2 166.952C202.362 166.515 202.444 166.041 202.444 165.531C202.444 165.02 202.362 164.545 202.2 164.104C202.038 163.663 201.787 163.307 201.449 163.035C201.111 162.763 200.68 162.627 200.157 162.627C199.633 162.627 199.202 162.763 198.864 163.035C198.526 163.307 198.276 163.663 198.113 164.104C197.951 164.545 197.87 165.02 197.87 165.531C197.87 166.041 197.951 166.515 198.113 166.952C198.276 167.39 198.526 167.743 198.864 168.011C199.202 168.28 199.633 168.414 200.157 168.414ZM210.22 166.187V161.673H211.394V169.309H210.22V168.016H210.141C209.962 168.404 209.683 168.734 209.306 169.006C208.928 169.274 208.45 169.408 207.874 169.408C207.396 169.408 206.972 169.304 206.601 169.095C206.23 168.883 205.938 168.565 205.726 168.141C205.514 167.713 205.408 167.174 205.408 166.525V161.673H206.581V166.445C206.581 167.002 206.737 167.446 207.048 167.778C207.363 168.109 207.764 168.275 208.252 168.275C208.543 168.275 208.84 168.2 209.142 168.051C209.446 167.902 209.702 167.673 209.907 167.365C210.116 167.057 210.22 166.664 210.22 166.187ZM213.543 169.309V161.673H214.676V162.826H214.756C214.895 162.448 215.147 162.142 215.511 161.906C215.876 161.671 216.287 161.553 216.744 161.553C216.83 161.553 216.938 161.555 217.067 161.558C217.197 161.562 217.295 161.567 217.361 161.573V162.766C217.321 162.756 217.23 162.741 217.087 162.722C216.948 162.698 216.801 162.687 216.645 162.687C216.274 162.687 215.942 162.765 215.651 162.92C215.362 163.073 215.134 163.285 214.964 163.557C214.799 163.825 214.716 164.132 214.716 164.477V169.309H213.543ZM226.09 161.673V162.667H221.973V161.673H226.09ZM223.206 169.309V160.619C223.206 160.181 223.309 159.817 223.514 159.525C223.72 159.233 223.987 159.014 224.315 158.869C224.643 158.723 224.989 158.65 225.354 158.65C225.642 158.65 225.878 158.673 226.06 158.719C226.242 158.766 226.378 158.809 226.468 158.849L226.129 159.863C226.07 159.843 225.987 159.818 225.881 159.788C225.778 159.759 225.642 159.744 225.473 159.744C225.085 159.744 224.805 159.841 224.633 160.037C224.464 160.232 224.379 160.519 224.379 160.897V169.309H223.206ZM230.621 169.468C229.885 169.468 229.251 169.306 228.717 168.981C228.187 168.653 227.778 168.195 227.489 167.609C227.204 167.019 227.062 166.333 227.062 165.55C227.062 164.768 227.204 164.079 227.489 163.482C227.778 162.882 228.179 162.415 228.692 162.08C229.209 161.742 229.813 161.573 230.502 161.573C230.9 161.573 231.292 161.639 231.68 161.772C232.068 161.905 232.421 162.12 232.739 162.418C233.057 162.713 233.311 163.104 233.5 163.592C233.689 164.079 233.783 164.679 233.783 165.391V165.889H227.897V164.874H232.59C232.59 164.443 232.504 164.059 232.331 163.721C232.162 163.383 231.921 163.116 231.606 162.92C231.294 162.725 230.926 162.627 230.502 162.627C230.035 162.627 229.63 162.743 229.289 162.975C228.951 163.204 228.691 163.502 228.508 163.87C228.326 164.238 228.235 164.632 228.235 165.053V165.729C228.235 166.306 228.334 166.795 228.533 167.196C228.735 167.594 229.015 167.897 229.373 168.106C229.731 168.311 230.147 168.414 230.621 168.414C230.93 168.414 231.208 168.371 231.456 168.285C231.708 168.195 231.925 168.063 232.108 167.887C232.29 167.708 232.431 167.486 232.53 167.221L233.664 167.539C233.545 167.924 233.344 168.262 233.062 168.553C232.781 168.842 232.433 169.067 232.018 169.229C231.604 169.389 231.138 169.468 230.621 169.468ZM238.77 169.468C238.034 169.468 237.399 169.306 236.866 168.981C236.335 168.653 235.926 168.195 235.638 167.609C235.353 167.019 235.21 166.333 235.21 165.55C235.21 164.768 235.353 164.079 235.638 163.482C235.926 162.882 236.327 162.415 236.841 162.08C237.358 161.742 237.961 161.573 238.65 161.573C239.048 161.573 239.441 161.639 239.829 161.772C240.216 161.905 240.569 162.12 240.888 162.418C241.206 162.713 241.459 163.104 241.648 163.592C241.837 164.079 241.932 164.679 241.932 165.391V165.889H236.045V164.874H240.738C240.738 164.443 240.652 164.059 240.48 163.721C240.311 163.383 240.069 163.116 239.754 162.92C239.443 162.725 239.075 162.627 238.65 162.627C238.183 162.627 237.779 162.743 237.437 162.975C237.099 163.204 236.839 163.502 236.657 163.87C236.474 164.238 236.383 164.632 236.383 165.053V165.729C236.383 166.306 236.483 166.795 236.682 167.196C236.884 167.594 237.164 167.897 237.522 168.106C237.88 168.311 238.296 168.414 238.77 168.414C239.078 168.414 239.356 168.371 239.605 168.285C239.857 168.195 240.074 168.063 240.256 167.887C240.439 167.708 240.579 167.486 240.679 167.221L241.812 167.539C241.693 167.924 241.492 168.262 241.211 168.553C240.929 168.842 240.581 169.067 240.167 169.229C239.752 169.389 239.287 169.468 238.77 169.468ZM246.6 169.468C245.964 169.468 245.402 169.307 244.915 168.986C244.427 168.661 244.046 168.204 243.771 167.614C243.496 167.02 243.358 166.319 243.358 165.511C243.358 164.709 243.496 164.013 243.771 163.423C244.046 162.833 244.429 162.377 244.92 162.055C245.41 161.734 245.977 161.573 246.62 161.573C247.117 161.573 247.51 161.656 247.798 161.822C248.09 161.984 248.312 162.17 248.464 162.379C248.62 162.584 248.741 162.753 248.827 162.886H248.927V159.127H250.1V169.309H248.966V168.136H248.827C248.741 168.275 248.618 168.451 248.459 168.663C248.3 168.871 248.073 169.059 247.778 169.224C247.483 169.387 247.09 169.468 246.6 169.468ZM246.759 168.414C247.23 168.414 247.627 168.291 247.952 168.046C248.277 167.798 248.524 167.455 248.693 167.017C248.862 166.576 248.947 166.067 248.947 165.491C248.947 164.921 248.864 164.422 248.698 163.994C248.532 163.563 248.287 163.229 247.962 162.99C247.637 162.748 247.236 162.627 246.759 162.627C246.262 162.627 245.848 162.755 245.516 163.01C245.188 163.262 244.941 163.605 244.775 164.039C244.613 164.47 244.532 164.954 244.532 165.491C244.532 166.034 244.615 166.528 244.78 166.972C244.949 167.413 245.198 167.764 245.526 168.026C245.858 168.285 246.269 168.414 246.759 168.414ZM252.571 169.309V159.127H253.744V162.886H253.844C253.93 162.753 254.049 162.584 254.202 162.379C254.357 162.17 254.579 161.984 254.868 161.822C255.159 161.656 255.554 161.573 256.051 161.573C256.694 161.573 257.261 161.734 257.751 162.055C258.242 162.377 258.625 162.833 258.9 163.423C259.175 164.013 259.312 164.709 259.312 165.511C259.312 166.319 259.175 167.02 258.9 167.614C258.625 168.204 258.243 168.661 257.756 168.986C257.269 169.307 256.707 169.468 256.071 169.468C255.58 169.468 255.188 169.387 254.893 169.224C254.598 169.059 254.371 168.871 254.211 168.663C254.052 168.451 253.93 168.275 253.844 168.136H253.704V169.309H252.571ZM253.724 165.491C253.724 166.067 253.809 166.576 253.978 167.017C254.147 167.455 254.394 167.798 254.719 168.046C255.043 168.291 255.441 168.414 255.912 168.414C256.402 168.414 256.812 168.285 257.14 168.026C257.471 167.764 257.72 167.413 257.885 166.972C258.055 166.528 258.139 166.034 258.139 165.491C258.139 164.954 258.056 164.47 257.89 164.039C257.728 163.605 257.481 163.262 257.15 163.01C256.822 162.755 256.409 162.627 255.912 162.627C255.434 162.627 255.033 162.748 254.709 162.99C254.384 163.229 254.139 163.563 253.973 163.994C253.807 164.422 253.724 164.921 253.724 165.491ZM263.354 169.488C262.87 169.488 262.431 169.397 262.037 169.214C261.642 169.029 261.329 168.762 261.097 168.414C260.865 168.063 260.749 167.639 260.749 167.141C260.749 166.704 260.835 166.349 261.008 166.077C261.18 165.802 261.41 165.587 261.699 165.431C261.987 165.275 262.305 165.159 262.653 165.083C263.005 165.004 263.358 164.941 263.712 164.894C264.176 164.835 264.552 164.79 264.841 164.76C265.132 164.727 265.345 164.672 265.477 164.596C265.613 164.52 265.681 164.387 265.681 164.198V164.158C265.681 163.668 265.547 163.287 265.278 163.015C265.013 162.743 264.61 162.607 264.07 162.607C263.51 162.607 263.071 162.73 262.753 162.975C262.434 163.22 262.211 163.482 262.081 163.761L260.968 163.363C261.167 162.899 261.432 162.538 261.763 162.279C262.098 162.017 262.463 161.835 262.857 161.732C263.255 161.626 263.646 161.573 264.03 161.573C264.276 161.573 264.557 161.603 264.876 161.663C265.197 161.719 265.507 161.837 265.805 162.016C266.107 162.195 266.357 162.465 266.556 162.826C266.755 163.187 266.854 163.671 266.854 164.278V169.309H265.681V168.275H265.621C265.542 168.441 265.409 168.618 265.224 168.807C265.038 168.996 264.791 169.156 264.483 169.289C264.175 169.422 263.798 169.488 263.354 169.488ZM263.533 168.434C263.997 168.434 264.388 168.343 264.706 168.161C265.028 167.978 265.27 167.743 265.432 167.455C265.598 167.166 265.681 166.863 265.681 166.545V165.471C265.631 165.531 265.522 165.585 265.353 165.635C265.187 165.681 264.995 165.723 264.776 165.759C264.561 165.792 264.35 165.822 264.145 165.849C263.943 165.872 263.778 165.892 263.653 165.908C263.348 165.948 263.063 166.013 262.797 166.102C262.536 166.188 262.323 166.319 262.161 166.495C262.002 166.667 261.922 166.903 261.922 167.201C261.922 167.609 262.073 167.917 262.375 168.126C262.68 168.331 263.066 168.434 263.533 168.434ZM272.098 169.468C271.382 169.468 270.766 169.299 270.249 168.961C269.732 168.623 269.334 168.157 269.055 167.564C268.777 166.971 268.638 166.293 268.638 165.531C268.638 164.755 268.78 164.071 269.065 163.477C269.354 162.881 269.755 162.415 270.268 162.08C270.786 161.742 271.389 161.573 272.078 161.573C272.615 161.573 273.099 161.673 273.53 161.871C273.961 162.07 274.314 162.349 274.589 162.707C274.864 163.065 275.035 163.482 275.101 163.96H273.928C273.838 163.612 273.639 163.303 273.331 163.035C273.026 162.763 272.615 162.627 272.098 162.627C271.641 162.627 271.24 162.746 270.895 162.985C270.554 163.22 270.287 163.554 270.094 163.984C269.906 164.412 269.811 164.914 269.811 165.491C269.811 166.081 269.904 166.594 270.089 167.032C270.278 167.469 270.544 167.809 270.885 168.051C271.23 168.293 271.634 168.414 272.098 168.414C272.403 168.414 272.68 168.361 272.928 168.255C273.177 168.149 273.387 167.996 273.56 167.798C273.732 167.599 273.855 167.36 273.928 167.082H275.101C275.035 167.532 274.871 167.938 274.609 168.3C274.35 168.658 274.007 168.943 273.58 169.155C273.155 169.364 272.661 169.468 272.098 169.468ZM277.91 166.525L277.89 165.073H278.129L281.469 161.673H282.921L279.362 165.272H279.262L277.91 166.525ZM276.816 169.309V159.127H277.989V169.309H276.816ZM281.668 169.309L278.685 165.531L279.521 164.715L283.16 169.309H281.668ZM289.542 164.715V169.309H288.369V159.127H289.542V162.866H289.642C289.82 162.471 290.089 162.158 290.447 161.926C290.808 161.691 291.289 161.573 291.889 161.573C292.409 161.573 292.865 161.678 293.256 161.886C293.647 162.092 293.95 162.408 294.166 162.836C294.384 163.26 294.494 163.8 294.494 164.457V169.309H293.32V164.536C293.32 163.93 293.163 163.461 292.848 163.129C292.537 162.795 292.104 162.627 291.551 162.627C291.166 162.627 290.821 162.708 290.517 162.871C290.215 163.033 289.976 163.27 289.801 163.582C289.628 163.893 289.542 164.271 289.542 164.715ZM298.887 169.488C298.404 169.488 297.964 169.397 297.57 169.214C297.176 169.029 296.862 168.762 296.63 168.414C296.398 168.063 296.282 167.639 296.282 167.141C296.282 166.704 296.368 166.349 296.541 166.077C296.713 165.802 296.944 165.587 297.232 165.431C297.52 165.275 297.838 165.159 298.186 165.083C298.538 165.004 298.891 164.941 299.245 164.894C299.709 164.835 300.086 164.79 300.374 164.76C300.666 164.727 300.878 164.672 301.01 164.596C301.146 164.52 301.214 164.387 301.214 164.198V164.158C301.214 163.668 301.08 163.287 300.811 163.015C300.546 162.743 300.144 162.607 299.603 162.607C299.043 162.607 298.604 162.73 298.286 162.975C297.968 163.22 297.744 163.482 297.615 163.761L296.501 163.363C296.7 162.899 296.965 162.538 297.297 162.279C297.631 162.017 297.996 161.835 298.39 161.732C298.788 161.626 299.179 161.573 299.564 161.573C299.809 161.573 300.091 161.603 300.409 161.663C300.73 161.719 301.04 161.837 301.338 162.016C301.64 162.195 301.89 162.465 302.089 162.826C302.288 163.187 302.387 163.671 302.387 164.278V169.309H301.214V168.275H301.154C301.075 168.441 300.942 168.618 300.757 168.807C300.571 168.996 300.324 169.156 300.016 169.289C299.708 169.422 299.332 169.488 298.887 169.488ZM299.066 168.434C299.53 168.434 299.922 168.343 300.24 168.161C300.561 167.978 300.803 167.743 300.966 167.455C301.131 167.166 301.214 166.863 301.214 166.545V165.471C301.164 165.531 301.055 165.585 300.886 165.635C300.72 165.681 300.528 165.723 300.309 165.759C300.094 165.792 299.883 165.822 299.678 165.849C299.476 165.872 299.312 165.892 299.186 165.908C298.881 165.948 298.596 166.013 298.331 166.102C298.069 166.188 297.857 166.319 297.694 166.495C297.535 166.667 297.456 166.903 297.456 167.201C297.456 167.609 297.606 167.917 297.908 168.126C298.213 168.331 298.599 168.434 299.066 168.434ZM309.938 163.383L308.884 163.681C308.818 163.505 308.72 163.335 308.591 163.169C308.465 163 308.292 162.861 308.074 162.751C307.855 162.642 307.575 162.587 307.233 162.587C306.766 162.587 306.377 162.695 306.065 162.911C305.757 163.123 305.603 163.393 305.603 163.721C305.603 164.013 305.709 164.243 305.921 164.412C306.133 164.581 306.465 164.722 306.915 164.835L308.049 165.113C308.732 165.279 309.24 165.532 309.575 165.874C309.91 166.212 310.077 166.648 310.077 167.181C310.077 167.619 309.951 168.01 309.699 168.354C309.451 168.699 309.103 168.971 308.655 169.17C308.208 169.369 307.688 169.468 307.094 169.468C306.315 169.468 305.671 169.299 305.16 168.961C304.65 168.623 304.327 168.129 304.191 167.479L305.305 167.201C305.411 167.612 305.611 167.92 305.906 168.126C306.204 168.331 306.594 168.434 307.074 168.434C307.621 168.434 308.055 168.318 308.377 168.086C308.702 167.851 308.864 167.569 308.864 167.241C308.864 166.976 308.771 166.754 308.586 166.575C308.4 166.392 308.115 166.256 307.731 166.167L306.458 165.869C305.759 165.703 305.245 165.446 304.917 165.098C304.592 164.747 304.43 164.308 304.43 163.781C304.43 163.35 304.55 162.969 304.792 162.637C305.038 162.306 305.371 162.045 305.792 161.857C306.216 161.668 306.697 161.573 307.233 161.573C307.989 161.573 308.582 161.739 309.013 162.07C309.448 162.402 309.756 162.839 309.938 163.383ZM315.94 169.309V159.127H317.113V162.886H317.213C317.299 162.753 317.418 162.584 317.571 162.379C317.726 162.17 317.949 161.984 318.237 161.822C318.529 161.656 318.923 161.573 319.42 161.573C320.063 161.573 320.63 161.734 321.12 162.055C321.611 162.377 321.994 162.833 322.269 163.423C322.544 164.013 322.681 164.709 322.681 165.511C322.681 166.319 322.544 167.02 322.269 167.614C321.994 168.204 321.613 168.661 321.125 168.986C320.638 169.307 320.076 169.468 319.44 169.468C318.949 169.468 318.557 169.387 318.262 169.224C317.967 169.059 317.74 168.871 317.581 168.663C317.422 168.451 317.299 168.275 317.213 168.136H317.074V169.309H315.94ZM317.093 165.491C317.093 166.067 317.178 166.576 317.347 167.017C317.516 167.455 317.763 167.798 318.088 168.046C318.413 168.291 318.81 168.414 319.281 168.414C319.771 168.414 320.181 168.285 320.509 168.026C320.84 167.764 321.089 167.413 321.255 166.972C321.424 166.528 321.508 166.034 321.508 165.491C321.508 164.954 321.425 164.47 321.26 164.039C321.097 163.605 320.85 163.262 320.519 163.01C320.191 162.755 319.778 162.627 319.281 162.627C318.804 162.627 318.403 162.748 318.078 162.99C317.753 163.229 317.508 163.563 317.342 163.994C317.176 164.422 317.093 164.921 317.093 165.491ZM327.678 169.468C326.942 169.468 326.307 169.306 325.774 168.981C325.243 168.653 324.834 168.195 324.546 167.609C324.261 167.019 324.118 166.333 324.118 165.55C324.118 164.768 324.261 164.079 324.546 163.482C324.834 162.882 325.235 162.415 325.749 162.08C326.266 161.742 326.869 161.573 327.559 161.573C327.956 161.573 328.349 161.639 328.737 161.772C329.125 161.905 329.478 162.12 329.796 162.418C330.114 162.713 330.368 163.104 330.556 163.592C330.745 164.079 330.84 164.679 330.84 165.391V165.889H324.953V164.874H329.647C329.647 164.443 329.56 164.059 329.388 163.721C329.219 163.383 328.977 163.116 328.662 162.92C328.351 162.725 327.983 162.627 327.559 162.627C327.091 162.627 326.687 162.743 326.346 162.975C326.007 163.204 325.747 163.502 325.565 163.87C325.383 164.238 325.292 164.632 325.292 165.053V165.729C325.292 166.306 325.391 166.795 325.59 167.196C325.792 167.594 326.072 167.897 326.43 168.106C326.788 168.311 327.204 168.414 327.678 168.414C327.986 168.414 328.265 168.371 328.513 168.285C328.765 168.195 328.982 168.063 329.164 167.887C329.347 167.708 329.488 167.486 329.587 167.221L330.721 167.539C330.601 167.924 330.401 168.262 330.119 168.553C329.837 168.842 329.489 169.067 329.075 169.229C328.661 169.389 328.195 169.468 327.678 169.468ZM335.826 169.468C335.091 169.468 334.456 169.306 333.922 168.981C333.392 168.653 332.983 168.195 332.694 167.609C332.409 167.019 332.267 166.333 332.267 165.55C332.267 164.768 332.409 164.079 332.694 163.482C332.983 162.882 333.384 162.415 333.897 162.08C334.414 161.742 335.018 161.573 335.707 161.573C336.105 161.573 336.498 161.639 336.885 161.772C337.273 161.905 337.626 162.12 337.944 162.418C338.262 162.713 338.516 163.104 338.705 163.592C338.894 164.079 338.988 164.679 338.988 165.391V165.889H333.102V164.874H337.795C337.795 164.443 337.709 164.059 337.537 163.721C337.368 163.383 337.126 163.116 336.811 162.92C336.499 162.725 336.131 162.627 335.707 162.627C335.24 162.627 334.835 162.743 334.494 162.975C334.156 163.204 333.896 163.502 333.713 163.87C333.531 164.238 333.44 164.632 333.44 165.053V165.729C333.44 166.306 333.539 166.795 333.738 167.196C333.94 167.594 334.221 167.897 334.578 168.106C334.936 168.311 335.352 168.414 335.826 168.414C336.135 168.414 336.413 168.371 336.662 168.285C336.913 168.195 337.131 168.063 337.313 167.887C337.495 167.708 337.636 167.486 337.735 167.221L338.869 167.539C338.75 167.924 338.549 168.262 338.267 168.553C337.986 168.842 337.638 169.067 337.223 169.229C336.809 169.389 336.343 169.468 335.826 169.468ZM341.946 164.715V169.309H340.773V161.673H341.907V162.866H342.006C342.185 162.478 342.457 162.166 342.821 161.931C343.186 161.692 343.657 161.573 344.233 161.573C344.75 161.573 345.203 161.679 345.591 161.891C345.978 162.1 346.28 162.418 346.495 162.846C346.711 163.27 346.819 163.807 346.819 164.457V169.309H345.645V164.536C345.645 163.936 345.489 163.469 345.178 163.134C344.866 162.796 344.439 162.627 343.895 162.627C343.521 162.627 343.186 162.708 342.891 162.871C342.599 163.033 342.369 163.27 342.2 163.582C342.031 163.893 341.946 164.271 341.946 164.715ZM358.309 163.383L357.255 163.681C357.189 163.505 357.091 163.335 356.962 163.169C356.836 163 356.664 162.861 356.445 162.751C356.226 162.642 355.946 162.587 355.605 162.587C355.137 162.587 354.748 162.695 354.436 162.911C354.128 163.123 353.974 163.393 353.974 163.721C353.974 164.013 354.08 164.243 354.292 164.412C354.504 164.581 354.836 164.722 355.286 164.835L356.42 165.113C357.103 165.279 357.611 165.532 357.946 165.874C358.281 166.212 358.448 166.648 358.448 167.181C358.448 167.619 358.322 168.01 358.07 168.354C357.822 168.699 357.474 168.971 357.026 169.17C356.579 169.369 356.059 169.468 355.465 169.468C354.686 169.468 354.042 169.299 353.531 168.961C353.021 168.623 352.698 168.129 352.562 167.479L353.676 167.201C353.782 167.612 353.982 167.92 354.277 168.126C354.575 168.331 354.965 168.434 355.445 168.434C355.992 168.434 356.427 168.318 356.748 168.086C357.073 167.851 357.235 167.569 357.235 167.241C357.235 166.976 357.142 166.754 356.957 166.575C356.771 166.392 356.486 166.256 356.102 166.167L354.829 165.869C354.13 165.703 353.616 165.446 353.288 165.098C352.963 164.747 352.801 164.308 352.801 163.781C352.801 163.35 352.922 162.969 353.164 162.637C353.409 162.306 353.742 162.045 354.163 161.857C354.587 161.668 355.068 161.573 355.605 161.573C356.36 161.573 356.954 161.739 357.384 162.07C357.819 162.402 358.127 162.839 358.309 163.383ZM365.027 166.187V161.673H366.2V169.309H365.027V168.016H364.947C364.768 168.404 364.49 168.734 364.112 169.006C363.734 169.274 363.257 169.408 362.68 169.408C362.203 169.408 361.779 169.304 361.408 169.095C361.036 168.883 360.745 168.565 360.533 168.141C360.321 167.713 360.214 167.174 360.214 166.525V161.673H361.388V166.445C361.388 167.002 361.544 167.446 361.855 167.778C362.17 168.109 362.571 168.275 363.058 168.275C363.35 168.275 363.647 168.2 363.948 168.051C364.253 167.902 364.508 167.673 364.714 167.365C364.923 167.057 365.027 166.664 365.027 166.187ZM368.508 169.309V159.127H369.682V162.886H369.781C369.867 162.753 369.987 162.584 370.139 162.379C370.295 162.17 370.517 161.984 370.805 161.822C371.097 161.656 371.491 161.573 371.988 161.573C372.631 161.573 373.198 161.734 373.689 162.055C374.179 162.377 374.562 162.833 374.837 163.423C375.112 164.013 375.25 164.709 375.25 165.511C375.25 166.319 375.112 167.02 374.837 167.614C374.562 168.204 374.181 168.661 373.694 168.986C373.206 169.307 372.645 169.468 372.008 169.468C371.518 169.468 371.125 169.387 370.83 169.224C370.535 169.059 370.308 168.871 370.149 168.663C369.99 168.451 369.867 168.275 369.781 168.136H369.642V169.309H368.508ZM369.662 165.491C369.662 166.067 369.746 166.576 369.915 167.017C370.084 167.455 370.331 167.798 370.656 168.046C370.981 168.291 371.379 168.414 371.849 168.414C372.34 168.414 372.749 168.285 373.077 168.026C373.409 167.764 373.657 167.413 373.823 166.972C373.992 166.528 374.077 166.034 374.077 165.491C374.077 164.954 373.994 164.47 373.828 164.039C373.666 163.605 373.419 163.262 373.087 163.01C372.759 162.755 372.346 162.627 371.849 162.627C371.372 162.627 370.971 162.748 370.646 162.99C370.321 163.229 370.076 163.563 369.91 163.994C369.745 164.422 369.662 164.921 369.662 165.491ZM377.045 169.309V161.673H378.178V162.866H378.278C378.437 162.458 378.693 162.142 379.048 161.916C379.403 161.688 379.829 161.573 380.326 161.573C380.83 161.573 381.249 161.688 381.584 161.916C381.922 162.142 382.185 162.458 382.374 162.866H382.454C382.649 162.471 382.943 162.158 383.334 161.926C383.725 161.691 384.194 161.573 384.741 161.573C385.423 161.573 385.982 161.787 386.416 162.214C386.85 162.639 387.067 163.3 387.067 164.198V169.309H385.894V164.198C385.894 163.635 385.74 163.232 385.432 162.99C385.123 162.748 384.76 162.627 384.343 162.627C383.806 162.627 383.39 162.79 383.095 163.114C382.8 163.436 382.653 163.844 382.653 164.337V169.309H381.459V164.079C381.459 163.645 381.318 163.295 381.037 163.03C380.755 162.761 380.392 162.627 379.948 162.627C379.643 162.627 379.358 162.708 379.093 162.871C378.831 163.033 378.619 163.259 378.456 163.547C378.297 163.832 378.218 164.162 378.218 164.536V169.309H377.045ZM389.213 169.309V161.673H390.386V169.309H389.213ZM389.809 160.4C389.58 160.4 389.383 160.322 389.218 160.166C389.055 160.01 388.974 159.823 388.974 159.604C388.974 159.386 389.055 159.198 389.218 159.043C389.383 158.887 389.58 158.809 389.809 158.809C390.038 158.809 390.233 158.887 390.396 159.043C390.561 159.198 390.644 159.386 390.644 159.604C390.644 159.823 390.561 160.01 390.396 160.166C390.233 160.322 390.038 160.4 389.809 160.4ZM395.856 161.673V162.667H391.898V161.673H395.856ZM393.052 159.843H394.225V167.121C394.225 167.453 394.273 167.701 394.369 167.867C394.469 168.03 394.595 168.139 394.747 168.195C394.903 168.248 395.067 168.275 395.239 168.275C395.369 168.275 395.475 168.268 395.558 168.255C395.64 168.238 395.707 168.225 395.756 168.215L395.995 169.269C395.915 169.299 395.804 169.329 395.662 169.359C395.519 169.392 395.339 169.408 395.12 169.408C394.789 169.408 394.464 169.337 394.146 169.195C393.831 169.052 393.569 168.835 393.36 168.543C393.155 168.252 393.052 167.884 393.052 167.44V159.843ZM400.942 161.673V162.667H396.984V161.673H400.942ZM398.138 159.843H399.311V167.121C399.311 167.453 399.359 167.701 399.455 167.867C399.555 168.03 399.681 168.139 399.833 168.195C399.989 168.248 400.153 168.275 400.325 168.275C400.455 168.275 400.561 168.268 400.643 168.255C400.726 168.238 400.793 168.225 400.842 168.215L401.081 169.269C401.001 169.299 400.89 169.329 400.748 169.359C400.605 169.392 400.425 169.408 400.206 169.408C399.875 169.408 399.55 169.337 399.232 169.195C398.917 169.052 398.655 168.835 398.446 168.543C398.241 168.252 398.138 167.884 398.138 167.44V159.843ZM405.826 169.468C405.091 169.468 404.456 169.306 403.922 168.981C403.392 168.653 402.983 168.195 402.694 167.609C402.409 167.019 402.267 166.333 402.267 165.55C402.267 164.768 402.409 164.079 402.694 163.482C402.983 162.882 403.384 162.415 403.897 162.08C404.414 161.742 405.018 161.573 405.707 161.573C406.105 161.573 406.498 161.639 406.885 161.772C407.273 161.905 407.626 162.12 407.944 162.418C408.262 162.713 408.516 163.104 408.705 163.592C408.894 164.079 408.988 164.679 408.988 165.391V165.889H403.102V164.874H407.795C407.795 164.443 407.709 164.059 407.537 163.721C407.368 163.383 407.126 163.116 406.811 162.92C406.499 162.725 406.131 162.627 405.707 162.627C405.24 162.627 404.835 162.743 404.494 162.975C404.156 163.204 403.896 163.502 403.713 163.87C403.531 164.238 403.44 164.632 403.44 165.053V165.729C403.44 166.306 403.539 166.795 403.738 167.196C403.94 167.594 404.221 167.897 404.578 168.106C404.936 168.311 405.352 168.414 405.826 168.414C406.135 168.414 406.413 168.371 406.662 168.285C406.913 168.195 407.131 168.063 407.313 167.887C407.495 167.708 407.636 167.486 407.735 167.221L408.869 167.539C408.75 167.924 408.549 168.262 408.267 168.553C407.986 168.842 407.638 169.067 407.223 169.229C406.809 169.389 406.343 169.468 405.826 169.468ZM413.657 169.468C413.02 169.468 412.458 169.307 411.971 168.986C411.484 168.661 411.103 168.204 410.828 167.614C410.553 167.02 410.415 166.319 410.415 165.511C410.415 164.709 410.553 164.013 410.828 163.423C411.103 162.833 411.486 162.377 411.976 162.055C412.467 161.734 413.033 161.573 413.676 161.573C414.174 161.573 414.566 161.656 414.855 161.822C415.146 161.984 415.368 162.17 415.521 162.379C415.677 162.584 415.798 162.753 415.884 162.886H415.983V159.127H417.157V169.309H416.023V168.136H415.884C415.798 168.275 415.675 168.451 415.516 168.663C415.357 168.871 415.13 169.059 414.835 169.224C414.54 169.387 414.147 169.468 413.657 169.468ZM413.816 168.414C414.286 168.414 414.684 168.291 415.009 168.046C415.334 167.798 415.581 167.455 415.75 167.017C415.919 166.576 416.003 166.067 416.003 165.491C416.003 164.921 415.92 164.422 415.755 163.994C415.589 163.563 415.344 163.229 415.019 162.99C414.694 162.748 414.293 162.627 413.816 162.627C413.319 162.627 412.904 162.755 412.573 163.01C412.245 163.262 411.998 163.605 411.832 164.039C411.67 164.47 411.588 164.954 411.588 165.491C411.588 166.034 411.671 166.528 411.837 166.972C412.006 167.413 412.255 167.764 412.583 168.026C412.914 168.285 413.325 168.414 413.816 168.414ZM420.324 169.389C420.078 169.389 419.868 169.301 419.692 169.125C419.516 168.949 419.429 168.739 419.429 168.494C419.429 168.248 419.516 168.038 419.692 167.862C419.868 167.687 420.078 167.599 420.324 167.599C420.569 167.599 420.779 167.687 420.955 167.862C421.131 168.038 421.218 168.248 421.218 168.494C421.218 168.656 421.177 168.805 421.094 168.941C421.015 169.077 420.907 169.186 420.771 169.269C420.638 169.349 420.489 169.389 420.324 169.389Z" fill="#A3AAB7"/>
<defs>
<filter id="filter0_dd_200_692" x="0" y="0" width="610" height="213" filterUnits="userSpaceOnUse" color-interpolation-filters="sRGB">
<feFlood flood-opacity="0" result="BackgroundImageFix"/>
<feColorMatrix in="SourceAlpha" type="matrix" values="0 0 0 0 0 0 0 0 0 0 0 0 0 0 0 0 0 0 127 0" result="hardAlpha"/>
<feMorphology radius="2" operator="erode" in="SourceAlpha" result="effect1_dropShadow_200_692"/>
<feOffset dy="4"/>
<feGaussianBlur stdDeviation="3"/>
<feColorMatrix type="matrix" values="0 0 0 0 0 0 0 0 0 0 0 0 0 0 0 0 0 0 0.03 0"/>
<feBlend mode="normal" in2="BackgroundImageFix" result="effect1_dropShadow_200_692"/>
<feColorMatrix in="SourceAlpha" type="matrix" values="0 0 0 0 0 0 0 0 0 0 0 0 0 0 0 0 0 0 127 0" result="hardAlpha"/>
<feMorphology radius="4" operator="erode" in="SourceAlpha" result="effect2_dropShadow_200_692"/>
<feOffset dy="12"/>
<feGaussianBlur stdDeviation="8"/>
<feColorMatrix type="matrix" values="0 0 0 0 0 0 0 0 0 0 0 0 0 0 0 0 0 0 0.08 0"/>
<feBlend mode="normal" in2="effect1_dropShadow_200_692" result="effect2_dropShadow_200_692"/>
<feBlend mode="normal" in="SourceGraphic" in2="effect2_dropShadow_200_692" result="shape"/>
</filter>
</defs>
</svg>
