<svg width="610" height="213" viewBox="0 0 610 213" fill="none" xmlns="http://www.w3.org/2000/svg">
<g filter="url(#filter0_dd_385_3733)">
<rect x="12" width="586" height="189" fill="#0C131F"/>
</g>
<path d="M323.826 43.0739C315.262 42.8091 307.107 40.3604 299.319 37.6743C291.531 34.9882 283.817 32.0185 275.459 30.5981C270.084 29.6851 263.936 29.555 259.605 32.1121C255.436 34.5716 254.089 38.819 253.365 42.7606C252.821 45.7246 252.5 48.8449 253.993 51.6206C255.03 53.5483 256.869 55.1684 258.142 57.0133C262.57 63.4372 259.44 71.3568 254.642 77.6341C252.393 80.5764 249.78 83.3823 248.043 86.5146C246.306 89.647 245.502 93.2347 247.022 96.4264C248.528 99.593 252.118 101.971 256.006 103.644C263.904 107.035 273.207 108.013 282.284 108.564C302.373 109.786 322.568 109.256 342.709 108.727C350.164 108.532 357.65 108.334 364.983 107.311C369.055 106.743 373.259 105.843 376.215 103.667C379.968 100.905 380.898 96.2284 378.383 92.7674C374.165 86.9598 362.505 85.516 359.553 79.2827C357.931 75.8519 359.597 72.0302 361.956 68.8476C367.016 62.0209 375.495 56.0318 375.941 48.2269C376.248 42.8684 372.172 37.4985 365.868 34.966C359.261 32.3067 350.099 32.6422 345.227 37.0414C340.206 41.5628 331.387 43.3061 323.826 43.0739Z" fill="#202A3B"/>
<path d="M381.277 33.2414C380.653 33.2322 380.058 33.1462 379.49 33.052C378.922 32.9577 378.36 32.8535 377.75 32.8037C377.358 32.7717 376.91 32.7671 376.594 32.8568C376.29 32.9431 376.192 33.0922 376.139 33.2305C376.1 33.3345 376.076 33.4439 376.185 33.5413C376.261 33.609 376.395 33.6658 376.488 33.7306C376.81 33.956 376.582 34.2338 376.232 34.4541C376.068 34.5573 375.878 34.6558 375.751 34.7657C375.624 34.8756 375.566 35.0015 375.677 35.1135C375.787 35.2246 376.048 35.308 376.332 35.3667C376.908 35.4857 377.586 35.52 378.248 35.5394C379.713 35.5822 381.185 35.5636 382.654 35.5451C383.197 35.5382 383.743 35.5313 384.278 35.4954C384.575 35.4755 384.881 35.4439 385.097 35.3675C385.371 35.2706 385.439 35.1065 385.255 34.9851C384.948 34.7813 384.097 34.7306 383.882 34.5119C383.764 34.3916 383.885 34.2575 384.057 34.1458C384.426 33.9063 385.045 33.6961 385.077 33.4223C385.099 33.2342 384.802 33.0458 384.343 32.957C383.861 32.8637 383.193 32.8754 382.838 33.0298C382.471 33.1884 381.828 33.2496 381.277 33.2414Z" fill="#202A3B"/>
<path d="M384.379 100.257C382.952 100.243 381.592 100.115 380.294 99.9732C378.996 99.8319 377.711 99.6756 376.318 99.6008C375.422 99.5528 374.397 99.5459 373.675 99.6805C372.981 99.8099 372.756 100.033 372.635 100.241C372.545 100.397 372.491 100.561 372.74 100.707C372.913 100.809 373.219 100.894 373.432 100.991C374.17 101.329 373.648 101.746 372.848 102.076C372.473 102.231 372.038 102.379 371.748 102.544C371.459 102.709 371.325 102.897 371.578 103.065C371.829 103.232 372.427 103.357 373.076 103.445C374.392 103.624 375.942 103.675 377.455 103.704C380.803 103.769 384.169 103.741 387.526 103.713C388.769 103.703 390.016 103.692 391.238 103.638C391.917 103.608 392.618 103.561 393.11 103.447C393.736 103.301 393.891 103.055 393.472 102.873C392.769 102.567 390.825 102.491 390.333 102.163C390.063 101.983 390.341 101.781 390.734 101.614C391.577 101.255 392.99 100.939 393.065 100.529C393.116 100.247 392.436 99.964 391.386 99.8307C390.285 99.6907 388.758 99.7084 387.946 99.9399C387.109 100.178 385.639 100.27 384.379 100.257Z" fill="#202A3B"/>
<path d="M229.934 101.649C228.507 101.635 227.148 101.506 225.85 101.364C224.552 101.223 223.266 101.067 221.873 100.992C220.978 100.944 219.953 100.937 219.231 101.072C218.536 101.201 218.312 101.425 218.191 101.632C218.1 101.788 218.047 101.952 218.296 102.098C218.469 102.2 218.775 102.285 218.987 102.382C219.725 102.72 219.203 103.137 218.404 103.468C218.029 103.622 217.593 103.77 217.304 103.935C217.014 104.1 216.881 104.289 217.134 104.457C217.385 104.623 217.983 104.748 218.631 104.836C219.948 105.015 221.498 105.066 223.011 105.095C226.359 105.16 229.725 105.132 233.082 105.104C234.324 105.094 235.572 105.083 236.794 105.029C237.473 105 238.173 104.952 238.666 104.838C239.292 104.692 239.447 104.446 239.027 104.264C238.324 103.958 236.381 103.882 235.889 103.554C235.619 103.374 235.896 103.173 236.29 103.005C237.133 102.646 238.546 102.331 238.62 101.92C238.672 101.638 237.992 101.355 236.941 101.222C235.84 101.082 234.313 101.1 233.501 101.331C232.665 101.569 231.195 101.661 229.934 101.649Z" fill="#202A3B"/>
<path d="M259.153 66.8639C257.726 66.8499 256.367 66.7211 255.069 66.5797C253.771 66.4383 252.485 66.282 251.092 66.2073C250.196 66.1592 249.172 66.1524 248.45 66.2869C247.755 66.4164 247.53 66.6399 247.41 66.8474C247.319 67.0034 247.266 67.1676 247.514 67.3137C247.687 67.4152 247.994 67.5004 248.206 67.5975C248.944 67.9356 248.422 68.3525 247.623 68.6828C247.248 68.8377 246.812 68.9854 246.523 69.1502C246.233 69.3151 246.099 69.5039 246.353 69.6719C246.604 69.8386 247.202 69.9637 247.85 70.0518C249.166 70.2303 250.717 70.2817 252.23 70.3107C255.578 70.375 258.944 70.3471 262.301 70.3193C263.543 70.309 264.791 70.2986 266.013 70.2448C266.691 70.2149 267.392 70.1675 267.885 70.053C268.51 69.9076 268.665 69.6615 268.246 69.4793C267.543 69.1737 265.6 69.0977 265.108 68.7696C264.837 68.589 265.115 68.3879 265.508 68.2204C266.352 67.8611 267.765 67.5459 267.839 67.1351C267.89 66.8531 267.211 66.5704 266.16 66.4371C265.059 66.2972 263.532 66.3148 262.72 66.5464C261.883 66.7843 260.414 66.8761 259.153 66.8639Z" fill="#202A3B"/>
<path d="M310.381 87.515C310.055 87.5179 309.733 87.4496 309.436 87.3148C309.14 87.1801 308.876 86.9822 308.664 86.735L296.882 73.9392C296.483 73.4816 296.28 72.8862 296.315 72.2804C296.351 71.6747 296.622 71.107 297.071 70.6989C297.52 70.2908 298.111 70.0749 298.718 70.0974C299.324 70.1199 299.897 70.379 300.315 70.8192L310.459 81.8184L338.547 53.8087C338.761 53.5914 339.017 53.4187 339.298 53.3005C339.58 53.1823 339.882 53.121 340.188 53.1201C340.493 53.1192 340.796 53.1787 341.078 53.2952C341.361 53.4116 341.617 53.5828 341.833 53.7988C342.049 54.0148 342.22 54.2714 342.337 54.5538C342.453 54.8362 342.513 55.1388 342.512 55.4443C342.511 55.7497 342.45 56.052 342.332 56.3337C342.213 56.6154 342.041 56.8709 341.823 57.0856L312.02 86.8118C311.814 87.0409 311.561 87.2224 311.278 87.3438C310.995 87.4652 310.689 87.5237 310.381 87.515Z" fill="#21A365"/>
<path d="M312.566 107.41C304.331 107.41 296.432 104.139 290.609 98.3154C284.785 92.492 281.514 84.5936 281.514 76.358C281.514 68.1224 284.785 60.2241 290.609 54.4006C296.432 48.5772 304.331 45.3056 312.566 45.3056C312.875 45.2999 313.182 45.3565 313.468 45.4721C313.755 45.5877 314.015 45.7599 314.234 45.9784C314.452 46.1969 314.624 46.4572 314.74 46.7437C314.856 47.0302 314.912 47.3371 314.907 47.646C314.912 47.9549 314.856 48.2618 314.74 48.5483C314.624 48.8348 314.452 49.0951 314.234 49.3135C314.015 49.532 313.755 49.7042 313.468 49.8198C313.182 49.9354 312.875 49.9921 312.566 49.9865C307.35 49.9865 302.252 51.5331 297.915 54.4308C293.578 57.3285 290.198 61.4471 288.202 66.2658C286.206 71.0845 285.684 76.3868 286.702 81.5023C287.719 86.6178 290.231 91.3167 293.919 95.0047C297.607 98.6928 302.306 101.204 307.421 102.222C312.537 103.239 317.839 102.717 322.658 100.721C327.477 98.7253 331.595 95.3452 334.493 91.0085C337.391 86.6718 338.937 81.5733 338.937 76.3576C338.937 75.7368 339.184 75.1415 339.623 74.7026C340.062 74.2637 340.657 74.0171 341.278 74.0171C341.898 74.0171 342.494 74.2637 342.933 74.7026C343.372 75.1415 343.618 75.7368 343.618 76.3576C343.597 84.5866 340.319 92.4725 334.5 98.2915C328.681 104.11 320.795 107.389 312.566 107.41Z" fill="#21A365"/>
<path d="M156.823 139.972V137.764H168.428V139.972H163.932V152.309H161.319V139.972H156.823ZM173.123 145.917V152.309H170.551V137.764H173.066V143.254H173.194C173.449 142.638 173.845 142.153 174.38 141.798C174.919 141.438 175.606 141.258 176.439 141.258C177.197 141.258 177.857 141.417 178.421 141.734C178.984 142.051 179.42 142.515 179.728 143.126C180.04 143.737 180.196 144.482 180.196 145.363V152.309H177.625V145.761C177.625 145.027 177.436 144.456 177.057 144.049C176.683 143.637 176.158 143.431 175.48 143.431C175.026 143.431 174.619 143.531 174.259 143.73C173.904 143.924 173.624 144.205 173.421 144.575C173.222 144.944 173.123 145.391 173.123 145.917ZM185.956 152.529C185.265 152.529 184.642 152.406 184.088 152.16C183.539 151.909 183.104 151.54 182.782 151.052C182.464 150.564 182.306 149.963 182.306 149.248C182.306 148.632 182.419 148.123 182.647 147.721C182.874 147.319 183.184 146.997 183.577 146.755C183.97 146.514 184.413 146.331 184.905 146.208C185.402 146.08 185.916 145.988 186.446 145.931C187.086 145.865 187.604 145.806 188.002 145.754C188.4 145.697 188.688 145.612 188.868 145.498C189.053 145.38 189.145 145.197 189.145 144.951V144.909C189.145 144.373 188.987 143.959 188.669 143.666C188.352 143.372 187.895 143.225 187.299 143.225C186.669 143.225 186.169 143.363 185.8 143.637C185.435 143.912 185.189 144.236 185.061 144.61L182.661 144.269C182.85 143.606 183.163 143.052 183.598 142.607C184.034 142.158 184.567 141.821 185.196 141.599C185.826 141.372 186.522 141.258 187.284 141.258C187.81 141.258 188.333 141.319 188.854 141.443C189.375 141.566 189.851 141.769 190.282 142.053C190.712 142.333 191.058 142.714 191.319 143.197C191.584 143.68 191.716 144.284 191.716 145.008V152.309H189.245V150.811H189.159C189.003 151.114 188.783 151.398 188.499 151.663C188.22 151.923 187.867 152.134 187.441 152.295C187.019 152.451 186.525 152.529 185.956 152.529ZM186.624 150.64C187.14 150.64 187.587 150.538 187.966 150.335C188.345 150.126 188.636 149.852 188.84 149.511C189.048 149.17 189.152 148.798 189.152 148.396V147.11C189.072 147.177 188.935 147.238 188.74 147.295C188.551 147.352 188.338 147.401 188.101 147.444C187.864 147.487 187.63 147.525 187.398 147.558C187.166 147.591 186.965 147.619 186.794 147.643C186.411 147.695 186.068 147.78 185.765 147.899C185.462 148.017 185.222 148.183 185.047 148.396C184.872 148.604 184.784 148.874 184.784 149.205C184.784 149.679 184.957 150.036 185.303 150.278C185.649 150.519 186.089 150.64 186.624 150.64ZM196.873 145.917V152.309H194.301V141.4H196.759V143.254H196.887C197.138 142.643 197.538 142.158 198.087 141.798C198.641 141.438 199.325 141.258 200.14 141.258C200.892 141.258 201.548 141.419 202.107 141.741C202.67 142.063 203.106 142.529 203.414 143.14C203.726 143.751 203.88 144.492 203.875 145.363V152.309H201.304V145.761C201.304 145.032 201.115 144.461 200.736 144.049C200.362 143.637 199.844 143.431 199.181 143.431C198.731 143.431 198.331 143.531 197.98 143.73C197.635 143.924 197.363 144.205 197.164 144.575C196.97 144.944 196.873 145.391 196.873 145.917ZM208.833 148.886L208.826 145.782H209.238L213.158 141.4H216.162L211.34 146.769H210.807L208.833 148.886ZM206.489 152.309V137.764H209.06V152.309H206.489ZM213.336 152.309L209.784 147.345L211.517 145.534L216.411 152.309H213.336ZM224.435 156.4C224.084 156.4 223.76 156.372 223.462 156.315C223.168 156.263 222.934 156.201 222.759 156.13L223.355 154.127C223.729 154.236 224.063 154.288 224.357 154.284C224.65 154.279 224.908 154.186 225.131 154.007C225.358 153.831 225.55 153.538 225.706 153.126L225.926 152.536L221.97 141.4H224.697L227.212 149.639H227.325L229.847 141.4H232.581L228.213 153.63C228.009 154.208 227.74 154.703 227.403 155.114C227.067 155.531 226.655 155.848 226.168 156.066C225.685 156.289 225.107 156.4 224.435 156.4ZM238.748 152.522C237.682 152.522 236.759 152.288 235.978 151.819C235.196 151.35 234.59 150.694 234.159 149.852C233.733 149.009 233.52 148.024 233.52 146.897C233.52 145.77 233.733 144.783 234.159 143.936C234.59 143.088 235.196 142.43 235.978 141.961C236.759 141.492 237.682 141.258 238.748 141.258C239.813 141.258 240.736 141.492 241.517 141.961C242.299 142.43 242.902 143.088 243.328 143.936C243.759 144.783 243.975 145.77 243.975 146.897C243.975 148.024 243.759 149.009 243.328 149.852C242.902 150.694 242.299 151.35 241.517 151.819C240.736 152.288 239.813 152.522 238.748 152.522ZM238.762 150.462C239.339 150.462 239.822 150.304 240.211 149.987C240.599 149.665 240.888 149.234 241.077 148.694C241.271 148.154 241.368 147.553 241.368 146.89C241.368 146.222 241.271 145.619 241.077 145.079C240.888 144.534 240.599 144.101 240.211 143.779C239.822 143.457 239.339 143.296 238.762 143.296C238.17 143.296 237.677 143.457 237.284 143.779C236.896 144.101 236.605 144.534 236.411 145.079C236.221 145.619 236.127 146.222 236.127 146.89C236.127 147.553 236.221 148.154 236.411 148.694C236.605 149.234 236.896 149.665 237.284 149.987C237.677 150.304 238.17 150.462 238.762 150.462ZM253.11 147.721V141.4H255.681V152.309H253.188V150.37H253.075C252.828 150.981 252.424 151.48 251.86 151.869C251.301 152.257 250.612 152.451 249.793 152.451C249.078 152.451 248.446 152.293 247.897 151.975C247.353 151.653 246.926 151.187 246.619 150.576C246.311 149.961 246.157 149.217 246.157 148.346V141.4H248.728V147.948C248.728 148.64 248.917 149.189 249.296 149.596C249.675 150.003 250.172 150.207 250.788 150.207C251.166 150.207 251.533 150.114 251.888 149.93C252.244 149.745 252.535 149.471 252.762 149.106C252.994 148.737 253.11 148.275 253.11 147.721ZM268.811 141.4V143.389H262.363V141.4H268.811ZM263.975 152.309V140.37C263.975 139.636 264.126 139.025 264.429 138.538C264.737 138.05 265.149 137.686 265.665 137.444C266.181 137.203 266.754 137.082 267.384 137.082C267.829 137.082 268.224 137.117 268.57 137.188C268.916 137.259 269.171 137.323 269.337 137.38L268.826 139.369C268.717 139.336 268.579 139.302 268.414 139.269C268.248 139.231 268.063 139.212 267.86 139.212C267.382 139.212 267.043 139.328 266.844 139.561C266.65 139.788 266.553 140.114 266.553 140.541V152.309H263.975ZM275.173 152.522C274.108 152.522 273.185 152.288 272.403 151.819C271.622 151.35 271.016 150.694 270.585 149.852C270.159 149.009 269.946 148.024 269.946 146.897C269.946 145.77 270.159 144.783 270.585 143.936C271.016 143.088 271.622 142.43 272.403 141.961C273.185 141.492 274.108 141.258 275.173 141.258C276.239 141.258 277.162 141.492 277.943 141.961C278.724 142.43 279.328 143.088 279.754 143.936C280.185 144.783 280.401 145.77 280.401 146.897C280.401 148.024 280.185 149.009 279.754 149.852C279.328 150.694 278.724 151.35 277.943 151.819C277.162 152.288 276.239 152.522 275.173 152.522ZM275.188 150.462C275.765 150.462 276.248 150.304 276.636 149.987C277.025 149.665 277.313 149.234 277.503 148.694C277.697 148.154 277.794 147.553 277.794 146.89C277.794 146.222 277.697 145.619 277.503 145.079C277.313 144.534 277.025 144.101 276.636 143.779C276.248 143.457 275.765 143.296 275.188 143.296C274.596 143.296 274.103 143.457 273.71 143.779C273.322 144.101 273.031 144.534 272.837 145.079C272.647 145.619 272.553 146.222 272.553 146.89C272.553 147.553 272.647 148.154 272.837 148.694C273.031 149.234 273.322 149.665 273.71 149.987C274.103 150.304 274.596 150.462 275.188 150.462ZM282.583 152.309V141.4H285.076V143.218H285.189C285.388 142.588 285.729 142.103 286.212 141.762C286.7 141.417 287.256 141.244 287.881 141.244C288.023 141.244 288.182 141.251 288.357 141.265C288.537 141.275 288.686 141.291 288.804 141.315V143.68C288.695 143.642 288.523 143.609 288.286 143.58C288.054 143.547 287.829 143.531 287.611 143.531C287.142 143.531 286.721 143.632 286.347 143.836C285.978 144.035 285.686 144.312 285.473 144.667C285.26 145.022 285.154 145.432 285.154 145.896V152.309H282.583ZM297.071 156.4C296.721 156.4 296.397 156.372 296.098 156.315C295.805 156.263 295.57 156.201 295.395 156.13L295.992 154.127C296.366 154.236 296.7 154.288 296.993 154.284C297.287 154.279 297.545 154.186 297.767 154.007C297.995 153.831 298.186 153.538 298.343 153.126L298.563 152.536L294.607 141.4H297.334L299.848 149.639H299.962L302.483 141.4H305.218L300.85 153.63C300.646 154.208 300.376 154.703 300.04 155.114C299.704 155.531 299.292 155.848 298.804 156.066C298.321 156.289 297.744 156.4 297.071 156.4ZM311.384 152.522C310.319 152.522 309.396 152.288 308.614 151.819C307.833 151.35 307.227 150.694 306.796 149.852C306.37 149.009 306.157 148.024 306.157 146.897C306.157 145.77 306.37 144.783 306.796 143.936C307.227 143.088 307.833 142.43 308.614 141.961C309.396 141.492 310.319 141.258 311.384 141.258C312.45 141.258 313.373 141.492 314.154 141.961C314.935 142.43 315.539 143.088 315.965 143.936C316.396 144.783 316.612 145.77 316.612 146.897C316.612 148.024 316.396 149.009 315.965 149.852C315.539 150.694 314.935 151.35 314.154 151.819C313.373 152.288 312.45 152.522 311.384 152.522ZM311.398 150.462C311.976 150.462 312.459 150.304 312.847 149.987C313.236 149.665 313.524 149.234 313.714 148.694C313.908 148.154 314.005 147.553 314.005 146.89C314.005 146.222 313.908 145.619 313.714 145.079C313.524 144.534 313.236 144.101 312.847 143.779C312.459 143.457 311.976 143.296 311.398 143.296C310.807 143.296 310.314 143.457 309.921 143.779C309.533 144.101 309.242 144.534 309.048 145.079C308.858 145.619 308.763 146.222 308.763 146.89C308.763 147.553 308.858 148.154 309.048 148.694C309.242 149.234 309.533 149.665 309.921 149.987C310.314 150.304 310.807 150.462 311.398 150.462ZM325.747 147.721V141.4H328.318V152.309H325.825V150.37H325.711C325.465 150.981 325.06 151.48 324.497 151.869C323.938 152.257 323.249 152.451 322.43 152.451C321.715 152.451 321.083 152.293 320.534 151.975C319.989 151.653 319.563 151.187 319.255 150.576C318.948 149.961 318.794 149.217 318.794 148.346V141.4H321.365V147.948C321.365 148.64 321.554 149.189 321.933 149.596C322.312 150.003 322.809 150.207 323.424 150.207C323.803 150.207 324.17 150.114 324.525 149.93C324.88 149.745 325.172 149.471 325.399 149.106C325.631 148.737 325.747 148.275 325.747 147.721ZM330.962 152.309V141.4H333.455V143.218H333.568C333.767 142.588 334.108 142.103 334.591 141.762C335.079 141.417 335.635 141.244 336.26 141.244C336.402 141.244 336.561 141.251 336.736 141.265C336.916 141.275 337.065 141.291 337.183 141.315V143.68C337.074 143.642 336.902 143.609 336.665 143.58C336.433 143.547 336.208 143.531 335.99 143.531C335.521 143.531 335.1 143.632 334.726 143.836C334.357 144.035 334.065 144.312 333.852 144.667C333.639 145.022 333.533 145.432 333.533 145.896V152.309H330.962ZM351.871 141.762C351.804 141.142 351.525 140.659 351.033 140.313C350.545 139.968 349.911 139.795 349.129 139.795C348.58 139.795 348.109 139.878 347.716 140.043C347.323 140.209 347.022 140.434 346.814 140.718C346.606 141.002 346.499 141.327 346.494 141.691C346.494 141.994 346.563 142.257 346.7 142.48C346.842 142.702 347.034 142.891 347.276 143.048C347.517 143.199 347.785 143.327 348.078 143.431C348.372 143.535 348.668 143.623 348.966 143.694L350.33 144.035C350.879 144.163 351.407 144.336 351.913 144.553C352.425 144.771 352.882 145.046 353.284 145.377C353.691 145.709 354.013 146.109 354.25 146.578C354.487 147.046 354.605 147.596 354.605 148.225C354.605 149.078 354.387 149.828 353.952 150.477C353.516 151.121 352.886 151.625 352.062 151.989C351.243 152.349 350.251 152.529 349.087 152.529C347.955 152.529 346.973 152.354 346.139 152.004C345.311 151.653 344.662 151.142 344.193 150.47C343.729 149.797 343.478 148.978 343.44 148.012H346.033C346.071 148.519 346.227 148.94 346.501 149.276C346.776 149.613 347.134 149.864 347.574 150.029C348.019 150.195 348.516 150.278 349.065 150.278C349.638 150.278 350.14 150.193 350.571 150.022C351.007 149.847 351.348 149.605 351.594 149.298C351.84 148.985 351.965 148.621 351.97 148.204C351.965 147.825 351.854 147.513 351.636 147.266C351.419 147.016 351.113 146.807 350.72 146.641C350.332 146.471 349.877 146.319 349.357 146.187L347.702 145.761C346.504 145.453 345.557 144.987 344.861 144.362C344.17 143.732 343.824 142.896 343.824 141.855C343.824 140.998 344.056 140.247 344.52 139.603C344.989 138.959 345.625 138.46 346.43 138.105C347.235 137.745 348.147 137.565 349.165 137.565C350.197 137.565 351.101 137.745 351.878 138.105C352.659 138.46 353.272 138.954 353.717 139.589C354.162 140.219 354.392 140.943 354.406 141.762H351.871ZM363.794 147.721V141.4H366.365V152.309H363.872V150.37H363.758C363.512 150.981 363.107 151.48 362.544 151.869C361.985 152.257 361.296 152.451 360.477 152.451C359.762 152.451 359.13 152.293 358.581 151.975C358.036 151.653 357.61 151.187 357.302 150.576C356.994 149.961 356.841 149.217 356.841 148.346V141.4H359.412V147.948C359.412 148.64 359.601 149.189 359.98 149.596C360.359 150.003 360.856 150.207 361.471 150.207C361.85 150.207 362.217 150.114 362.572 149.93C362.927 149.745 363.218 149.471 363.446 149.106C363.678 148.737 363.794 148.275 363.794 147.721ZM369.122 152.309V137.764H371.693V143.204H371.8C371.932 142.939 372.119 142.657 372.361 142.359C372.602 142.056 372.929 141.798 373.341 141.585C373.753 141.367 374.278 141.258 374.918 141.258C375.76 141.258 376.52 141.473 377.197 141.904C377.879 142.33 378.419 142.962 378.817 143.801C379.219 144.634 379.42 145.657 379.42 146.869C379.42 148.067 379.224 149.085 378.831 149.923C378.438 150.761 377.903 151.4 377.226 151.84C376.549 152.281 375.782 152.501 374.925 152.501C374.3 152.501 373.781 152.397 373.369 152.188C372.957 151.98 372.626 151.729 372.375 151.436C372.129 151.137 371.937 150.855 371.8 150.59H371.651V152.309H369.122ZM371.643 146.855C371.643 147.56 371.743 148.178 371.942 148.708C372.145 149.239 372.437 149.653 372.815 149.951C373.199 150.245 373.663 150.391 374.207 150.391C374.776 150.391 375.251 150.24 375.635 149.937C376.018 149.629 376.307 149.21 376.501 148.68C376.7 148.145 376.8 147.536 376.8 146.855C376.8 146.177 376.703 145.576 376.509 145.051C376.314 144.525 376.026 144.113 375.642 143.815C375.259 143.516 374.78 143.367 374.207 143.367C373.658 143.367 373.192 143.512 372.808 143.801C372.425 144.089 372.134 144.494 371.935 145.015C371.741 145.536 371.643 146.149 371.643 146.855ZM381.606 152.309V141.4H384.064V143.254H384.191C384.419 142.629 384.795 142.141 385.321 141.791C385.846 141.436 386.474 141.258 387.203 141.258C387.941 141.258 388.564 141.438 389.071 141.798C389.582 142.153 389.942 142.638 390.15 143.254H390.264C390.505 142.648 390.913 142.165 391.485 141.805C392.063 141.44 392.747 141.258 393.538 141.258C394.542 141.258 395.361 141.575 395.995 142.21C396.63 142.844 396.947 143.77 396.947 144.987V152.309H394.369V145.384C394.369 144.707 394.189 144.212 393.829 143.9C393.469 143.583 393.029 143.424 392.508 143.424C391.888 143.424 391.403 143.618 391.052 144.007C390.707 144.39 390.534 144.89 390.534 145.505V152.309H388.012V145.278C388.012 144.714 387.842 144.265 387.501 143.928C387.165 143.592 386.725 143.424 386.18 143.424C385.811 143.424 385.475 143.519 385.172 143.708C384.868 143.893 384.627 144.156 384.447 144.497C384.267 144.833 384.177 145.226 384.177 145.676V152.309H381.606ZM399.555 152.309V141.4H402.126V152.309H399.555ZM400.848 139.852C400.441 139.852 400.09 139.717 399.797 139.447C399.503 139.172 399.357 138.843 399.357 138.46C399.357 138.071 399.503 137.742 399.797 137.472C400.09 137.198 400.441 137.061 400.848 137.061C401.26 137.061 401.61 137.198 401.899 137.472C402.193 137.742 402.339 138.071 402.339 138.46C402.339 138.843 402.193 139.172 401.899 139.447C401.61 139.717 401.26 139.852 400.848 139.852ZM413.392 144.284L411.049 144.539C410.982 144.302 410.866 144.08 410.701 143.872C410.54 143.663 410.322 143.495 410.047 143.367C409.773 143.239 409.436 143.176 409.039 143.176C408.504 143.176 408.054 143.292 407.689 143.524C407.329 143.756 407.152 144.056 407.157 144.426C407.152 144.743 407.268 145.001 407.505 145.2C407.746 145.399 408.144 145.562 408.698 145.69L410.559 146.087C411.591 146.31 412.358 146.663 412.86 147.146C413.366 147.629 413.622 148.261 413.627 149.042C413.622 149.729 413.421 150.335 413.023 150.86C412.63 151.381 412.083 151.788 411.382 152.082C410.682 152.375 409.877 152.522 408.968 152.522C407.632 152.522 406.558 152.243 405.743 151.684C404.929 151.121 404.444 150.337 404.287 149.333L406.794 149.092C406.908 149.584 407.15 149.956 407.519 150.207C407.888 150.458 408.369 150.583 408.961 150.583C409.571 150.583 410.061 150.458 410.431 150.207C410.805 149.956 410.992 149.646 410.992 149.276C410.992 148.964 410.871 148.706 410.63 148.502C410.393 148.299 410.024 148.142 409.522 148.034L407.661 147.643C406.614 147.425 405.84 147.058 405.338 146.542C404.837 146.021 404.588 145.363 404.593 144.568C404.588 143.895 404.77 143.313 405.14 142.82C405.514 142.323 406.032 141.94 406.695 141.67C407.363 141.395 408.132 141.258 409.003 141.258C410.282 141.258 411.288 141.53 412.022 142.075C412.76 142.619 413.217 143.355 413.392 144.284ZM424.369 144.284L422.025 144.539C421.959 144.302 421.843 144.08 421.677 143.872C421.516 143.663 421.298 143.495 421.024 143.367C420.749 143.239 420.413 143.176 420.015 143.176C419.48 143.176 419.03 143.292 418.666 143.524C418.306 143.756 418.128 144.056 418.133 144.426C418.128 144.743 418.244 145.001 418.481 145.2C418.723 145.399 419.12 145.562 419.674 145.69L421.535 146.087C422.567 146.31 423.334 146.663 423.836 147.146C424.343 147.629 424.599 148.261 424.603 149.042C424.599 149.729 424.397 150.335 424 150.86C423.607 151.381 423.06 151.788 422.359 152.082C421.658 152.375 420.853 152.522 419.944 152.522C418.609 152.522 417.534 152.243 416.72 151.684C415.905 151.121 415.42 150.337 415.264 149.333L417.771 149.092C417.885 149.584 418.126 149.956 418.495 150.207C418.865 150.458 419.345 150.583 419.937 150.583C420.548 150.583 421.038 150.458 421.407 150.207C421.781 149.956 421.968 149.646 421.968 149.276C421.968 148.964 421.848 148.706 421.606 148.502C421.369 148.299 421 148.142 420.498 148.034L418.637 147.643C417.591 147.425 416.817 147.058 416.315 146.542C415.813 146.021 415.565 145.363 415.569 144.568C415.565 143.895 415.747 143.313 416.116 142.82C416.49 142.323 417.009 141.94 417.672 141.67C418.339 141.395 419.109 141.258 419.98 141.258C421.258 141.258 422.264 141.53 422.998 142.075C423.737 142.619 424.194 143.355 424.369 144.284ZM426.723 152.309V141.4H429.294V152.309H426.723ZM428.016 139.852C427.609 139.852 427.258 139.717 426.965 139.447C426.671 139.172 426.525 138.843 426.525 138.46C426.525 138.071 426.671 137.742 426.965 137.472C427.258 137.198 427.609 137.061 428.016 137.061C428.428 137.061 428.778 137.198 429.067 137.472C429.361 137.742 429.507 138.071 429.507 138.46C429.507 138.843 429.361 139.172 429.067 139.447C428.778 139.717 428.428 139.852 428.016 139.852ZM436.697 152.522C435.631 152.522 434.708 152.288 433.927 151.819C433.146 151.35 432.54 150.694 432.109 149.852C431.683 149.009 431.469 148.024 431.469 146.897C431.469 145.77 431.683 144.783 432.109 143.936C432.54 143.088 433.146 142.43 433.927 141.961C434.708 141.492 435.631 141.258 436.697 141.258C437.762 141.258 438.685 141.492 439.467 141.961C440.248 142.43 440.852 143.088 441.278 143.936C441.709 144.783 441.924 145.77 441.924 146.897C441.924 148.024 441.709 149.009 441.278 149.852C440.852 150.694 440.248 151.35 439.467 151.819C438.685 152.288 437.762 152.522 436.697 152.522ZM436.711 150.462C437.289 150.462 437.772 150.304 438.16 149.987C438.548 149.665 438.837 149.234 439.026 148.694C439.22 148.154 439.317 147.553 439.317 146.89C439.317 146.222 439.22 145.619 439.026 145.079C438.837 144.534 438.548 144.101 438.16 143.779C437.772 143.457 437.289 143.296 436.711 143.296C436.119 143.296 435.627 143.457 435.234 143.779C434.845 144.101 434.554 144.534 434.36 145.079C434.171 145.619 434.076 146.222 434.076 146.89C434.076 147.553 434.171 148.154 434.36 148.694C434.554 149.234 434.845 149.665 435.234 149.987C435.627 150.304 436.119 150.462 436.711 150.462ZM446.677 145.917V152.309H444.106V141.4H446.564V143.254H446.691C446.942 142.643 447.342 142.158 447.892 141.798C448.446 141.438 449.13 141.258 449.944 141.258C450.697 141.258 451.353 141.419 451.912 141.741C452.475 142.063 452.911 142.529 453.218 143.14C453.531 143.751 453.685 144.492 453.68 145.363V152.309H451.109V145.761C451.109 145.032 450.92 144.461 450.541 144.049C450.167 143.637 449.648 143.431 448.985 143.431C448.536 143.431 448.136 143.531 447.785 143.73C447.44 143.924 447.167 144.205 446.968 144.575C446.774 144.944 446.677 145.391 446.677 145.917Z" fill="#F7F8F9"/>
<defs>
<filter id="filter0_dd_385_3733" x="0" y="0" width="610" height="213" filterUnits="userSpaceOnUse" color-interpolation-filters="sRGB">
<feFlood flood-opacity="0" result="BackgroundImageFix"/>
<feColorMatrix in="SourceAlpha" type="matrix" values="0 0 0 0 0 0 0 0 0 0 0 0 0 0 0 0 0 0 127 0" result="hardAlpha"/>
<feMorphology radius="2" operator="erode" in="SourceAlpha" result="effect1_dropShadow_385_3733"/>
<feOffset dy="4"/>
<feGaussianBlur stdDeviation="3"/>
<feColorMatrix type="matrix" values="0 0 0 0 0 0 0 0 0 0 0 0 0 0 0 0 0 0 0.03 0"/>
<feBlend mode="normal" in2="BackgroundImageFix" result="effect1_dropShadow_385_3733"/>
<feColorMatrix in="SourceAlpha" type="matrix" values="0 0 0 0 0 0 0 0 0 0 0 0 0 0 0 0 0 0 127 0" result="hardAlpha"/>
<feMorphology radius="4" operator="erode" in="SourceAlpha" result="effect2_dropShadow_385_3733"/>
<feOffset dy="12"/>
<feGaussianBlur stdDeviation="8"/>
<feColorMatrix type="matrix" values="0 0 0 0 0 0 0 0 0 0 0 0 0 0 0 0 0 0 0.08 0"/>
<feBlend mode="normal" in2="effect1_dropShadow_385_3733" result="effect2_dropShadow_385_3733"/>
<feBlend mode="normal" in="SourceGraphic" in2="effect2_dropShadow_385_3733" result="shape"/>
</filter>
</defs>
</svg>
