<svg width="116" height="52" viewBox="0 0 116 52" fill="none" xmlns="http://www.w3.org/2000/svg">
<path d="M70.4058 8.53017C64.8187 8.3574 59.4974 6.75973 54.4162 5.00717C49.3349 3.2546 44.302 1.31699 38.8489 0.390258C35.3415 -0.205472 31.33 -0.290363 28.5045 1.37805C25.7843 2.9828 24.9055 5.75407 24.4335 8.32576C24.078 10.2596 23.8688 12.2956 24.8427 14.1066C25.5196 15.3643 26.7194 16.4214 27.5498 17.6251C30.4392 21.8164 28.3966 26.9837 25.2665 31.0793C23.7991 32.999 22.0938 34.8298 20.9605 36.8735C19.8272 38.9172 19.3028 41.2581 20.2949 43.3405C21.2772 45.4066 23.6193 46.9581 26.1565 48.0494C31.3093 50.2622 37.379 50.9004 43.3019 51.26C56.409 52.0568 69.5851 51.7113 82.7267 51.3661C87.5905 51.2388 92.4749 51.1096 97.2591 50.442C99.9161 50.0719 102.659 49.4844 104.588 48.0647C107.036 46.2626 107.643 43.2113 106.002 40.9532C103.25 37.1639 95.6428 36.2219 93.7168 32.155C92.6583 29.9165 93.7451 27.423 95.2844 25.3465C98.5856 20.8923 104.118 16.9847 104.409 11.8923C104.61 8.39613 101.95 4.89249 97.8365 3.24008C93.5262 1.50502 87.548 1.72395 84.3695 4.59425C81.0934 7.54423 75.3396 8.68171 70.4058 8.53017Z" fill="#1A202A"/>
<path d="M107.89 2.11473C107.483 2.10867 107.095 2.05261 106.724 1.99112C106.354 1.92963 105.987 1.86164 105.589 1.82912C105.334 1.80822 105.041 1.80524 104.835 1.86378C104.637 1.92009 104.573 2.01733 104.538 2.10756C104.512 2.17542 104.497 2.24685 104.568 2.3104C104.617 2.35453 104.705 2.39162 104.765 2.43385C104.976 2.58092 104.827 2.76222 104.599 2.90593C104.492 2.97329 104.368 3.03753 104.285 3.10924C104.202 3.18095 104.164 3.26308 104.236 3.33615C104.308 3.40864 104.479 3.46308 104.664 3.50137C105.04 3.57902 105.482 3.60141 105.914 3.61403C106.87 3.64199 107.831 3.62986 108.789 3.61775C109.143 3.61328 109.5 3.60875 109.848 3.58533C110.042 3.57234 110.242 3.55172 110.383 3.50191C110.561 3.43868 110.606 3.33162 110.486 3.25238C110.285 3.11943 109.731 3.08637 109.59 2.94367C109.513 2.86513 109.592 2.77764 109.704 2.70478C109.945 2.54849 110.349 2.41138 110.37 2.2327C110.384 2.11003 110.19 1.9871 109.891 1.92912C109.576 1.86824 109.14 1.87592 108.909 1.97663C108.67 2.08014 108.25 2.12005 107.89 2.11473Z" fill="#1A202A"/>
<path d="M109.914 45.8406C108.983 45.8315 108.096 45.7474 107.249 45.6551C106.402 45.5629 105.563 45.4609 104.654 45.4121C104.07 45.3808 103.401 45.3763 102.93 45.4641C102.477 45.5486 102.33 45.6944 102.252 45.8298C102.193 45.9316 102.158 46.0387 102.32 46.1341C102.433 46.2002 102.633 46.2559 102.771 46.3192C103.253 46.5398 102.912 46.8118 102.391 47.0274C102.146 47.1284 101.862 47.2247 101.673 47.3323C101.484 47.4399 101.397 47.5631 101.562 47.6727C101.726 47.7814 102.116 47.8631 102.539 47.9205C103.398 48.037 104.409 48.0706 105.397 48.0895C107.581 48.1314 109.777 48.1132 111.967 48.0951C112.778 48.0884 113.592 48.0816 114.389 48.0464C114.832 48.027 115.289 47.996 115.611 47.9213C116.019 47.8265 116.12 47.6659 115.847 47.547C115.388 47.3476 114.12 47.298 113.799 47.084C113.623 46.9662 113.804 46.8349 114.06 46.7256C114.61 46.4912 115.533 46.2855 115.581 46.0175C115.614 45.8335 115.171 45.6491 114.486 45.5621C113.767 45.4708 112.771 45.4823 112.241 45.6334C111.695 45.7887 110.736 45.8485 109.914 45.8406Z" fill="#1A202A"/>
<path d="M9.14527 46.7478C8.21409 46.7387 7.32721 46.6546 6.48034 46.5624C5.63346 46.4701 4.79464 46.3681 3.88579 46.3194C3.30121 46.288 2.63263 46.2835 2.16172 46.3714C1.70835 46.4558 1.56189 46.6017 1.48321 46.737C1.42396 46.8388 1.3891 46.946 1.55142 47.0413C1.66423 47.1075 1.8642 47.1631 2.00261 47.2265C2.48418 47.4471 2.14374 47.719 1.62205 47.9346C1.37748 48.0356 1.09327 48.132 0.904388 48.2395C0.715501 48.3471 0.628108 48.4703 0.793452 48.5799C0.957162 48.6886 1.34752 48.7703 1.77039 48.8277C2.62918 48.9442 3.6408 48.9778 4.62796 48.9967C6.81248 49.0387 9.00849 49.0205 11.1988 49.0023C12.0094 48.9956 12.8235 48.9888 13.6208 48.9537C14.0637 48.9342 14.5208 48.9033 14.8423 48.8285C15.2504 48.7337 15.3515 48.5731 15.078 48.4543C14.6193 48.2548 13.3514 48.2052 13.0304 47.9912C12.854 47.8734 13.0352 47.7421 13.2917 47.6329C13.8419 47.3984 14.764 47.1928 14.8125 46.9247C14.8459 46.7407 14.4026 46.5563 13.7171 46.4694C12.9987 46.378 12.0023 46.3896 11.4726 46.5406C10.9265 46.6959 9.96758 46.7558 9.14527 46.7478Z" fill="#1A202A"/>
<path d="M28.2097 24.0525C27.2785 24.0434 26.3917 23.9593 25.5448 23.8671C24.6979 23.7748 23.8591 23.6728 22.9502 23.6241C22.3657 23.5927 21.6971 23.5882 21.2262 23.676C20.7728 23.7605 20.6263 23.9064 20.5477 24.0417C20.4884 24.1435 20.4536 24.2507 20.6159 24.346C20.7287 24.4122 20.9286 24.4678 21.0671 24.5312C21.5486 24.7517 21.2082 25.0237 20.6865 25.2393C20.4419 25.3403 20.1577 25.4367 19.9688 25.5442C19.78 25.6518 19.6926 25.775 19.8579 25.8846C20.0216 25.9933 20.412 26.075 20.8348 26.1324C21.6936 26.2489 22.7053 26.2825 23.6924 26.3014C25.8769 26.3433 28.0729 26.3252 30.2632 26.307C31.0738 26.3003 31.8879 26.2935 32.6853 26.2584C33.1281 26.2389 33.5852 26.208 33.9068 26.1332C34.3148 26.0384 34.4159 25.8778 34.1424 25.7589C33.6838 25.5595 32.4159 25.5099 32.0949 25.2959C31.9185 25.1781 32.0996 25.0468 32.3562 24.9375C32.9064 24.7031 33.8285 24.4974 33.8769 24.2294C33.9103 24.0454 33.467 23.861 32.7815 23.774C32.0631 23.6827 31.0668 23.6942 30.537 23.8453C29.991 24.0006 29.032 24.0604 28.2097 24.0525Z" fill="#1A202A"/>
<path d="M61.6337 37.5262C61.4212 37.5281 61.2109 37.4835 61.0175 37.3956C60.824 37.3077 60.6521 37.1786 60.5138 37.0173L52.8262 28.6686C52.5662 28.37 52.4336 27.9815 52.4567 27.5863C52.4798 27.1911 52.6568 26.8207 52.9497 26.5544C53.2427 26.2881 53.6283 26.1472 54.0239 26.1619C54.4195 26.1766 54.7936 26.3457 55.0661 26.6329L61.6848 33.8094L80.0107 15.5342C80.1508 15.3924 80.3175 15.2798 80.5013 15.2027C80.6851 15.1256 80.8823 15.0856 81.0816 15.085C81.2809 15.0844 81.4784 15.1232 81.6627 15.1992C81.8469 15.2752 82.0143 15.3868 82.1552 15.5278C82.2962 15.6687 82.4078 15.8361 82.4838 16.0204C82.5598 16.2046 82.5986 16.4021 82.598 16.6014C82.5974 16.8007 82.5574 16.9979 82.4803 17.1817C82.4032 17.3655 82.2906 17.5322 82.1488 17.6723L62.7035 37.0674C62.5691 37.2169 62.4038 37.3353 62.2191 37.4145C62.0344 37.4938 61.8346 37.5319 61.6337 37.5262Z" fill="#21A365"/>
<path d="M63.0593 50.5075C57.6859 50.5075 52.5326 48.3729 48.733 44.5734C44.9334 40.7738 42.7988 35.6205 42.7988 30.2471C42.7988 24.8736 44.9334 19.7203 48.733 15.9207C52.5326 12.1212 57.6859 9.98658 63.0593 9.98658C63.2609 9.98287 63.4611 10.0198 63.648 10.0953C63.835 10.1707 64.0048 10.283 64.1474 10.4256C64.2899 10.5681 64.4023 10.738 64.4777 10.9249C64.5531 11.1119 64.5901 11.3121 64.5864 11.5136C64.59 11.7152 64.553 11.9154 64.4776 12.1023C64.4021 12.2893 64.2898 12.4591 64.1473 12.6016C64.0047 12.7441 63.8349 12.8565 63.648 12.9319C63.4611 13.0074 63.2608 13.0444 63.0593 13.0407C59.6563 13.0407 56.3297 14.0498 53.5001 15.9404C50.6706 17.8311 48.4653 20.5183 47.163 23.6623C45.8607 26.8063 45.52 30.2658 46.1839 33.6035C46.8478 36.9411 48.4865 40.007 50.8928 42.4133C53.2991 44.8196 56.3649 46.4583 59.7026 47.1222C63.0402 47.7861 66.4998 47.4453 69.6438 46.1431C72.7878 44.8408 75.475 42.6354 77.3656 39.8059C79.2562 36.9764 80.2653 33.6498 80.2653 30.2468C80.2653 29.8417 80.4262 29.4533 80.7126 29.167C80.999 28.8806 81.3874 28.7197 81.7924 28.7197C82.1974 28.7197 82.5858 28.8806 82.8722 29.167C83.1586 29.4533 83.3195 29.8417 83.3195 30.2468C83.3056 35.6159 81.1666 40.7611 77.3701 44.5577C73.5736 48.3544 68.4284 50.4935 63.0593 50.5075Z" fill="#21A365"/>
</svg>
